<svg xmlns="http://www.w3.org/2000/svg" width="402.341" height="267.164" viewBox="0 0 402.341 267.164">
  <g id="undraw_page_not_found_re_e9o6" transform="translate(-0.005)">
    <path id="Path_7219" data-name="Path 7219" d="M497.809,308.107c-3.587-5.933-7.839-12.268-14.5-14.206-7.71-2.244-15.63,2.213-22.347,6.612a651.2,651.2,0,0,0-57.953,42.7l.02.231,43.245-2.982c10.415-.718,21.188-1.536,30.392-6.462,3.493-1.87,6.9-4.367,10.855-4.541,4.917-.216,9.2,3.218,12.574,6.806,19.93,21.223,25.7,53.678,48.057,72.324A709.6,709.6,0,0,0,497.809,308.107Z" transform="translate(-293.984 -233.017)" fill="#f2f2f2"/>
    <path id="Path_7220" data-name="Path 7220" d="M565.863,472.359c-2.2-2.783-3.1-3.435-5.279-6.244q-26.552-34.342-49.914-71-15.868-24.9-30.163-50.755-6.805-12.292-13.238-24.777-4.991-9.68-9.76-19.477c-.909-1.865-1.792-3.739-2.672-5.617-2.071-4.417-4.1-8.855-6.286-13.212-2.487-4.966-5.514-10.172-10.082-13.508a13.755,13.755,0,0,0-7.166-2.757c-3.718-.24-7.148,1.3-10.373,2.972a333.922,333.922,0,0,0-65.66,45.279,341.833,341.833,0,0,0-53.345,59.215c-.472.673-1.587.03-1.111-.647q2.811-3.975,5.733-7.865A343.724,343.724,0,0,1,394.3,282.111q8.536-5.532,17.393-10.545c2.976-1.685,5.965-3.349,9.005-4.91,2.98-1.531,6.145-2.907,9.55-2.959,11.587-.18,17.586,12.942,21.707,21.771q1.943,4.168,3.932,8.31,7.519,15.727,15.617,31.166,5,9.533,10.214,18.954,16.235,29.337,34.511,57.487c16.141,24.858,32.153,46.818,50.54,70.064C567.278,472.094,566.374,473.012,565.863,472.359Z" transform="translate(-239.53 -217.261)" fill="#e4e4e4"/>
    <path id="Path_7221" data-name="Path 7221" d="M296.509,331.639c-.673-.75-1.342-1.5-2.02-2.251-5.343-5.909-11.076-11.75-18.413-15.137a26.714,26.714,0,0,0-11.192-2.594,31.94,31.94,0,0,0-11.621,2.534c-1.75.7-3.461,1.492-5.146,2.337-1.925.969-3.817,2-5.7,3.045q-5.3,2.933-10.463,6.124-10.272,6.349-19.9,13.666-4.992,3.8-9.777,7.839-4.451,3.756-8.722,7.714c-.609.562-1.518-.347-.909-.909.75-.7,1.509-1.394,2.268-2.08q3.216-2.907,6.535-5.7,6.053-5.107,12.419-9.82,9.9-7.333,20.48-13.671,5.287-3.165,10.72-6.063c1.094-.583,2.2-1.154,3.319-1.694a52.9,52.9,0,0,1,7.89-3.212,28.068,28.068,0,0,1,11.917-1.171,31.025,31.025,0,0,1,10.995,3.8c7.2,4.027,12.791,10.253,18.229,16.329C297.967,331.343,297.062,332.256,296.509,331.639Z" transform="translate(-181.912 -242.118)" fill="#e4e4e4"/>
    <path id="Path_7222" data-name="Path 7222" d="M729.59,470.569l17.263-6.314,8.571-3.135a87.64,87.64,0,0,1,8.462-2.914,13.35,13.35,0,0,1,7.659.1,17.653,17.653,0,0,1,5.974,3.7,48.485,48.485,0,0,1,4.9,5.233c1.866,2.243,3.7,4.509,5.551,6.767q11.433,13.982,22.716,28.085T833.1,530.418q11.159,14.258,22.165,28.635,1.348,1.761,2.694,3.524c.5.649,1.614.009,1.111-.649Q847.984,547.406,836.742,533q-11.269-14.437-22.694-28.752t-23-28.5q-2.885-3.535-5.779-7.063c-1.628-1.984-3.237-3.989-5.022-5.835-3.277-3.389-7.371-6.384-12.272-6.465a23.684,23.684,0,0,0-8.347,1.835c-2.886,1.044-5.765,2.108-8.647,3.162l-17.383,6.358-4.346,1.59c-.771.282-.438,1.526.342,1.241Z" transform="translate(-467.384 -319.815)" fill="#e4e4e4"/>
    <path id="Path_7223" data-name="Path 7223" d="M334.44,331.253a27.87,27.87,0,0,0-28.068,2.007,400.328,400.328,0,0,1,45.547,10.63C345.706,340.25,340.845,334.545,334.44,331.253Z" transform="translate(-242.548 -251.686)" fill="#f2f2f2"/>
    <path id="Path_7224" data-name="Path 7224" d="M304.266,338.784l-1.689,1.373c.571-.48,1.165-.931,1.775-1.357Z" transform="translate(-240.529 -257.225)" fill="#f2f2f2"/>
    <path id="Path_7225" data-name="Path 7225" d="M821.933,481.072c-1.7-2.068-3.537-4.234-6.078-5.074l-2.373.094a269.169,269.169,0,0,0,71.693,81.962Z" transform="translate(-512.449 -330.255)" fill="#f2f2f2"/>
    <path id="Path_7226" data-name="Path 7226" d="M514.274,450.367a17.532,17.532,0,0,0,6.984,9.8c1.319.9,2.88,1.76,3.331,3.291a3.919,3.919,0,0,1-.409,2.877,11.637,11.637,0,0,1-1.806,2.358l-.064.239c-3.274-1.94-6.388-4.394-8.2-7.742s-2.061-7.736.16-10.827" transform="translate(-352.354 -316.613)" fill="#f2f2f2"/>
    <path id="Path_7227" data-name="Path 7227" d="M747.274,653.367a17.532,17.532,0,0,0,6.984,9.8c1.319.9,2.88,1.76,3.331,3.291a3.919,3.919,0,0,1-.409,2.877,11.637,11.637,0,0,1-1.806,2.358l-.064.24c-3.274-1.94-6.388-4.394-8.2-7.742s-2.061-7.736.16-10.827" transform="translate(-476.365 -424.656)" fill="#f2f2f2"/>
    <path id="Path_7228" data-name="Path 7228" d="M282.274,639.367a17.532,17.532,0,0,0,6.984,9.8c1.319.9,2.88,1.76,3.331,3.291a3.919,3.919,0,0,1-.409,2.877,11.641,11.641,0,0,1-1.806,2.358l-.064.24c-3.274-1.94-6.388-4.394-8.2-7.742s-2.061-7.736.16-10.827" transform="translate(-228.876 -417.205)" fill="#f2f2f2"/>
    <circle id="Ellipse_331" data-name="Ellipse 331" cx="23.856" cy="23.856" r="23.856" transform="translate(279.844)" fill="#0081c8"/>
    <path id="Path_7229" data-name="Path 7229" d="M857.764,176.026c-11.562-1.563-24.761,4.686-27.758,15.962a10.1,10.1,0,0,0-19.222.986l1.324.948a174.138,174.138,0,0,0,75.151-.34C879.216,185.131,869.326,177.589,857.764,176.026Z" transform="translate(-511.013 -170.474)" fill="#f0f0f0"/>
    <path id="Path_7230" data-name="Path 7230" d="M751.764,244.026c-11.562-1.563-24.761,4.686-27.758,15.962a10.1,10.1,0,0,0-19.222.986l1.324.948a174.137,174.137,0,0,0,75.151-.34C773.216,253.131,763.326,245.589,751.764,244.026Z" transform="translate(-454.597 -206.665)" fill="#f0f0f0"/>
    <path id="Path_7231" data-name="Path 7231" d="M572.333,220.925a.46.46,0,0,1-.141-.022,660.494,660.494,0,0,0-302.357-22.821c-9.481,1.521-18.987,3.277-28.255,5.221-2.366.5-4.821,1.027-7.3,1.58-2.956.658-5.872,1.336-8.669,2.014q-1.812.429-3.553.865c-1.758.434-3.542.886-5.454,1.383-2.137.551-4.308,1.129-6.454,1.718l-.024.007h0c-2.424.662-4.836,1.343-7.168,2.023-1.262.365-2.481.724-3.648,1.079-.13.036-.246.071-.363.106l-.251.076c-.145.044-.289.088-.432.129l-.009,0h0l-.38.118c-.453.137-.894.271-1.329.4-11.481,3.539-17.793,6.057-17.855,6.082a.468.468,0,1,1-.348-.868c.063-.025,6.405-2.555,17.928-6.108.436-.134.879-.268,1.333-.405l.353-.11.037-.012c.143-.041.285-.084.43-.128l.251-.076c.125-.038.249-.075.375-.11,1.159-.353,2.382-.713,3.648-1.079,2.333-.681,4.747-1.362,7.173-2.025l.023-.007h0c2.154-.591,4.333-1.171,6.476-1.724,1.915-.5,3.7-.951,5.463-1.385q1.748-.435,3.559-.867c2.8-.679,5.722-1.358,8.683-2.017,2.479-.554,4.938-1.086,7.308-1.582,9.282-1.947,18.8-3.706,28.3-5.229a661.419,661.419,0,0,1,302.787,22.852.468.468,0,0,1-.141.914Z" transform="translate(-174.254 -177.55)" fill="#ccc"/>
    <path id="Path_7232" data-name="Path 7232" d="M331.564,528.1a3.148,3.148,0,0,0-.8-1.249,3.008,3.008,0,0,0-.43-.332,3.6,3.6,0,0,0-4.205,0,2.716,2.716,0,0,0-.323.332q-.519.638-1.066,1.249c-.6.683-1.212,1.342-1.852,1.983-.182.178-.365.36-.552.538-.108.108-.215.21-.323.313-.412.393-.833.772-1.258,1.146-.225.2-.449.4-.678.589-.341.285-.683.571-1.029.847-.033.023-.065.047-.1.075-.009,0-.014.014-.023.019s-.009,0-.014.009a.084.084,0,0,0-.033.023c-.1.07-.173.117-.225.159.019-.009.037-.023.056-.033-.084.065-.173.131-.257.2-.819.6-1.656,1.183-2.512,1.726a46.4,46.4,0,0,1-6.652,3.532c-.154.061-.313.126-.472.187a40.214,40.214,0,0,1-19.108,2.816q-1-.077-1.993-.211c-.767-.112-1.53-.248-2.287-.4A45.818,45.818,0,0,1,277,539.068a55.508,55.508,0,0,1-9.664-5.669c-.468-.332-.94-.664-1.413-.987q.807-1.979,1.581-3.967c.257-.641.505-1.282.748-1.927,1.913-4.972,3.709-9.992,5.431-15.029q2.61-7.655,4.926-15.4.239-.786.463-1.572,1.214-4.091,2.329-8.2c.07-.267.145-.529.211-.8q.323-1.179.631-2.358a3.508,3.508,0,1,0-6.764-1.866c-.2.758-.4,1.511-.608,2.269q-1.48,5.494-3.115,10.95l-.477,1.572q-3.606,11.886-7.919,23.533-.519,1.41-1.052,2.811c-.173.458-.346.917-.524,1.375-.341.9-.692,1.806-1.043,2.708-.2.529-.407,1.057-.613,1.581-.136.332-.267.664-.4.992a19.555,19.555,0,0,0-4.121-.992l-.225-.028a12.813,12.813,0,0,0-3.279.028,11.186,11.186,0,0,0-8.064,4.986c-2.231,3.513-2.2,8.537.926,11.521,3.223,3.073,8.1,3.05,11.9,1.127a13.261,13.261,0,0,0,4.921-4.612,23.634,23.634,0,0,0,1.282-2.175c.1.065.2.131.295.2.374.262.748.529,1.118.791a52.264,52.264,0,0,0,6.787,4.168,50.687,50.687,0,0,0,16.194,4.9c.126.014.248.033.374.047.622.08,1.249.14,1.876.192a48.545,48.545,0,0,0,26-5.314q1.017-.526,2.016-1.1,1.551-.9,3.031-1.909c.538-.365,1.062-.734,1.581-1.123a47.268,47.268,0,0,0,6.32-5.59q1.1-1.158,2.11-2.39a3.771,3.771,0,0,0,1.029-2.479A3.539,3.539,0,0,0,331.564,528.1Zm-77.457,11.142c.1-.07.2-.145.29-.22C254.368,539.091,254.232,539.171,254.106,539.241Zm1.5-1.511c-.108.122-.206.243-.313.365a10.932,10.932,0,0,1-1.052,1.029c-.051.047-.108.094-.164.136h0a0,0,0,0,0,0,0,1.788,1.788,0,0,0-.2.1q-.3.182-.617.337a7.948,7.948,0,0,1-1.268.351,7.854,7.854,0,0,1-1,.009h-.009a6.935,6.935,0,0,1-.678-.187c-.112-.056-.22-.122-.327-.187-.042-.037-.08-.075-.1-.1a1.138,1.138,0,0,1-.126-.136,0,0,0,0,0,0,0h0c-.051-.094-.108-.187-.159-.281a.015.015,0,0,1,0-.009c-.037-.117-.07-.239-.1-.36a5.848,5.848,0,0,1,0-.641,6.3,6.3,0,0,1,.253-.879,5.177,5.177,0,0,1,.323-.589c.009-.019.056-.094.108-.178,0,0,0,0,0-.009.07-.08.14-.164.215-.239.126-.14.262-.262.4-.388a8.427,8.427,0,0,1,.819-.472,9.111,9.111,0,0,1,1.371-.37,11.69,11.69,0,0,1,2.063.019,14.167,14.167,0,0,1,1.918.472,17.281,17.281,0,0,1-1.3,2.124C255.645,537.679,255.626,537.707,255.608,537.73Zm-5.2-1.539a1.021,1.021,0,0,1-.145.182A.658.658,0,0,1,250.406,536.191Z" transform="translate(-208.544 -331.712)" fill="#3f3d56"/>
    <path id="Path_7233" data-name="Path 7233" d="M391.207,478.144l-.126,4.406q-.133,4.891-.276,9.786-.147,5.508-.309,11.011-.077,2.842-.159,5.683-.217,7.655-.43,15.305c-.014.529-.033,1.052-.047,1.581l-.211,7.592q-.119,4.119-.234,8.237-.084,3.087-.173,6.179-.631,22.4-1.263,44.807a3.578,3.578,0,0,1-3.508,3.508,3.537,3.537,0,0,1-3.508-3.508q.351-12.6.711-25.2.316-11.395.641-22.79.105-3.754.211-7.512.161-5.655.318-11.311c.014-.529.033-1.052.047-1.581.009-.463.023-.922.037-1.385q.309-10.981.617-21.966.126-4.322.243-8.649.14-4.933.281-9.861c.042-1.445.08-2.886.122-4.332a3.578,3.578,0,0,1,3.508-3.508A3.537,3.537,0,0,1,391.207,478.144Z" transform="translate(-282.248 -329.53)" fill="#3f3d56"/>
    <path id="Path_7234" data-name="Path 7234" d="M776.741,481.3a417.823,417.823,0,0,1-13.173,41.136c-1.407,3.717-2.846,7.427-4.384,11.092l.354-.838a25.538,25.538,0,0,1-2.615,4.964q-.107.15-.218.3.545-.7.207-.275c-.119.141-.236.282-.359.419a11.054,11.054,0,0,1-1.052,1.031q-.141.121-.286.236l.439-.341c-.051.12-.408.28-.52.347a8.532,8.532,0,0,1-1.125.57l.838-.354a8.928,8.928,0,0,1-1.979.543L753.8,540a7.958,7.958,0,0,1-2.01.021l.933.125a6.551,6.551,0,0,1-1.593-.429l.838.354a5.617,5.617,0,0,1-.785-.419c-.127-.083-.517-.378-.007.012.53.405.068.035-.041-.073-.091-.09-.173-.187-.262-.278-.413-.423.466.728.186.233a8.506,8.506,0,0,1-.411-.766l.354.838a5.582,5.582,0,0,1-.341-1.24l.125.933a6.382,6.382,0,0,1,0-1.593l-.125.933a7.467,7.467,0,0,1,.465-1.721l-.354.838a7.82,7.82,0,0,1,.551-1.075,3.145,3.145,0,0,1,.341-.5c.023.007-.593.708-.266.354.086-.092.166-.19.252-.281.138-.147.287-.281.433-.42.489-.465-.684.452-.12.084a8.919,8.919,0,0,1,1.286-.7l-.838.354a9.5,9.5,0,0,1,2.337-.627l-.933.125a11.987,11.987,0,0,1,3.022.036l-.933-.125a15.533,15.533,0,0,1,3.691,1.038l-.838-.354a39.025,39.025,0,0,1,6.983,4.265,52.366,52.366,0,0,0,6.786,4.166,50.7,50.7,0,0,0,16.2,4.9,48.617,48.617,0,0,0,43.308-17.191,3.778,3.778,0,0,0,1.028-2.481,3.57,3.57,0,0,0-1.028-2.481c-1.287-1.182-3.718-1.515-4.961,0a44.737,44.737,0,0,1-3.792,4.082q-.944.9-1.938,1.735-.568.48-1.151.941c-.184.145-.757.532.123-.092-.2.143-.4.3-.594.447a46.434,46.434,0,0,1-9.511,5.41l.838-.354a45.294,45.294,0,0,1-11.306,3.1l.933-.125a45.671,45.671,0,0,1-12.047-.018l.933.125a46.686,46.686,0,0,1-11.627-3.167l.838.354A54.279,54.279,0,0,1,768.6,533.4a40.635,40.635,0,0,0-5.2-3.272,20.033,20.033,0,0,0-6.754-2.053,11.645,11.645,0,0,0-11.342,5.015c-2.234,3.511-2.205,8.534.923,11.519,3.222,3.074,8.1,3.048,11.9,1.125,3.657-1.852,5.853-5.7,7.4-9.328,3.476-8.165,6.553-16.519,9.421-24.915q4.255-12.46,7.718-25.172.429-1.574.845-3.152a3.509,3.509,0,0,0-6.766-1.865Z" transform="translate(-475.33 -331.713)" fill="#3f3d56"/>
    <path id="Path_7235" data-name="Path 7235" d="M885.45,478.144l-1.263,44.809-1.256,44.575-.71,25.2a3.539,3.539,0,0,0,3.508,3.508,3.578,3.578,0,0,0,3.508-3.508l1.263-44.809,1.256-44.575.71-25.2a3.539,3.539,0,0,0-3.508-3.508,3.578,3.578,0,0,0-3.508,3.508Z" transform="translate(-549.034 -329.53)" fill="#3f3d56"/>
    <path id="Path_7236" data-name="Path 7236" d="M567.077,597.485h1.089v-49.6h25.413V546.8H568.166v-20.93h19.626q-.431-.549-.888-1.084H568.166V510.958c-.36-.154-.723-.3-1.089-.441v14.265H545.722V507.07c-.366.017-.726.042-1.089.073v17.639H527.6V511.567c-.366.162-.726.332-1.084.511v12.7H512.191v1.084h14.321V546.8H512.191v1.087h14.321v49.6H527.6v-49.6a17.033,17.033,0,0,1,17.036,17.039v32.563h1.089v-49.6h21.354ZM527.6,546.8v-20.93h17.036V546.8Zm18.125,0v-20.93h.427a20.928,20.928,0,0,1,20.927,20.929Z" transform="translate(-352.092 -346.793)" opacity="0.2"/>
    <path id="Path_7237" data-name="Path 7237" d="M594.455,641.172a29.5,29.5,0,0,1-9.379,15.764c-.346.3-.692.589-1.052.875q-1.312.119-2.605.243c-.716.066-1.422.136-2.124.2l-.126.014-.089-.767-.356-3.106a17.6,17.6,0,0,1-1.544-15.174c1.235-3.331,3.471-6.273,5.669-9.192,3.036-4.032,5.987-8.017,6.1-12.934a28.32,28.32,0,0,1,3.7,6.235,7.687,7.687,0,0,0-2.395,1.763c-.192.211-.384.505-.253.758.112.215.393.267.636.295l1.759.182c.468.051.936.1,1.4.15a29.94,29.94,0,0,1,1.146,5.7A28.622,28.622,0,0,1,594.455,641.172Z" transform="translate(-386.124 -405.352)" fill="#3f3d56"/>
    <path id="Path_7238" data-name="Path 7238" d="M613.579,642.311c-2.76,2.007-4.374,4.893-5.627,8.074a7.776,7.776,0,0,0-3.354,2.142c-.192.21-.384.505-.253.758.112.215.393.267.636.295l1.759.182c-1.254,3.761-2.4,7.653-4.621,10.829a17.3,17.3,0,0,1-5.627,5.1,18,18,0,0,1-1.88.931q-3.564.274-6.993.585-1.312.119-2.605.243c-.716.066-1.422.136-2.124.2q-.007-.386,0-.772a29.611,29.611,0,0,1,7.133-18.645c.21-.243.426-.482.646-.72a28.906,28.906,0,0,1,7.863-5.941,29.309,29.309,0,0,1,15.048-3.265Z" transform="translate(-389.718 -418.751)" fill="#0081c8"/>
    <path id="Path_7239" data-name="Path 7239" d="M574.8,655.6l-.538,1.59-.271.809c-.716.065-1.422.136-2.124.2l-.126.014-2.32.239c-.2-.234-.4-.472-.6-.716a29.016,29.016,0,0,1,3.775-40.747,16.96,16.96,0,0,0,1.286,9.4c-.126.051-.248.1-.365.159a7.685,7.685,0,0,0-2.395,1.763c-.192.211-.384.505-.253.758.112.215.393.267.636.295l1.759.182c.468.051.936.1,1.4.15l.659.07c.033.07.061.136.094.206A56.826,56.826,0,0,1,579,638.779a20.407,20.407,0,0,1,.477,2.3A17.59,17.59,0,0,1,574.8,655.6Z" transform="translate(-378.698 -405.294)" fill="#0081c8"/>
    <path id="Path_7240" data-name="Path 7240" d="M579.814,522.512a51.821,51.821,0,0,0-17.6-19.32,53.436,53.436,0,0,0-24.587-8.6q-1.726-.157-3.461-.184c-1.366-.02-21.922,5.909-28.808,10.75a53.465,53.465,0,0,0-16.528,18.489,47.946,47.946,0,0,0-5.672,24.152,53.122,53.122,0,0,0,6.877,24.079,51.676,51.676,0,0,0,17.047,18.124c7.175,4.578,14.382,16.716,22.852,17.144,8.535.432,18.268-11.018,26.052-14.495A48.848,48.848,0,0,0,575.5,576.748a51.571,51.571,0,0,0,9.168-22.9,52.963,52.963,0,0,0-2.246-25.267,52.331,52.331,0,0,0-2.61-6.073,3.532,3.532,0,0,0-4.8-1.259,3.592,3.592,0,0,0-1.259,4.8q.733,1.444,1.364,2.936l-.354-.838a47.317,47.317,0,0,1,3.216,11.946l-.125-.933a51.092,51.092,0,0,1-.031,13.417l.125-.933a51.325,51.325,0,0,1-3.534,12.945l.354-.838a48.74,48.74,0,0,1-3.121,6.127q-.9,1.49-1.909,2.91c-.3.415-.6.824-.907,1.231-.4.531.546-.694.132-.173l-.211.266q-.319.4-.646.789a43.782,43.782,0,0,1-4.76,4.857q-.639.558-1.3,1.09c-.219.177-.436.361-.665.526.009-.006.739-.561.307-.239-.136.1-.271.2-.407.3q-1.361,1.008-2.795,1.914a48.4,48.4,0,0,1-6.9,3.608l.838-.354a51.084,51.084,0,0,1-12.909,3.532l.933-.125a50.592,50.592,0,0,1-13.373.024l.932.125A46.7,46.7,0,0,1,516.271,587l.838.354a43.8,43.8,0,0,1-6.276-3.27q-1.485-.935-2.892-1.987c-.134-.1-.267-.2-.4-.3-.428-.323.308.238.314.242a8.982,8.982,0,0,1-.718-.573q-.68-.554-1.338-1.133a47.719,47.719,0,0,1-4.908-5.01q-.567-.671-1.111-1.361c-.157-.2-.443-.6.189.247-.083-.112-.169-.222-.253-.333q-.3-.4-.6-.808-1.031-1.426-1.959-2.922a51.117,51.117,0,0,1-3.651-7.067l.354.838a49.857,49.857,0,0,1-3.434-12.553l.125.933a45.779,45.779,0,0,1-.023-11.992l-.125.933a44.288,44.288,0,0,1,3.085-11.207l-.354.838a47.509,47.509,0,0,1,3.366-6.482q.966-1.554,2.048-3.033.246-.336.5-.668c.152-.2.568-.7-.143.182.07-.086.137-.175.206-.262q.593-.752,1.216-1.48a50.234,50.234,0,0,1,5.091-5.155q.69-.6,1.4-1.183.323-.263.651-.521c.087-.069.176-.136.263-.205-.934.744-.26.2-.047.044q1.466-1.1,3.01-2.087a48.485,48.485,0,0,1,7.2-3.793l-.838.354c3.63-1.524,19.712-5.122,22.637-4.729l-.933-.125a49.691,49.691,0,0,1,12.5,3.453l-.838-.354a51.607,51.607,0,0,1,5.894,2.961q1.424.835,2.791,1.76.647.438,1.281.9.317.229.63.463l.347.261c.486.364-.67-.528-.16-.125a51.851,51.851,0,0,1,4.85,4.328q1.123,1.144,2.169,2.36.536.624,1.051,1.266c.17.213.751.983.039.04.174.231.35.46.521.692a45.838,45.838,0,0,1,3.925,6.333,3.533,3.533,0,0,0,4.8,1.259A3.591,3.591,0,0,0,579.814,522.512Z" transform="translate(-336.626 -340.055)" fill="#3f3d56"/>
    <path id="Path_7241" data-name="Path 7241" d="M554.327,604.49a1.768,1.768,0,0,1-1.281-3.065l.121-.482-.048-.116c-1.628-3.881-12.015,6.939-12.464,10.586a14.046,14.046,0,0,0,.247,4.831,56.318,56.318,0,0,1-5.123-23.39,54.4,54.4,0,0,1,.337-6.064q.279-2.476.775-4.916a56.968,56.968,0,0,1,11.3-24.144c3.215.179,6.033-.31,6.305-6.542.048-1.108.871-2.068,1.052-3.16-.307.04-.619.065-.926.086l-.292.015-.036,0a1.752,1.752,0,0,1-1.439-2.854l.4-.489c.2-.252.408-.5.609-.75a.876.876,0,0,0,.065-.076c.231-.287.463-.569.694-.855a5.066,5.066,0,0,0-1.661-1.605c-2.32-1.359-5.52-.418-7.2,1.681a9.154,9.154,0,0,0-1.414,7.664,20.3,20.3,0,0,0,2.808,6.26c-.126.161-.257.317-.382.478a57.337,57.337,0,0,0-5.984,9.481c.475-3.713-5.338-17.124-7.586-19.964a4.892,4.892,0,0,0-8.714,2.4q-.007.063-.014.126.5.283.981.6a2.4,2.4,0,0,1-.967,4.364l-.049.008c-4.47,6.382,9.859,22.993,13.446,19.263a58.52,58.52,0,0,0-3.15,14.825,55.5,55.5,0,0,0,.04,8.962l-.015-.106c-.8-6.494-14.468-16.148-18.461-15.344-2.3.463-4.565.358-4.216,2.678l.017.111a16.094,16.094,0,0,1,1.807.871q.5.283.981.6a2.4,2.4,0,0,1-.967,4.364l-.049.008-.1.015c-2.035,7,13.054,18.3,22.227,14.7h.005a58.506,58.506,0,0,0,3.93,11.473h14.04c.05-.156.1-.317.141-.473a15.951,15.951,0,0,1-3.885-.231c1.042-1.278,2.083-2.566,3.125-3.845a.883.883,0,0,0,.065-.075c.528-.654,1.062-1.3,1.59-1.958h0a23.364,23.364,0,0,0-.685-5.952ZM538.25,572.863l.007-.01-.007.02ZM535.14,600.9l-.121-.272c.005-.2.005-.393,0-.594,0-.055-.01-.111-.01-.166.045.347.086.694.136,1.042Z" transform="translate(-352.017 -364.781)" fill="#3f3d56"/>
    <circle id="Ellipse_332" data-name="Ellipse 332" cx="5.145" cy="5.145" r="5.145" transform="translate(39.411 200.204)" fill="#3f3d56"/>
    <circle id="Ellipse_333" data-name="Ellipse 333" cx="5.145" cy="5.145" r="5.145" transform="translate(101.157 256.336)" fill="#3f3d56"/>
    <circle id="Ellipse_334" data-name="Ellipse 334" cx="5.145" cy="5.145" r="5.145" transform="translate(335.508 256.336)" fill="#3f3d56"/>
    <circle id="Ellipse_335" data-name="Ellipse 335" cx="5.145" cy="5.145" r="5.145" transform="translate(348.137 190.849)" fill="#3f3d56"/>
    <circle id="Ellipse_336" data-name="Ellipse 336" cx="5.145" cy="5.145" r="5.145" transform="translate(333.169 143.137)" fill="#3f3d56"/>
    <path id="Path_7242" data-name="Path 7242" d="M422.528,577.584a5.122,5.122,0,1,1-.1-1.01,5.122,5.122,0,0,1,.1,1.01Z" transform="translate(-298.918 -381.59)" fill="#3f3d56"/>
    <circle id="Ellipse_337" data-name="Ellipse 337" cx="5.145" cy="5.145" r="5.145" transform="translate(221.373 158.105)" fill="#3f3d56"/>
    <path id="Path_7243" data-name="Path 7243" d="M533.528,507.584a5.121,5.121,0,1,1-.1-1.01A5.121,5.121,0,0,1,533.528,507.584Z" transform="translate(-357.996 -344.334)" fill="#3f3d56"/>
    <path id="Path_7244" data-name="Path 7244" d="M391.528,475.584a5.122,5.122,0,1,1-.1-1.01A5.122,5.122,0,0,1,391.528,475.584Z" transform="translate(-282.419 -327.302)" fill="#3f3d56"/>
    <circle id="Ellipse_338" data-name="Ellipse 338" cx="5.145" cy="5.145" r="5.145" transform="translate(275.166 202.075)" fill="#3f3d56"/>
    <circle id="Ellipse_339" data-name="Ellipse 339" cx="7.484" cy="7.484" r="7.484" transform="translate(191.903 150.621)" fill="#3f3d56"/>
    <path id="Path_7245" data-name="Path 7245" d="M571.723,734l-401.227.144a.557.557,0,0,1,0-1.114l401.227-.144a.557.557,0,1,1,0,1.114Z" transform="translate(-169.934 -466.979)" fill="#cacaca"/>
  </g>
</svg>
