<svg xmlns="http://www.w3.org/2000/svg" width="40.052" height="22.066" viewBox="0 0 40.052 22.066">
  <path id="States_Partners" data-name="States &amp; Partners" d="M1.053,5.466l.75,9.281a3.744,3.744,0,0,0,.6,1.914.919.919,0,0,0,.929.277H7.1a1.252,1.252,0,0,0,1.079-.43l.016-.02a2.709,2.709,0,0,0,.385-1.5V4.746a.394.394,0,0,1-.023-.14.16.16,0,0,1,0-.039.955.955,0,0,0-.407-.685,2.334,2.334,0,0,0-1.265-.254h-4.6a1.4,1.4,0,0,0-1.04.381A1.774,1.774,0,0,0,1.05,5.421v.046Zm29.293-.394a3.54,3.54,0,0,1,.029-.466L28.684,3.468c-.244-.163-.512-.352-.782-.541A10.129,10.129,0,0,0,24.86,1.268,8.515,8.515,0,0,0,22.924,1a6.644,6.644,0,0,0-1.78.2,4.564,4.564,0,0,0-.978.372,3.5,3.5,0,0,0-.753.535L18.253,3.461a.518.518,0,0,1-.143.17L14.957,7.383a1.372,1.372,0,0,0,.274.6,1.333,1.333,0,0,0,.58.411,1.881,1.881,0,0,0,.821.1,2.676,2.676,0,0,0,1.441-.6l.877-.733c.222-.183.407-.352.59-.518a7.86,7.86,0,0,1,1.232-.978c.978-.587,1.956-.606,2.934,1.017l4.955,8.955h1.685Zm.4-1.431a1.848,1.848,0,0,1,.261-.293,2.686,2.686,0,0,1,1.848-.58h4.3a3.5,3.5,0,0,1,2.145.551,2.08,2.08,0,0,1,.717,2.05l-.952,9.848a3.482,3.482,0,0,1-.717,2.044,2.2,2.2,0,0,1-1.858.724H32.625a1.975,1.975,0,0,1-1.389-.427,2.608,2.608,0,0,1-.7-.916H29.2a2.311,2.311,0,0,1,.026,1.473,2.422,2.422,0,0,1-.805,1.141,2.761,2.761,0,0,1-1.262.557,2.5,2.5,0,0,1-1.359-.15,3.53,3.53,0,0,1-1.6,1.02,2.781,2.781,0,0,1-1.7-.078,3.4,3.4,0,0,1-1.813,1.128,3.332,3.332,0,0,1-2.158-.326,3.182,3.182,0,0,1-.747.44,2.807,2.807,0,0,1-1.157.212,3.149,3.149,0,0,1-2.135-.779,6.259,6.259,0,0,1-1.2-1.659L11.143,15.9H9.487a2.934,2.934,0,0,1-.492,1.183l-.023.033a2.2,2.2,0,0,1-1.9.805H3.456a1.845,1.845,0,0,1-1.812-.616A4.516,4.516,0,0,1,.8,14.842V14.8L.053,5.554A2.61,2.61,0,0,1,.47,3.367a2.324,2.324,0,0,1,1.767-.743H6.876a3.26,3.26,0,0,1,1.816.414h0A1.868,1.868,0,0,1,9.484,4.1H12.6a8.958,8.958,0,0,1,2.324-1.2,6.321,6.321,0,0,1,2.68-.209l1.066-1.268.039-.042a4.469,4.469,0,0,1,.978-.7,5.812,5.812,0,0,1,1.2-.456A7.9,7.9,0,0,1,22.931,0,9.538,9.538,0,0,1,25.1.3h0a10.856,10.856,0,0,1,3.358,1.809c.251.176.5.349.766.528l1.516,1.007ZM5.138,12.631a.867.867,0,1,1-.864.864.867.867,0,0,1,.864-.864ZM28.15,16.6a.512.512,0,0,1-.287-.326L22.836,7.2c-.557-.932-1.059-.958-1.548-.668a7.341,7.341,0,0,0-1.079.87c-.222.2-.443.4-.626.554l-.89.733a3.71,3.71,0,0,1-1.985.815,2.934,2.934,0,0,1-1.258-.163,2.373,2.373,0,0,1-1.014-.724,2.425,2.425,0,0,1-.518-1.34.515.515,0,0,1,.147-.4l2.715-3.231a4.89,4.89,0,0,0-1.568.218A8.332,8.332,0,0,0,13.05,5a.489.489,0,0,1-.326.108H9.585v9.78h1.848a.505.505,0,0,1,.45.274l2.282,3.961a5.8,5.8,0,0,0,.978,1.415,2.207,2.207,0,0,0,1.493.522,1.835,1.835,0,0,0,.75-.137,1.891,1.891,0,0,0,.427-.244l-1.47-2.751a.5.5,0,0,1,.883-.473l1.61,3.009a2.174,2.174,0,0,0,2.892-.5L19.41,16.315a.5.5,0,0,1,.147-.694.509.509,0,0,1,.694.153l2.442,3.837a1.894,1.894,0,0,0,1.232.1,2.494,2.494,0,0,0,1.121-.73l-2.207-4.166a.505.505,0,1,1,.89-.479l2.282,4.31a1.447,1.447,0,0,0,.978.163,1.718,1.718,0,0,0,.8-.352,1.392,1.392,0,0,0,.473-.652,1.343,1.343,0,0,0-.075-.978.482.482,0,0,1-.039-.231Zm6.624-3.964a.869.869,0,1,1-.01,0Z" transform="translate(0.004 0.006)" fill-rule="evenodd"/>
</svg>
