<svg xmlns="http://www.w3.org/2000/svg" width="584.227" height="359.719" viewBox="0 0 584.227 359.719">
  <g id="undraw_under_construction_-46-pa" transform="translate(0.52 0.5)">
    <path id="Path_7089" data-name="Path 7089" d="M594.3,318.166A119.517,119.517,0,0,1,590.8,347q-1.179,4.768-2.738,9.339a110.3,110.3,0,0,1-4.417,11.052q-1.263,2.733-2.669,5.358a72.076,72.076,0,0,1-6.026,28.962,74.666,74.666,0,0,1-36.236,37.336,76.221,76.221,0,0,1-32.349,7.428H121.794A96.894,96.894,0,0,1,73.06,433.45l-.228-.129q-3.164-1.852-6.17-3.922A96.76,96.76,0,0,1,54,418.962a94.221,94.221,0,0,1-13.919-17.247A92.032,92.032,0,0,1,25.925,352.58,115.873,115.873,0,0,1,11.07,295.2c0-26.739,8.7-51.131,22.981-69.6a97.846,97.846,0,0,1,9.76-10.859,90.824,90.824,0,0,1,11.161-9.136,86.843,86.843,0,0,1,9.9-5.942c1.431-.728,2.867-1.416,4.328-2.055,1.282-.569,2.58-1.1,3.892-1.6q2.362-.9,4.783-1.649t4.778-1.317q3.466-.847,7.051-1.377c1.981-.292,3.961-.5,5.942-.649,1.575-.119,3.164-.183,4.763-.2h.867c1.763,0,3.516.069,5.254.188.183-.366.381-.738.564-1.1.693-1.322,1.411-2.639,2.134-3.927a.124.124,0,0,1,0-.035c.124-.228.248-.451.376-.668.584-1.055,1.193-2.1,1.817-3.134.287-.5.569-.961.862-1.426a3.791,3.791,0,0,1,.2-.337q.446-.743.906-1.485,2.293-3.664,4.768-7.2l.421-.6c.257-.366.5-.723.782-1.089.683-.956,1.386-1.916,2.095-2.857.5-.673.99-1.342,1.525-1.981q1.931-2.476,3.961-4.952t4.219-4.887c.2-.223.4-.441.6-.659l2.114-2.307h0c.1-.109.193-.208.292-.307h0c.253-.272.5-.545.767-.807,1.134-1.2,2.3-2.382,3.466-3.555a188.763,188.763,0,0,1,18.965-16.524c.262-.208.53-.406.792-.6,1.258-.946,2.535-1.882,3.813-2.8a200.693,200.693,0,0,1,21.99-13.716c.525-.3,1.06-.584,1.6-.862a209.954,209.954,0,0,1,21.04-9.685c3.917-1.55,7.923-3.006,11.953-4.338,2.684-.881,5.378-1.718,8.106-2.506q6.4-1.842,12.884-3.3A229.434,229.434,0,0,1,278.3,88.072q5.942-.3,12.018-.312a230.255,230.255,0,0,1,57.935,7.328,2.089,2.089,0,0,0,1.8.936h1.664c.723.2,1.441.4,2.164.6q6.056,1.743,11.938,3.808l.99.357a213.137,213.137,0,0,1,28.18,12.379,203.355,203.355,0,0,1,23.595,14.578Q420.315,129,422,130.265q2.05-1.312,4.169-2.515a82.009,82.009,0,0,1,17.271-7.363,78.781,78.781,0,0,1,38.742-1.515c16.464,3.491,31.369,12.156,43.406,24.481a101.287,101.287,0,0,1,13.018,16.529c.272.426.545.857.807,1.292a108.937,108.937,0,0,1,8.289,16.524c.084.213.168.411.243.619a114.417,114.417,0,0,1,5.1,16.514c.059.287.129.569.188.857a118.9,118.9,0,0,1,2.436,16.524,3.2,3.2,0,0,0,.04.609q.312,4.313.317,8.715c0,2.624-.089,5.229-.253,7.814,0,.282-.04.574-.064.867-.045.748-.109,1.485-.173,2.238a93.972,93.972,0,0,1,10.587,9.988q2.164,2.362,4.189,4.9a104.289,104.289,0,0,1,10.795,16.524A115.959,115.959,0,0,1,594.3,318.166Z" transform="translate(-11.09 -87.76)" fill="#707070" stroke="#707070" stroke-width="1" opacity="0.03"/>
    <path id="Path_7090" data-name="Path 7090" d="M601.311,774.76c0,3.382-11.651,6.551-31.983,9.275H184.762a96.9,96.9,0,0,1-48.734-13.028l-.228-.129c5.843-2.129,16.39-4.115,30.745-5.907h0l.644-.079c6.437-.787,13.632-1.535,21.5-2.243a4.906,4.906,0,0,0,.6-.055h0q9.359-.832,19.911-1.56c.223,0,.441-.04.664-.05q4.07-.292,8.309-.555h0l1.089-.069c20.574-1.278,43.961-2.3,69.323-2.971h.03q5.328-.149,10.77-.262,6.051-.144,12.25-.253c3.154-.069,6.348-.119,9.552-.168h.074c14.454-.218,29.388-.327,44.659-.327,37.761,0,73.453.688,105.079,1.926h.089c4.863.188,9.636.4,14.29.609l3.961.188q7.878.376,15.35.807h0C563.262,763.243,601.311,768.655,601.311,774.76Z" transform="translate(-74.058 -425.302)" fill="#0081c8" opacity="0.1"/>
    <g id="Group_3897" data-name="Group 3897" transform="translate(307.662 195.584)" opacity="0.2">
      <path id="Path_7091" data-name="Path 7091" d="M680.582,744.559a9.4,9.4,0,0,1-.183,1.589q-5.17-.822-10.4-1.486v-.426a8.359,8.359,0,0,1,1.238-4.2,4.607,4.607,0,0,1,8.383.257,8.353,8.353,0,0,1,.961,4.263Z" transform="translate(-651.402 -611.338)" fill="#3f3d56"/>
      <ellipse id="Ellipse_292" data-name="Ellipse 292" cx="6.937" cy="5.298" rx="6.937" ry="5.298" transform="translate(18.655 131.361) rotate(-88.19)" fill="#3f3d56"/>
      <ellipse id="Ellipse_293" data-name="Ellipse 293" cx="6.937" cy="5.298" rx="6.937" ry="5.298" transform="translate(18.925 122.883) rotate(-88.19)" fill="#3f3d56"/>
      <ellipse id="Ellipse_294" data-name="Ellipse 294" cx="6.937" cy="5.298" rx="6.937" ry="5.298" transform="translate(19.191 114.406) rotate(-88.19)" fill="#3f3d56"/>
      <ellipse id="Ellipse_295" data-name="Ellipse 295" cx="6.937" cy="5.298" rx="6.937" ry="5.298" transform="translate(19.456 105.928) rotate(-88.19)" fill="#3f3d56"/>
      <path id="Path_7092" data-name="Path 7092" d="M639.387,523.253a24.6,24.6,0,0,1-1.882-2.971l13.993-1.847-15.063-.361a25.442,25.442,0,0,1,.154-20.124l19.866,11.116-18.2-14.281a25.392,25.392,0,1,1,41.02,29.71,25.155,25.155,0,0,1,2.748,4.719l-18.366,8.814,19.475-5.858a25.422,25.422,0,0,1-4.863,23.723,25.392,25.392,0,1,1-39.891-1.258,25.392,25.392,0,0,1,.99-31.384Z" transform="translate(-632.44 -482.747)" fill="#19a617"/>
      <path id="Path_7093" data-name="Path 7093" d="M684.215,598.71a25.254,25.254,0,0,1-5.942,15.519,25.392,25.392,0,1,1-39.891-1.258C635.129,608.549,684.3,595.863,684.215,598.71Z" transform="translate(-632.44 -541.081)" opacity="0.1"/>
    </g>
    <g id="Group_3898" data-name="Group 3898" transform="translate(232.397 195.584)" opacity="0.2">
      <path id="Path_7094" data-name="Path 7094" d="M528.582,744.559a9.4,9.4,0,0,1-.183,1.589q-5.17-.822-10.4-1.486v-.426a8.358,8.358,0,0,1,1.238-4.2,4.607,4.607,0,0,1,8.383.257,8.353,8.353,0,0,1,.961,4.263Z" transform="translate(-499.402 -611.338)" fill="#3f3d56"/>
      <ellipse id="Ellipse_296" data-name="Ellipse 296" cx="6.937" cy="5.298" rx="6.937" ry="5.298" transform="translate(18.649 131.363) rotate(-88.19)" fill="#3f3d56"/>
      <ellipse id="Ellipse_297" data-name="Ellipse 297" cx="6.937" cy="5.298" rx="6.937" ry="5.298" transform="translate(18.92 122.885) rotate(-88.19)" fill="#3f3d56"/>
      <ellipse id="Ellipse_298" data-name="Ellipse 298" cx="6.937" cy="5.298" rx="6.937" ry="5.298" transform="translate(19.185 114.408) rotate(-88.19)" fill="#3f3d56"/>
      <ellipse id="Ellipse_299" data-name="Ellipse 299" cx="6.937" cy="5.298" rx="6.937" ry="5.298" transform="translate(19.45 105.93) rotate(-88.19)" fill="#3f3d56"/>
      <path id="Path_7095" data-name="Path 7095" d="M487.387,523.253a24.6,24.6,0,0,1-1.882-2.971l13.993-1.847-15.063-.361a25.442,25.442,0,0,1,.154-20.124l19.866,11.116-18.2-14.281a25.392,25.392,0,1,1,41.02,29.71,25.155,25.155,0,0,1,2.748,4.719l-18.366,8.814,19.475-5.858a25.422,25.422,0,0,1-4.863,23.723,25.392,25.392,0,1,1-39.891-1.258,25.392,25.392,0,0,1,.99-31.384Z" transform="translate(-480.44 -482.747)" fill="#19a617"/>
      <path id="Path_7096" data-name="Path 7096" d="M532.215,598.71a25.253,25.253,0,0,1-5.942,15.519,25.392,25.392,0,1,1-39.891-1.258C483.129,608.549,532.3,595.863,532.215,598.71Z" transform="translate(-480.44 -541.081)" opacity="0.1"/>
    </g>
    <g id="Group_3899" data-name="Group 3899" transform="translate(411.026 77.842)" opacity="0.2">
      <path id="Path_7097" data-name="Path 7097" d="M933.761,748.773a18.47,18.47,0,0,1-.362,3.011q-9.953-1.59-20.049-2.842v-.817a16.093,16.093,0,0,1,2.387-8.086c1.981-3.1,4.952-5.051,8.235-4.952s6.14,2.233,7.923,5.447a16.108,16.108,0,0,1,1.867,8.24Z" transform="translate(-877.617 -492.393)" fill="#3f3d56"/>
      <ellipse id="Ellipse_300" data-name="Ellipse 300" cx="13.36" cy="10.205" rx="13.36" ry="10.205" transform="translate(35.862 252.788) rotate(-88.19)" fill="#3f3d56"/>
      <ellipse id="Ellipse_301" data-name="Ellipse 301" cx="13.36" cy="10.205" rx="13.36" ry="10.205" transform="translate(36.377 236.467) rotate(-88.19)" fill="#3f3d56"/>
      <ellipse id="Ellipse_302" data-name="Ellipse 302" cx="13.36" cy="10.205" rx="13.36" ry="10.205" transform="translate(36.896 220.146) rotate(-88.19)" fill="#3f3d56"/>
      <ellipse id="Ellipse_303" data-name="Ellipse 303" cx="13.36" cy="10.205" rx="13.36" ry="10.205" transform="translate(36.84 203.119) rotate(-88.282)" fill="#3f3d56"/>
      <path id="Path_7098" data-name="Path 7098" d="M854.523,322.857a49.148,49.148,0,0,1-3.62-5.709l26.937-3.555-28.992-.7a48.972,48.972,0,0,1,.287-38.742l38.252,21.4-35.028-27.492a48.883,48.883,0,1,1,78.964,57.221,48.878,48.878,0,0,1,5.293,9.086l-35.36,16.979,37.489-11.29a48.9,48.9,0,0,1-9.324,45.63,48.883,48.883,0,1,1-76.8-2.421,48.9,48.9,0,0,1,1.9-60.41Z" transform="translate(-841.186 -244.965)" fill="#19a617"/>
      <path id="Path_7099" data-name="Path 7099" d="M940.851,468.021A48.694,48.694,0,0,1,929.462,497.9a48.883,48.883,0,1,1-76.8-2.421C846.353,486.956,941.024,462.54,940.851,468.021Z" transform="translate(-841.206 -357.171)" opacity="0.1"/>
    </g>
    <path id="Path_7100" data-name="Path 7100" d="M157.82,351.94l5.194-.015h7.324L179.6,201.5,271.3,48.482,267.311,44.2V33.37L168.139,197.958Z" transform="translate(-79.683 -16.846)" fill="#f1c0c0"/>
    <path id="Path_7101" data-name="Path 7101" d="M169.43,362.971H176.2l9.26-150.422,91.7-153.021-3.986-4.278L178.586,210.257Z" transform="translate(-85.544 -27.892)" opacity="0.1"/>
    <path id="Path_7102" data-name="Path 7102" d="M126.91,668.537,364.516,686.72l.2.015,229.95-14.142.173-.01v-9.71l-253.377-4.65-211.392-.2h-1.545l-.168,1.089Z" transform="translate(-64.079 -332.191)" fill="#f1c0c0"/>
    <path id="Path_7103" data-name="Path 7103" d="M126.91,668.537,364.516,686.72l.2.015,229.95-14.142.173-.188v-9.329h-.2l-230.124,7.685L130.074,658.02h-.035l-.416.272-1.263.817Z" transform="translate(-64.079 -332.191)" opacity="0.1"/>
    <path id="Path_7104" data-name="Path 7104" d="M126.91,668.815,364.516,687V671.038L129.624,658.57l-1.263.817Z" transform="translate(-64.079 -332.468)" opacity="0.1"/>
    <path id="Path_7105" data-name="Path 7105" d="M378.88,44.117,483.632,156.55l-3.238,197.77,8.9,1.074.149.02h8.9L499.4,165.042l196.15,65.52,3.308,116.661,7.16.8,2.426.272-5.615-125.827L497.784,150.484,385.352,33.6H378.88Z" transform="translate(-191.281 -16.963)" fill="#f1c0c0"/>
    <path id="Path_7106" data-name="Path 7106" d="M620.65,291.7l.807,3.639,196.15,65.52,3.308,116.661,7.16.8-5.615-119.89Z" transform="translate(-313.335 -147.26)" opacity="0.1"/>
    <path id="Path_7107" data-name="Path 7107" d="M378.88,44.117,483.632,156.55l-3.238,197.77,8.9,1.074,2.426-205.316L378.88,33.6Z" transform="translate(-191.281 -16.963)" opacity="0.1"/>
    <path id="Path_7108" data-name="Path 7108" d="M621.42,438.895l71.943,14.167.025,0,126.005,24.823,5.769-2.312-.02-.406-.376-8.046L621.494,426.05Z" transform="translate(-313.724 -215.085)" fill="#f1c0c0"/>
    <path id="Path_7109" data-name="Path 7109" d="M766.76,480.61l126.005,24.823,5.769-2.312-.02-.406Z" transform="translate(-387.096 -242.628)" opacity="0.1"/>
    <path id="Path_7110" data-name="Path 7110" d="M776.49,350.56l1.946,107.124,1.005,54.958,8.859-.3,5.576-.188L792.142,352.11l-3.843-1.278-.842-.272Z" transform="translate(-392.008 -176.975)" fill="#f1c0c0"/>
    <path id="Path_7111" data-name="Path 7111" d="M776.65,350.51v.025l1.867,107.124,1.005,54.959,8.859-.3V350.51Z" transform="translate(-392.089 -176.949)" opacity="0.1"/>
    <path id="Path_7112" data-name="Path 7112" d="M492.463,486.617a11.287,11.287,0,0,1,1.486.966,9.831,9.831,0,0,1,1.485,1.629c2.124,2.748,4.085,5.942,3.877,9.408a3.828,3.828,0,0,1-1.1,2.723,4.949,4.949,0,0,1-3.283.782,6.989,6.989,0,0,1-3.639-.644c-1.079-.644-1.981-1.9-3.258-1.867a1.67,1.67,0,0,1-.545,0c-.441-.144-.53-.723-.817-1.089-.5-.659-1.54-.5-2.317-.208a3.359,3.359,0,0,1-2.407.386,2.5,2.5,0,0,1-1.045-1.045c-1.837-2.971-2.228-6.541-2.575-9.992-.213-2.1-1.837-9.26,2.644-7.631a37.157,37.157,0,0,1,5.635,3.184Z" transform="translate(-246.741 -285.674)" fill="#3f3d56"/>
    <path id="Path_7113" data-name="Path 7113" d="M497.481,492.25a2.208,2.208,0,0,0,2.718-.109,4.1,4.1,0,0,0,1.322-2.565c.5-.154.748.5,1.065.891.555.673,1.684.664,2.189,1.382.352.5.272,1.183.52,1.743.322.723,1.119,1.1,1.664,1.684a5.733,5.733,0,0,1,1.089,2.174l.812,2.436a12.041,12.041,0,0,1,.743,3.154,4.085,4.085,0,0,1-.941,3.016c-1.089,1.174-2.877,1.3-4.457,1.263a5.733,5.733,0,0,1-1.565-.183,4.441,4.441,0,0,1-2.669-3.268,41.273,41.273,0,0,1-.55-4.367,17.114,17.114,0,0,0-1.238-4.15c-.436-1.03-1.634-2.565-1.614-3.659C496.926,491.691,497.184,492.018,497.481,492.25Z" transform="translate(-256.186 -290.599)" fill="#3f3d56"/>
    <path id="Path_7114" data-name="Path 7114" d="M495.114,478.363a8.176,8.176,0,0,1-.4-2.174,9.463,9.463,0,0,1,1.362-4.209l-5.66.768a2.506,2.506,0,0,0-1.832.8,1.981,1.981,0,0,0,0,1.827,9.337,9.337,0,0,1,.673,1.768,8.829,8.829,0,0,0,.183,1.589,3.366,3.366,0,0,0,.728,1.025,34.332,34.332,0,0,1,4.041,6c-.035-.059,3.412-2.728,3.273-3.6-.079-.5-1.075-1.089-1.391-1.565A7.968,7.968,0,0,1,495.114,478.363Z" transform="translate(-252.042 -281.727)" fill="#be6f72"/>
    <path id="Path_7115" data-name="Path 7115" d="M484.1,358.04v4.877l-83.52,16.291-4.333,2.624H381.3v-2.748l82.059-19.826Z" transform="translate(-192.503 -180.751)" fill="#f1c0c0"/>
    <path id="Path_7116" data-name="Path 7116" d="M484.1,367.89l-83.52,16.291-4.333,2.624H381.3l82.668-17.692Z" transform="translate(-192.503 -185.723)" opacity="0.1"/>
    <path id="Path_7117" data-name="Path 7117" d="M450.4,723.023a6.472,6.472,0,0,0-7.873-1.674,2.074,2.074,0,0,0-.723.565c-.5.693-.178,1.649-.134,2.505.114,2.09-1.55,3.788-3.045,5.249a7.2,7.2,0,0,0-1.981,2.684,2.515,2.515,0,0,0,.876,2.971,3.651,3.651,0,0,0,1.357.376,14.643,14.643,0,0,0,4.8.134,5.2,5.2,0,0,0,3.813-2.654,2.8,2.8,0,0,1,.639-1.055c.871-.688,2.208.119,3.2-.371.817-.406.852-1.045.862-1.887C452.221,727.539,451.874,724.9,450.4,723.023Z" transform="translate(-225.856 -407.275)" fill="#0081c8"/>
    <path id="Path_7118" data-name="Path 7118" d="M477.651,719.209a16.3,16.3,0,0,1,.772,5.066,4.888,4.888,0,0,1-.461,2.887,3.945,3.945,0,0,1-2.58,1.485c-2.065.426-4.457.025-5.789-1.614a6.108,6.108,0,0,1-1.045-4.6c.158-1.332.5-2.892-.461-3.838-.248-.253-.569-.431-.8-.7a2.359,2.359,0,0,1-.149-2.258,9.806,9.806,0,0,0,.777-2.233c.04-.366,6.7.257,7.319.56.837.411.708,1.1.961,1.931C476.552,717.055,477.225,718.1,477.651,719.209Z" transform="translate(-241.224 -403.551)" fill="#0081c8"/>
    <path id="Path_7119" data-name="Path 7119" d="M458.284,580.02c1.307.847,1.812,2.51,2.015,4.055.56,4.234-.421,8.512-.5,12.785-.069,5.987,1.664,12.082.183,17.88-.886,3.466-.134,7.427-.966,10.928-.248,1.04-.7,2.02-.941,3.06a13.352,13.352,0,0,0,.723,6.814,7.037,7.037,0,0,1,.421,1.847,6.644,6.644,0,0,1-.723,2.793l-2.971,7.026c-.332.787-1.639.916-2.476,1.02-1.575.188-3.332.322-4.585-.654s-1.555-2.609-1.748-4.135a63.387,63.387,0,0,1-.5-8.829,7.275,7.275,0,0,0-.2-2.293,20.1,20.1,0,0,1-1.035-2.476c-.208-1.159.381-2.3.6-3.466a10.444,10.444,0,0,0-.05-3.214c-.193-1.585-.416-3.169-.668-4.744-.357-2.2.154-4.377.5-6.586a18.158,18.158,0,0,0-.5-6.249,17.226,17.226,0,0,1-.619,4.952c-.262.787-.639,1.54-.867,2.342-1.015,3.6,1.149,7.378.842,11.107-.144,1.743-.827,3.466-.634,5.184a17.491,17.491,0,0,0,1.119,3.61,4.679,4.679,0,0,1,0,3.689c-1.609,3.04-.406,7.175,1.035,10.294a13.9,13.9,0,0,1,.763,1.713c.426,1.406.069,2.917.183,4.382a2.763,2.763,0,0,1-2.322-.7c-.218-.228-.4-.5-.609-.733a6.046,6.046,0,0,0-2.07-1.292,2.719,2.719,0,0,0-1.486-.342,2.971,2.971,0,0,0-1.411.876,13.83,13.83,0,0,1-1.555,1.183,1.842,1.842,0,0,1-.792.352.7.7,0,0,1-.728-.371.881.881,0,0,1-.054-.258,39.193,39.193,0,0,1-.292-4.506c0-2.59-3.1-4.372-3.491-6.932-.312-2.065.267-4.169.074-6.249a30.4,30.4,0,0,1-.371-3.189c0-.693.158-1.372.213-2.06a15.406,15.406,0,0,0-.035-2.293l-.154-2.392a20.666,20.666,0,0,0-1.243-6.932,23.555,23.555,0,0,1-1.931-7.962c-.1-1.733-.035-3.466-.233-5.2a25.624,25.624,0,0,1-.461-4.7c.094-1.218.5-2.4.589-3.615.193-2.342-.7-4.62-1.4-6.863s-1.213-4.729-.3-6.893a2.263,2.263,0,0,1,.634-.921,2.763,2.763,0,0,1,1.169-.436,90.669,90.669,0,0,1,25.858-1.649,8.586,8.586,0,0,1,3.986,1.243Z" transform="translate(-220.634 -335.497)" fill="#3f3d56"/>
    <circle id="Ellipse_304" data-name="Ellipse 304" cx="7.933" cy="7.933" r="7.933" transform="translate(201.607 176.066)" fill="#be6f72"/>
    <path id="Path_7120" data-name="Path 7120" d="M428.06,471.434a2.833,2.833,0,0,1,0,1.382,3.131,3.131,0,0,1-.52.872A22.384,22.384,0,0,1,425,476.45a4.6,4.6,0,0,0,2.372,2.342,13.77,13.77,0,0,0,3.273.936,3.431,3.431,0,0,0,3.209-.555l4.407-2.639a8.8,8.8,0,0,0,1.832-1.322,4.511,4.511,0,0,0,1.278-3.1.852.852,0,0,0-.158-.584,1.04,1.04,0,0,0-.6-.253,5.37,5.37,0,0,1-3.466-3.025,16.022,16.022,0,0,1-1.2-4.59l-4.7,2.476c-.7.371-1.391.743-2.114,1.065-.46.208-1.391.381-1.718.8C426.783,468.78,427.9,470.5,428.06,471.434Z" transform="translate(-220.056 -277.527)" fill="#be6f72"/>
    <path id="Path_7121" data-name="Path 7121" d="M423.38,481.427a5.224,5.224,0,0,0-1.52,2.055,5.354,5.354,0,0,0,.277,3.016,89.963,89.963,0,0,1,2.971,12.77c.416,2.971.569,5.987.772,8.992.416,6.13,1.02,15.9,1.827,22,2.971.134,5.868-.733,8.814-1.05,5.506-.584,11.176.753,16.568-.5-1.307-5.165-2.615-13.984-3.922-19.143a36.526,36.526,0,0,1-1.2-6.214c-.114-1.51-.045-3.025-.025-4.546.045-2.971-.119-5.942-.282-8.913a56.548,56.548,0,0,0-1.2-10.324,1.921,1.921,0,0,0-.574-1.134,2.325,2.325,0,0,0-1.728-.154,7.517,7.517,0,0,1-5.14-1.218c-.654-.446-1.53-.99-2.139-.5a2.13,2.13,0,0,0-.5,1.055,5.274,5.274,0,0,1-3.1,3.055,15.512,15.512,0,0,1-4.387.9,2.154,2.154,0,0,1-1.362-.154c-.7-.431-.753-1.981-1.639-2.085C425.123,479.254,423.9,480.927,423.38,481.427Z" transform="translate(-218.406 -283.945)" fill="#3f3d56"/>
    <path id="Path_7122" data-name="Path 7122" d="M426.136,493.854c-1.827-1.748-2.629-4.283-3.961-6.437a14.33,14.33,0,0,0-3.422-3.763,10.206,10.206,0,0,1-1.862-1.58c-.47-.579-.827-1.352-1.54-1.575a1.862,1.862,0,0,0-1.669.46,16.413,16.413,0,0,0-1.238,1.317c-2.1,2.174-5.789,2.476-7.452,4.991a4.09,4.09,0,0,0-.886,1.857,14.39,14.39,0,0,0,2.644,10.349,3.515,3.515,0,0,0,1.832,1.486,5.734,5.734,0,0,0,.357,2.723,72.828,72.828,0,0,0,3.372,9.185,22.218,22.218,0,0,0-.663,3.56c-.347,3.025-.025,6.1-.352,9.126-.267,2.476-.99,4.887-1.015,7.368,0,.4.035.867.376,1.07a1.138,1.138,0,0,0,.589.124l6.091.183a49.435,49.435,0,0,0,10.587-.446,4.4,4.4,0,0,0,1.332-.421c1.178-.659,1.57-2.144,1.758-3.466a30.207,30.207,0,0,0,.292-5.18c.738,2.332,1.614,4.744,3.842,5.754a8.621,8.621,0,0,0,3.818.461,71.878,71.878,0,0,0,8.314-.857,1.094,1.094,0,0,0,1.213-1.273l.03-2.7c.059-5.491-1.3-10.74-1.832-16.207a35.233,35.233,0,0,0-.574-5.155c-.173-.708-.426-1.4-.579-2.114a15.118,15.118,0,0,1-.248-2.114l-.386-5.447c-.183-2.52-.446-4.952-.639-7.467a36.148,36.148,0,0,0-1.06-7.259c-.431-1.486-1.327-3.169-2.877-3.352a5.93,5.93,0,0,0-2.416.52,9.765,9.765,0,0,1-5.942-.025,8.367,8.367,0,0,0-1.852-.5,1.817,1.817,0,0,0-1.693.7,2.54,2.54,0,0,0-.262,1.248A66.048,66.048,0,0,1,426.136,493.854Z" transform="translate(-209.446 -284.28)" fill="#0081c8"/>
    <path id="Path_7123" data-name="Path 7123" d="M418.619,503.879c-2.283-2.406-4.625-4.858-7.566-6.388a6.043,6.043,0,0,0-3.758-.832,2.814,2.814,0,0,0-2.416,2.644,17.107,17.107,0,0,0,.683,2.312,24.294,24.294,0,0,0,.2,2.7,4.575,4.575,0,0,0,.99,1.52l3.506,4.154a22.566,22.566,0,0,0,4.882,4.689,7.339,7.339,0,0,0,6.487.906,7.972,7.972,0,0,0,3.555-3.263c.871-1.386,1.486-2.9,2.3-4.333a21.515,21.515,0,0,1,4.952-6.006,5.5,5.5,0,0,1-2.971-1.486,4.907,4.907,0,0,1-.47-.852l-.8-1.733a1.981,1.981,0,0,0-1.485.56,12.456,12.456,0,0,1-1.1,1.124c-.7.525-1.644.668-2.278,1.268a6.032,6.032,0,0,0-.664.832A5.556,5.556,0,0,1,418.619,503.879Z" transform="translate(-209.896 -294.156)" fill="#3f3d56"/>
    <path id="Path_7124" data-name="Path 7124" d="M455.527,476.039c1.718-3.134,1.639-6.893,2.129-10.433a4.763,4.763,0,0,1,.946-2.59c.99-1.119,2.738-1.134,4.234-.99.441.049.99.257.966.7a.891.891,0,0,1-.223.421,11.78,11.78,0,0,0-2.446,6.5c.777.54,1.981-.569,2.728,0,.5.416.267,1.238-.03,1.832q-1.035,2.065-2.134,4.1a13.166,13.166,0,0,1-2.263,3.263c-.629.6-1.367,1.079-2.005,1.674-1.486,1.391-2.382,3.357-3.917,4.714a.8.8,0,0,1-.5.253.832.832,0,0,1-.52-.233,7.507,7.507,0,0,1-1.872-2.263c-.584-1.079-.5-1.4.426-2.159A16.367,16.367,0,0,0,455.527,476.039Z" transform="translate(-232.806 -276.67)" fill="#be6f72"/>
    <path id="Path_7125" data-name="Path 7125" d="M417.362,500.249c.3.183.664.391.99.238a1.03,1.03,0,0,0,.332-.322,11.656,11.656,0,0,0,1.406-2.446.941.941,0,0,0,.1-.4c0-.317-.282-.55-.545-.733a20.182,20.182,0,0,0-4.5-2.139,9.288,9.288,0,0,0-4.06-.8,3.872,3.872,0,0,0-2.709,1.377c-.99,1.273.668,1.659,1.708,2.119C412.495,498.238,415.1,498.872,417.362,500.249Z" transform="translate(-211.512 -292.655)" fill="#0081c8"/>
    <path id="Path_7126" data-name="Path 7126" d="M423.672,519.42a.728.728,0,0,0,.208.624c.144-.7-.045-1.446.1-2.154.218-1.065,1.253-1.867,1.342-2.936C423.429,514.582,423.687,518.271,423.672,519.42Z" transform="translate(-219.381 -303.409)" opacity="0.1"/>
    <path id="Path_7127" data-name="Path 7127" d="M567.763,358.04v4.877l-20.133,1.223-.609-4.882Z" transform="translate(-276.164 -180.751)" opacity="0.2"/>
    <path id="Path_7128" data-name="Path 7128" d="M417.393,449.786c1.258-1.025.53-3.174,1.382-4.551a4.421,4.421,0,0,1,2.154-1.486,9.8,9.8,0,0,1,3.144-.871,3.649,3.649,0,0,1,2.971,1.094c.322.366.54.812.842,1.193a3.219,3.219,0,0,0,3.12,1.079c.659-.149,1.342-.649,1.3-1.322a1.867,1.867,0,0,0-.594-1.06l-1.416-1.57c-1.609-1.783-3.4-3.674-5.759-4.12a9.879,9.879,0,0,0-4.912.659c-.639.213-1.357.53-1.535,1.178-.119.446.059.931-.045,1.382-.2.9-1.352,1.2-1.887,1.951s-.371,1.644-.525,2.476a21.653,21.653,0,0,0-.654,2.506c-.035.52.228,1.486.812,1.674S417.032,449.167,417.393,449.786Z" transform="translate(-214.994 -264.609)" fill="#3f3d56"/>
    <path id="Path_7129" data-name="Path 7129" d="M431.393,440.065a14.856,14.856,0,0,0-2.634-6.021,10.552,10.552,0,0,0-4.689-3.724,6.714,6.714,0,0,0-5.838.461,8.477,8.477,0,0,0-2.917,3.679c-1.283,2.763-1.758,6.14-.267,8.794.594-.723,1.614-.4,2.515-.659a26.224,26.224,0,0,0,3.159-1.545C423.965,439.62,427.927,440.778,431.393,440.065Z" transform="translate(-214.565 -260.464)" fill="#fed253"/>
    <path id="Path_7130" data-name="Path 7130" d="M417.379,447.429a3.026,3.026,0,0,1,.446-2.56.322.322,0,0,1,.262-.119.342.342,0,0,1,.2.178,11.081,11.081,0,0,1,.931,1.822,1.892,1.892,0,0,0-1.981.767" transform="translate(-216.138 -267.98)" opacity="0.1"/>
    <path id="Path_7131" data-name="Path 7131" d="M440.653,442.57l-.178-1.768a.807.807,0,0,1,.035-.436.56.56,0,0,1,.723-.2,1.485,1.485,0,0,1,.579.579,10.4,10.4,0,0,1,1.02,2.015,5.991,5.991,0,0,0-2.411.03" transform="translate(-227.84 -265.638)" opacity="0.1"/>
    <path id="Path_7132" data-name="Path 7132" d="M416.977,502.21v4.041l-3.412.228H395.62V502.21Z" transform="translate(-199.732 -253.533)" opacity="0.1"/>
    <path id="Path_7133" data-name="Path 7133" d="M359.133,430.68v4.268H337.776L281.04,363.877V360.52h11.894Z" transform="translate(-141.889 -182.003)" fill="#f1c0c0"/>
    <path id="Path_7134" data-name="Path 7134" d="M359.133,430.68v4.268H337.776L281.04,363.877V360.52h11.894Z" transform="translate(-141.889 -182.003)" opacity="0.1"/>
    <path id="Path_7135" data-name="Path 7135" d="M359.133,430.68v4.268H337.776L281.04,363.877V360.52l57.043,70.16Z" transform="translate(-141.889 -182.003)" opacity="0.1"/>
    <path id="Path_7136" data-name="Path 7136" d="M301.119,730.414a1.486,1.486,0,0,1-1.3,1.748,8.824,8.824,0,0,0-3.813,1.981c-.975,1.055-1.169,3.011,0,3.867a3.758,3.758,0,0,0,1.981.54,13.42,13.42,0,0,0,6.615-.827c1.456-.673,2.827-1.822,4.427-1.718.827.049,1.708.436,2.446.059s.946-1.426.951-2.3a17.049,17.049,0,0,0-.817-5.392c-.074-.238-3.224-.421-3.6-.5l-3.818-.5c-.723-.094-2.283-.639-2.852-.035S301.119,729.7,301.119,730.414Z" transform="translate(-154.53 -410.502)" fill="#0081c8"/>
    <path id="Path_7137" data-name="Path 7137" d="M353.025,701.373a11.96,11.96,0,0,0,.782,2.595,6.041,6.041,0,0,0,2.506,3.432,4.472,4.472,0,0,0,3.823-.183,3.149,3.149,0,0,0,1.273-.966,3.833,3.833,0,0,0,.5-2.223,12.145,12.145,0,0,0-.99-5.6c-.753-1.486-2.065-2.763-2.085-4.407l-4.511.872a1.288,1.288,0,0,0-.664.262,1.144,1.144,0,0,0-.287.54A14.741,14.741,0,0,0,353.025,701.373Z" transform="translate(-183.654 -393.821)" fill="#0081c8"/>
    <path id="Path_7138" data-name="Path 7138" d="M244.284,605.533a7.371,7.371,0,0,0,.723,4.679,3.622,3.622,0,0,0,4.1,1.738.6.6,0,0,0,.371-.282.7.7,0,0,0-.064-.5,7.309,7.309,0,0,1,.154-5.506c.1-.228.312-.5.545-.406a.5.5,0,0,1,.223.228,2.59,2.59,0,0,1,.347,1.367,5.08,5.08,0,0,0-.04,1.312c.094.426.55.827.946.644a.99.99,0,0,0,.451-.639c1.1-3.194.6-6.685.1-10.027a.525.525,0,0,0-.589-.55c-2.337-.233-3.615-.792-4.952,1.381A13.574,13.574,0,0,0,244.284,605.533Z" transform="translate(-128.781 -345.021)" fill="#0081c8"/>
    <path id="Path_7139" data-name="Path 7139" d="M298.086,596.01a30.366,30.366,0,0,0-1.02,14.271l.52,4.288c.178,1.446.352,2.887.6,4.318a11.465,11.465,0,0,1,.262,2.243,12.015,12.015,0,0,1-.352,2.2,25.749,25.749,0,0,0-.52,4.605c-.054,2.476.253,4.952.446,7.428a82.715,82.715,0,0,1-.173,14.815,5.556,5.556,0,0,0,.812,3.818,4.913,4.913,0,0,1,.718,1.179c.371,1.134-.5,2.268-.718,3.431a3.466,3.466,0,0,0,2.882,3.961c3.961.47,8.032.257,11.6,2.07.376-1.1-.446-2.347-.069-3.466.238-.693.891-1.144,1.337-1.728a5.031,5.031,0,0,0,.852-3.02,11.037,11.037,0,0,0-.733-4.1,8.857,8.857,0,0,1-.99-3.332,4.21,4.21,0,0,0-.03-1.708,2.669,2.669,0,0,0-.639-.8,10.067,10.067,0,0,1-2.59-5.868,27.026,27.026,0,0,1,.208-6.507c.243-2.05.569-4.214,1.872-5.813a37.3,37.3,0,0,1,1.045-14.484c.129-.436.332-.941.777-1.045a1.109,1.109,0,0,1,.951.376,6.491,6.491,0,0,1,1.486,2.793,6.089,6.089,0,0,1,.465,3.382c-.119.5-.357.931-.5,1.406a4.17,4.17,0,0,0,.149,2.907,2.792,2.792,0,0,1,.357,1.094,3.031,3.031,0,0,1-.3.951,4.377,4.377,0,0,0,.411,3.54,12.821,12.821,0,0,0,2.312,2.837,10.4,10.4,0,0,0,.322,5.724.723.723,0,0,1,.064.55c-.089.188-.317.258-.5.391-.5.406-.188,1.174.144,1.7a39.058,39.058,0,0,0,3.006,4.169c.99,1.183.9,3.466,2.377,3.892a4.457,4.457,0,0,0,1.882,0c1.456-.223,3.08-.644,3.793-1.931a5.2,5.2,0,0,1,.867-1.57c.456-.4,1.045-.465,1.3-.941s-.03-1.1.054-1.649.565-.99.718-1.57c.366-1.337-1.193-2.436-1.406-3.8-.307-1.981,2.189-3.466,2.085-5.447-.218-4.3-.357-8.626-.579-12.929a93.228,93.228,0,0,1-.119-11.582c.173-2.4.5-4.917-.386-7.15-1.268-3.149-4.763-4.917-8.145-5.254s-6.754.465-10.106.99a63.879,63.879,0,0,1-16.811.352Z" transform="translate(-155.26 -343.624)" fill="#3f3d56"/>
    <circle id="Ellipse_305" data-name="Ellipse 305" cx="7.933" cy="7.933" r="7.933" transform="translate(144.945 189.193)" fill="#fbbebe"/>
    <path id="Path_7140" data-name="Path 7140" d="M309.966,499.781a3.382,3.382,0,0,1-3.233,2.045,3.988,3.988,0,0,0,1.188,3.323,14.1,14.1,0,0,0,13.5,4.63,6.66,6.66,0,0,0,2.659-1.109,5.9,5.9,0,0,0,2.03-3.516,17.479,17.479,0,0,0,.193-4.135,1.07,1.07,0,0,0-.218-.763,1.09,1.09,0,0,0-.693-.228,12.022,12.022,0,0,1-4.892-1.035c-1.471-.822-2.515-2.679-1.807-4.2-.114.238-3.006.352-3.387.4-1.193.168-2.387.357-3.575.574a6.5,6.5,0,0,0-1.679.317c-.718.371-.451.188-.282.862C310.02,497.974,310.391,498.712,309.966,499.781Z" transform="translate(-160.317 -293.243)" fill="#fbbebe"/>
    <path id="Path_7141" data-name="Path 7141" d="M286.582,508.724a13.135,13.135,0,0,1-3.174-.352,4.457,4.457,0,0,1-2.6-1.738c-.366-.555-.6-1.253-1.188-1.565-.956-.5-2.045.342-2.808,1.109a10.2,10.2,0,0,1-2.387,1.921c-1.06.56-2.3.758-3.3,1.416a8.289,8.289,0,0,0-1.981,2.139l-7.017,9.557c-2.818,3.842-5.269,7.967-7.779,12.023-2.174,3.511-3.313,7.551-4.952,11.339a1.268,1.268,0,0,0-.154.763c.059.258.371.465.589.317-.738.733-.089,1.981-.262,3.011a3.694,3.694,0,0,1-1.178,1.847,9.309,9.309,0,0,1,3.268.154,10.016,10.016,0,0,1,3.09,1.485c.6-.094.545-1.159.99-1.555.267-.233.664-.2,1.015-.272,1.322-.258,1.847-1.847,2.862-2.743.847-.748,2.045-.99,2.941-1.693,1.456-1.144,1.768-3.179,2.53-4.867.649-1.431,1.669-2.679,2.238-4.145a17.856,17.856,0,0,1,1.079-2.857c.847-1.416,2.441-2.169,3.961-2.847a6.559,6.559,0,0,1,3.016-.807c-.054,2.3-.347,4.57.154,6.818.173.792.416,1.565.624,2.352a44.29,44.29,0,0,1,1.213,10.894,33.147,33.147,0,0,1,6.932-.832c1.837-.054,3.669.183,5.506.149,2.179-.04,4.333-.461,6.511-.609a12.164,12.164,0,0,1,6.383.99,60.639,60.639,0,0,1,.262-9.408l.525-4.922a30.241,30.241,0,0,1,.659-4.249c.287-1.129.7-2.218,1.02-3.342,1.114-3.961.911-8.19.7-12.315a15.523,15.523,0,0,0-1.887-6.091,16.485,16.485,0,0,0-1.188-2.02,11.7,11.7,0,0,0-10.23-4.8,2.07,2.07,0,0,0-.733.158,2.441,2.441,0,0,0-.936,1.114,12.131,12.131,0,0,1-4.313,4.476Z" transform="translate(-130.897 -297.362)" fill="#3f3d56"/>
    <path id="Path_7142" data-name="Path 7142" d="M303.284,478.73c.223-.5.822-.678,1.188-1.075.7-.753.386-1.956.5-2.971a4.268,4.268,0,0,1,2.822-3.258,9.121,9.121,0,0,1,4.457-.282,4.313,4.313,0,0,1,2.01.668c.257.188.5.431.738.6a1.981,1.981,0,0,0,2.694-.629c-1.753-2.109-3.694-4.338-6.358-4.986a13.043,13.043,0,0,0-2.778-.262,9.021,9.021,0,0,0-3.644.426,6.075,6.075,0,0,0-3.2,3.694,17.959,17.959,0,0,0-.777,4.952,18.654,18.654,0,0,0,0,3.367,9.309,9.309,0,0,0,1.654,4.244,1.282,1.282,0,0,0,.5.461C305.339,484.672,303.1,479.141,303.284,478.73Z" transform="translate(-157.384 -278.975)" fill="#3f3d56"/>
    <path id="Path_7143" data-name="Path 7143" d="M315.749,465.379c-.272-2.332-1.936-4.258-3.7-5.808a13.656,13.656,0,0,0-4.976-3,6.649,6.649,0,0,0-5.615.683,8.627,8.627,0,0,0-2.733,3.758,11.83,11.83,0,0,0-1.193,5.447,5.872,5.872,0,0,0,2.659,4.714,5,5,0,0,1,2.575-1.659A126.066,126.066,0,0,1,315.749,465.379Z" transform="translate(-155.702 -273.789)" fill="#fed253"/>
    <path id="Path_7144" data-name="Path 7144" d="M303.451,472.72c.158,0,.262.163.342.3A12.547,12.547,0,0,1,304.828,475c-.579.124-1.575.262-1.862-.248C302.812,474.492,303,472.695,303.451,472.72Z" transform="translate(-158.422 -282.101)" opacity="0.1"/>
    <path id="Path_7145" data-name="Path 7145" d="M326.527,467.967c-.119.114-.258-.119-.258-.287v-1.921a.283.283,0,0,1,.035-.154.233.233,0,0,1,.163-.079c.4-.045.733.3.99.624a10.457,10.457,0,0,1,1.015,1.689l-2.095-.064" transform="translate(-170.213 -278.467)" opacity="0.1"/>
    <path id="Path_7146" data-name="Path 7146" d="M363.407,521.733a12.948,12.948,0,0,1,1.456-1.193,21.961,21.961,0,0,1,4.57-1.862,6.031,6.031,0,0,0,3.7-3.065,7.279,7.279,0,0,0,.287-2.971,2.971,2.971,0,0,0-.218-1.223,2.431,2.431,0,0,0-.782-.852c-2.09-1.545-4.892-1.669-7.487-1.51a46.927,46.927,0,0,0-16.544,4.13,1.436,1.436,0,0,0-.693.5,1.416,1.416,0,0,0-.134.688,11.389,11.389,0,0,0,.56,4.313c.683,1.763,2.09,3.184,2.679,4.981.267.807.357,1.664.589,2.476a3.466,3.466,0,0,0,1.391,2.07c1.956,1.169,3.8-.4,5.16-1.619Z" transform="translate(-180.953 -300.419)" fill="#3f3d56"/>
    <path id="Path_7147" data-name="Path 7147" d="M309.759,524.461l-2.51-5.477a19.167,19.167,0,0,1-.951-2.342c-.287-.956-.426-1.946-.693-2.907-.881-3.2-3.1-5.863-4.189-9a1.708,1.708,0,0,0-.406-.758,1.322,1.322,0,0,0-1.1-.2c-1.515.262-2.7,1.416-4.085,2.07-.644.3-1.337.5-1.981.837a2.476,2.476,0,0,0-1.327,1.58,3.861,3.861,0,0,0,.54,2.223,25.109,25.109,0,0,1,1.713,9.765c.045,2.238-.069,4.64-1.391,6.437-2.54,3.466-.916,8.556.035,12.75.114.5.248,1.03.327,1.555a14.291,14.291,0,0,1,.114,1.981,15.5,15.5,0,0,1-1.055,6.531,7.308,7.308,0,0,0,2.971.842q4.313.55,8.66.772a9.439,9.439,0,0,0,2.718-.139,4.952,4.952,0,0,0,3.659-4.853,6.122,6.122,0,0,0,1.446,3.813,5.759,5.759,0,0,0,3.8,1.169,70.6,70.6,0,0,0,11.438-.322,1.979,1.979,0,0,0,.7-.163c.733-.366.772-1.377.713-2.189-.109-1.52-.223-3.04-.406-4.551a18.62,18.62,0,0,1-.238-2.912,16.753,16.753,0,0,1,.5-2.971,33.693,33.693,0,0,0,.966-9.408,15.875,15.875,0,0,1-.094-2.322c.129-1.748,1.05-3.412.876-5.15-.5-5.11-.9-10.354-2.322-15.286a3.961,3.961,0,0,0-1.352-2.332c-.99-.664-2.382-.317-3.516-.738a8.792,8.792,0,0,1-1.51-.9,6.933,6.933,0,0,0-3.412-1.05,2.9,2.9,0,0,0-2.476.9,3.6,3.6,0,0,0-.5,1.352c-.718,3.021-1.56,6.006-2.4,8.992l-.807,2.862-2.164,7.685C309.834,523.436,309.977,523.688,309.759,524.461Z" transform="translate(-152.921 -296.288)" fill="#0081c8"/>
    <path id="Path_7148" data-name="Path 7148" d="M332.693,400.25l47.9,50.334v4.268H359.234L323.24,407.876" transform="translate(-163.192 -202.06)" fill="#f1c0c0"/>
    <path id="Path_7149" data-name="Path 7149" d="M332.693,400.25l47.9,50.334v4.268H359.234L323.24,407.876" transform="translate(-163.192 -202.06)" opacity="0.1"/>
    <path id="Path_7150" data-name="Path 7150" d="M324,414.31l.154.054,35.385,43.317h21.05v4.268H359.234L323.24,414.974Z" transform="translate(-163.192 -209.158)" opacity="0.1"/>
    <path id="Path_7151" data-name="Path 7151" d="M342.64,502.1c-1.733.758-3.659,1.728-4.179,3.55a1.778,1.778,0,0,0,1.753,2.382,5.942,5.942,0,0,0,2.382-.436l10.225-3.377c.277-.089.594-.223.664-.5a.852.852,0,0,0-.1-.5c-.317-.772-.629-2.352-1.292-2.892-.545-.436-1.624-.282-2.283-.272A18.51,18.51,0,0,0,342.64,502.1Z" transform="translate(-176.318 -295.888)" fill="#0081c8"/>
    <path id="Path_7152" data-name="Path 7152" d="M363.184,503.568a16.444,16.444,0,0,1,5.075.787,9.041,9.041,0,0,1,4.2,2.872,3.149,3.149,0,0,1,.664,1.3c.1.5,1.713.792,1.357,1.129,1.084-.173.827.337,1.926.327a3.639,3.639,0,0,0,2.946-1.169,3.828,3.828,0,0,0,.579-2.421,4.125,4.125,0,0,0-.327-1.713,5.059,5.059,0,0,0-2.684-2.08l-8.844-4.046a5.873,5.873,0,0,0-1.634-.579,6.11,6.11,0,0,0-1.441.035l-4.006.46a6.006,6.006,0,0,1,2.738,5.283" transform="translate(-187.746 -294.835)" fill="#3f3d56"/>
  </g>
</svg>
