<svg xmlns="http://www.w3.org/2000/svg" width="409.712" height="252.382" viewBox="0 0 409.712 252.382">
  <g id="undraw_under_construction_-46-pa" transform="translate(0.52 0.5)">
    <path id="Path_7089" data-name="Path 7089" d="M419.782,249.223a83.755,83.755,0,0,1-2.453,20.209q-.826,3.342-1.919,6.544a77.286,77.286,0,0,1-3.1,7.745q-.885,1.915-1.87,3.755a50.509,50.509,0,0,1-4.223,20.3,52.324,52.324,0,0,1-25.394,26.164,53.414,53.414,0,0,1-22.67,5.205H88.663a67.9,67.9,0,0,1-34.152-9.13l-.16-.09q-2.217-1.3-4.324-2.748a67.806,67.806,0,0,1-8.873-7.315A66.027,66.027,0,0,1,31.4,307.772a64.494,64.494,0,0,1-9.921-34.433,81.2,81.2,0,0,1-10.41-40.21c0-18.738,6.093-35.831,16.1-48.771a68.567,68.567,0,0,1,6.839-7.61,63.647,63.647,0,0,1,7.821-6.4,60.86,60.86,0,0,1,6.94-4.164c1-.51,2.009-.992,3.033-1.44.9-.4,1.808-.77,2.727-1.121q1.655-.628,3.352-1.156t3.349-.923q2.429-.593,4.941-.965c1.388-.2,2.776-.347,4.164-.455,1.1-.083,2.217-.128,3.338-.142h.607c1.235,0,2.464.049,3.682.132.128-.257.267-.517.4-.77.486-.926.989-1.85,1.5-2.752a.087.087,0,0,1,0-.024c.087-.16.174-.316.264-.468.409-.739.836-1.471,1.273-2.2.2-.347.4-.673.6-1a2.656,2.656,0,0,1,.142-.236q.312-.52.635-1.041,1.607-2.568,3.342-5.045l.295-.423c.18-.257.347-.507.548-.763.479-.67.972-1.343,1.468-2,.347-.472.694-.94,1.069-1.388q1.353-1.735,2.776-3.47t2.956-3.425c.139-.156.278-.309.423-.462l1.482-1.617h0c.073-.076.135-.146.2-.215h0c.177-.191.347-.382.538-.566.795-.843,1.61-1.669,2.429-2.491a132.282,132.282,0,0,1,13.29-11.579c.184-.146.371-.285.555-.423.881-.663,1.777-1.319,2.672-1.964a140.64,140.64,0,0,1,15.41-9.612c.368-.212.743-.409,1.121-.6A147.13,147.13,0,0,1,148.1,98.787c2.745-1.086,5.552-2.106,8.377-3.04,1.881-.618,3.768-1.2,5.68-1.756q4.483-1.291,9.029-2.315a160.781,160.781,0,0,1,27.149-3.7q4.164-.212,8.422-.219a161.358,161.358,0,0,1,40.6,5.136,1.464,1.464,0,0,0,1.26.656h1.166c.507.139,1.01.278,1.516.423q4.244,1.221,8.366,2.668l.694.25a149.361,149.361,0,0,1,19.748,8.675,142.508,142.508,0,0,1,16.535,10.216q1.218.874,2.4,1.763,1.437-.92,2.922-1.763a57.47,57.47,0,0,1,12.1-5.16,55.208,55.208,0,0,1,27.149-1.062,60.074,60.074,0,0,1,30.418,17.156,70.981,70.981,0,0,1,9.123,11.583c.191.3.382.6.566.906a76.341,76.341,0,0,1,5.809,11.579c.059.149.118.288.17.434a80.182,80.182,0,0,1,3.574,11.572c.042.2.09.4.132.6a83.321,83.321,0,0,1,1.707,11.579,2.242,2.242,0,0,0,.028.427q.219,3.022.222,6.107c0,1.839-.062,3.664-.177,5.476,0,.2-.028.4-.045.607-.031.524-.076,1.041-.121,1.568a65.852,65.852,0,0,1,7.419,7q1.516,1.655,2.936,3.435a73.084,73.084,0,0,1,7.565,11.579A81.262,81.262,0,0,1,419.782,249.223Z" transform="translate(-11.09 -87.76)" fill="#707070" stroke="#707070" stroke-width="1" opacity="0.03"/>
    <path id="Path_7090" data-name="Path 7090" d="M462.019,769.261c0,2.37-8.165,4.591-22.413,6.5h-269.5a67.9,67.9,0,0,1-34.152-9.13l-.16-.09c4.095-1.492,11.486-2.884,21.545-4.14h0l.451-.056c4.511-.552,9.553-1.076,15.063-1.572a3.448,3.448,0,0,0,.42-.038h0q6.558-.583,13.953-1.093c.156,0,.309-.028.465-.035q2.852-.2,5.823-.389h0l.763-.049c14.418-.9,30.807-1.61,48.58-2.082h.021q3.734-.1,7.547-.184,4.24-.1,8.585-.177c2.21-.049,4.449-.083,6.694-.118h.052c10.129-.153,20.595-.229,31.3-.229,26.462,0,51.474.482,73.637,1.35h.062c3.408.132,6.753.278,10.014.427l2.776.132q5.521.264,10.757.566h0C435.356,761.189,462.019,764.982,462.019,769.261Z" transform="translate(-92.539 -524.368)" fill="#0081c8" opacity="0.1"/>
    <g id="Group_3897" data-name="Group 3897" transform="translate(215.596 137.061)" opacity="0.2">
      <path id="Path_7091" data-name="Path 7091" d="M677.415,742.436a6.59,6.59,0,0,1-.128,1.114q-3.623-.576-7.287-1.041v-.3a5.858,5.858,0,0,1,.867-2.943,3.228,3.228,0,0,1,5.875.18,5.853,5.853,0,0,1,.673,2.988Z" transform="translate(-656.967 -649.078)" fill="#3f3d56"/>
      <ellipse id="Ellipse_292" data-name="Ellipse 292" cx="4.861" cy="3.713" rx="4.861" ry="3.713" transform="translate(13.073 92.055) rotate(-88.19)" fill="#3f3d56"/>
      <ellipse id="Ellipse_293" data-name="Ellipse 293" cx="4.861" cy="3.713" rx="4.861" ry="3.713" transform="translate(13.262 86.114) rotate(-88.19)" fill="#3f3d56"/>
      <ellipse id="Ellipse_294" data-name="Ellipse 294" cx="4.861" cy="3.713" rx="4.861" ry="3.713" transform="translate(13.448 80.173) rotate(-88.19)" fill="#3f3d56"/>
      <ellipse id="Ellipse_295" data-name="Ellipse 295" cx="4.861" cy="3.713" rx="4.861" ry="3.713" transform="translate(13.634 74.232) rotate(-88.19)" fill="#3f3d56"/>
      <path id="Path_7092" data-name="Path 7092" d="M637.309,511.133a17.235,17.235,0,0,1-1.319-2.082l9.806-1.294-10.556-.253a17.829,17.829,0,0,1,.108-14.1l13.922,7.79-12.752-10.007A17.794,17.794,0,1,1,665.263,512a17.63,17.63,0,0,1,1.926,3.307l-12.87,6.177,13.648-4.1a17.815,17.815,0,0,1-3.408,16.625,17.794,17.794,0,1,1-27.954-.881,17.794,17.794,0,0,1,.694-21.993Z" transform="translate(-632.44 -482.747)" fill="#19a617"/>
      <path id="Path_7093" data-name="Path 7093" d="M668.723,598.587a17.7,17.7,0,0,1-4.164,10.875,17.794,17.794,0,1,1-27.954-.881C634.324,605.482,668.785,596.591,668.723,598.587Z" transform="translate(-632.44 -558.202)" opacity="0.1"/>
    </g>
    <g id="Group_3898" data-name="Group 3898" transform="translate(162.852 137.061)" opacity="0.2">
      <path id="Path_7094" data-name="Path 7094" d="M525.415,742.436a6.59,6.59,0,0,1-.128,1.114q-3.623-.576-7.287-1.041v-.3a5.857,5.857,0,0,1,.867-2.943,3.228,3.228,0,0,1,5.875.18,5.853,5.853,0,0,1,.673,2.988Z" transform="translate(-504.967 -649.078)" fill="#3f3d56"/>
      <ellipse id="Ellipse_296" data-name="Ellipse 296" cx="4.861" cy="3.713" rx="4.861" ry="3.713" transform="translate(13.069 92.056) rotate(-88.19)" fill="#3f3d56"/>
      <ellipse id="Ellipse_297" data-name="Ellipse 297" cx="4.861" cy="3.713" rx="4.861" ry="3.713" transform="translate(13.258 86.115) rotate(-88.19)" fill="#3f3d56"/>
      <ellipse id="Ellipse_298" data-name="Ellipse 298" cx="4.861" cy="3.713" rx="4.861" ry="3.713" transform="translate(13.444 80.174) rotate(-88.19)" fill="#3f3d56"/>
      <ellipse id="Ellipse_299" data-name="Ellipse 299" cx="4.861" cy="3.713" rx="4.861" ry="3.713" transform="translate(13.63 74.233) rotate(-88.19)" fill="#3f3d56"/>
      <path id="Path_7095" data-name="Path 7095" d="M485.309,511.133a17.237,17.237,0,0,1-1.319-2.082l9.806-1.294-10.556-.253a17.829,17.829,0,0,1,.108-14.1l13.922,7.79-12.752-10.007A17.794,17.794,0,1,1,513.263,512a17.636,17.636,0,0,1,1.926,3.307l-12.87,6.177,13.648-4.1a17.815,17.815,0,0,1-3.408,16.625,17.794,17.794,0,1,1-27.954-.881,17.794,17.794,0,0,1,.694-21.993Z" transform="translate(-480.44 -482.747)" fill="#19a617"/>
      <path id="Path_7096" data-name="Path 7096" d="M516.723,598.587a17.7,17.7,0,0,1-4.164,10.875,17.794,17.794,0,1,1-27.954-.881C482.324,605.482,516.785,596.591,516.723,598.587Z" transform="translate(-480.44 -558.202)" opacity="0.1"/>
    </g>
    <g id="Group_3899" data-name="Group 3899" transform="translate(288.031 54.55)" opacity="0.2">
      <path id="Path_7097" data-name="Path 7097" d="M927.653,744.676a12.95,12.95,0,0,1-.253,2.11q-6.975-1.114-14.05-1.992v-.573a11.277,11.277,0,0,1,1.672-5.667,6.223,6.223,0,0,1,11.323.347A11.287,11.287,0,0,1,927.653,744.676Z" transform="translate(-888.309 -565.011)" fill="#3f3d56"/>
      <ellipse id="Ellipse_300" data-name="Ellipse 300" cx="9.362" cy="7.152" rx="9.362" ry="7.152" transform="translate(25.131 177.148) rotate(-88.19)" fill="#3f3d56"/>
      <ellipse id="Ellipse_301" data-name="Ellipse 301" cx="9.362" cy="7.152" rx="9.362" ry="7.152" transform="translate(25.492 165.71) rotate(-88.19)" fill="#3f3d56"/>
      <ellipse id="Ellipse_302" data-name="Ellipse 302" cx="9.362" cy="7.152" rx="9.362" ry="7.152" transform="translate(25.856 154.273) rotate(-88.19)" fill="#3f3d56"/>
      <ellipse id="Ellipse_303" data-name="Ellipse 303" cx="9.362" cy="7.152" rx="9.362" ry="7.152" transform="translate(25.816 142.341) rotate(-88.282)" fill="#3f3d56"/>
      <path id="Path_7098" data-name="Path 7098" d="M850.532,299.55a34.442,34.442,0,0,1-2.537-4l18.877-2.491-20.317-.489a34.319,34.319,0,0,1,.2-27.149l26.806,14.994-24.547-19.266a34.256,34.256,0,1,1,55.336,40.1,34.254,34.254,0,0,1,3.709,6.367l-24.779,11.9,26.271-7.912a34.266,34.266,0,0,1-6.534,31.976,34.256,34.256,0,1,1-53.82-1.7,34.266,34.266,0,0,1,1.333-42.334Z" transform="translate(-841.186 -244.965)" fill="#19a617"/>
      <path id="Path_7099" data-name="Path 7099" d="M911.041,467.784a34.124,34.124,0,0,1-7.981,20.938,34.256,34.256,0,1,1-53.82-1.7C844.819,481.053,911.162,463.942,911.041,467.784Z" transform="translate(-841.212 -390.102)" opacity="0.1"/>
    </g>
    <path id="Path_7100" data-name="Path 7100" d="M157.82,256.617l3.64-.01h5.132l6.489-105.412L237.342,43.96l-2.793-3V33.37l-69.5,115.34Z" transform="translate(-103.069 -21.791)" fill="#f1c0c0"/>
    <path id="Path_7101" data-name="Path 7101" d="M169.43,270.894h4.744l6.489-105.412L244.924,58.248l-2.793-3L175.846,163.875Z" transform="translate(-110.651 -36.078)" opacity="0.1"/>
    <path id="Path_7102" data-name="Path 7102" d="M126.91,665.39l166.509,12.742.142.01,161.144-9.91.121-.007v-6.8l-177.56-3.258-148.138-.142h-1.083l-.118.763Z" transform="translate(-82.885 -429.687)" fill="#f1c0c0"/>
    <path id="Path_7103" data-name="Path 7103" d="M126.91,665.39l166.509,12.742.142.01,161.144-9.91.121-.132v-6.537h-.142l-161.265,5.385L129.127,658.02H129.1l-.292.191-.885.573Z" transform="translate(-82.885 -429.687)" opacity="0.1"/>
    <path id="Path_7104" data-name="Path 7104" d="M126.91,665.749l166.509,12.742V667.307L128.812,658.57l-.885.573Z" transform="translate(-82.885 -430.046)" opacity="0.1"/>
    <path id="Path_7105" data-name="Path 7105" d="M378.88,40.97l73.408,78.79-2.269,138.592,6.236.753.1.014h6.236l.746-133.408L600.8,171.627l2.318,81.753,5.018.562,1.7.191L605.9,165.957,462.205,115.51,383.415,33.6H378.88Z" transform="translate(-247.421 -21.941)" fill="#f1c0c0"/>
    <path id="Path_7106" data-name="Path 7106" d="M620.65,291.7l.566,2.55,137.458,45.915,2.318,81.753,5.018.562-3.935-84.016Z" transform="translate(-405.297 -190.48)" opacity="0.1"/>
    <path id="Path_7107" data-name="Path 7107" d="M378.88,40.97l73.408,78.79-2.269,138.592,6.236.753,1.7-143.881L378.88,33.6Z" transform="translate(-247.421 -21.941)" opacity="0.1"/>
    <path id="Path_7108" data-name="Path 7108" d="M621.42,435.051l50.416,9.928.017,0,88.3,17.4,4.043-1.621-.014-.284-.264-5.639L621.472,426.05Z" transform="translate(-405.8 -278.21)" fill="#f1c0c0"/>
    <path id="Path_7109" data-name="Path 7109" d="M766.76,480.61l88.3,17.4,4.043-1.62-.014-.285Z" transform="translate(-500.706 -313.838)" opacity="0.1"/>
    <path id="Path_7110" data-name="Path 7110" d="M776.49,350.56l1.364,75.07.7,38.514,6.208-.208,3.907-.132-1.214-112.158-2.693-.9-.59-.191Z" transform="translate(-507.06 -228.916)" fill="#f1c0c0"/>
    <path id="Path_7111" data-name="Path 7111" d="M776.65,350.51v.017l1.308,75.07.7,38.514,6.208-.208V350.51Z" transform="translate(-507.165 -228.883)" opacity="0.1"/>
    <path id="Path_7112" data-name="Path 7112" d="M488.093,484.577a7.909,7.909,0,0,1,1.041.677,6.892,6.892,0,0,1,1.041,1.142c1.489,1.926,2.863,4.164,2.717,6.593a2.682,2.682,0,0,1-.774,1.909,3.468,3.468,0,0,1-2.3.548,4.9,4.9,0,0,1-2.55-.451c-.756-.451-1.388-1.329-2.283-1.308a1.17,1.17,0,0,1-.382,0c-.309-.1-.371-.507-.573-.763-.347-.462-1.079-.347-1.624-.146a2.354,2.354,0,0,1-1.686.271,1.752,1.752,0,0,1-.732-.732c-1.287-2.082-1.562-4.584-1.8-7-.149-1.471-1.287-6.489,1.853-5.347a26.037,26.037,0,0,1,3.949,2.231Z" transform="translate(-315.903 -343.76)" fill="#3f3d56"/>
    <path id="Path_7113" data-name="Path 7113" d="M497.208,491.443a1.548,1.548,0,0,0,1.905-.076,2.87,2.87,0,0,0,.927-1.8c.347-.108.524.347.746.625.389.472,1.18.465,1.534.968.246.347.191.829.364,1.221.226.507.784.77,1.166,1.18a4.018,4.018,0,0,1,.763,1.523l.569,1.707A8.44,8.44,0,0,1,505.7,499a2.863,2.863,0,0,1-.659,2.113,5.6,5.6,0,0,1-4.22.756,3.112,3.112,0,0,1-1.87-2.29,28.925,28.925,0,0,1-.385-3.061,11.991,11.991,0,0,0-.867-2.908c-.305-.722-1.145-1.8-1.131-2.564C496.82,491.051,497,491.28,497.208,491.443Z" transform="translate(-328.121 -350.131)" fill="#3f3d56"/>
    <path id="Path_7114" data-name="Path 7114" d="M493.092,476.453a5.73,5.73,0,0,1-.281-1.523,6.632,6.632,0,0,1,.954-2.95l-3.966.538a1.756,1.756,0,0,0-1.284.562,1.388,1.388,0,0,0,0,1.28,6.545,6.545,0,0,1,.472,1.239,6.186,6.186,0,0,0,.128,1.114,2.358,2.358,0,0,0,.51.718,24.057,24.057,0,0,1,2.832,4.206c-.024-.042,2.391-1.912,2.294-2.523-.056-.347-.753-.763-.975-1.1A5.584,5.584,0,0,1,493.092,476.453Z" transform="translate(-322.759 -338.655)" fill="#be6f72"/>
    <path id="Path_7115" data-name="Path 7115" d="M453.341,358.04v3.418l-58.529,11.416-3.036,1.839H381.3v-1.926l57.505-13.894Z" transform="translate(-249.001 -233.8)" fill="#f1c0c0"/>
    <path id="Path_7116" data-name="Path 7116" d="M453.341,367.89l-58.529,11.416-3.036,1.839H381.3l57.932-12.4Z" transform="translate(-249.001 -240.232)" opacity="0.1"/>
    <path id="Path_7117" data-name="Path 7117" d="M446.236,722.319a4.535,4.535,0,0,0-5.517-1.173,1.453,1.453,0,0,0-.507.4c-.347.486-.125,1.156-.094,1.756.08,1.464-1.086,2.655-2.134,3.678a5.045,5.045,0,0,0-1.388,1.881,1.762,1.762,0,0,0,.614,2.082,2.558,2.558,0,0,0,.951.264,10.262,10.262,0,0,0,3.366.094,3.646,3.646,0,0,0,2.672-1.86,1.961,1.961,0,0,1,.448-.739c.611-.482,1.548.083,2.242-.26.573-.285.6-.732.6-1.322A7.656,7.656,0,0,0,446.236,722.319Z" transform="translate(-288.888 -501.05)" fill="#0081c8"/>
    <path id="Path_7118" data-name="Path 7118" d="M474.443,717.439a11.426,11.426,0,0,1,.541,3.55,3.426,3.426,0,0,1-.323,2.023,2.765,2.765,0,0,1-1.808,1.041,4.145,4.145,0,0,1-4.056-1.131,4.28,4.28,0,0,1-.732-3.22c.111-.933.347-2.026-.323-2.689-.173-.177-.4-.3-.559-.493a1.653,1.653,0,0,1-.1-1.582,6.869,6.869,0,0,0,.545-1.565c.028-.257,4.7.18,5.129.392.586.288.5.77.673,1.353C473.673,715.93,474.145,716.662,474.443,717.439Z" transform="translate(-308.767 -496.233)" fill="#0081c8"/>
    <path id="Path_7119" data-name="Path 7119" d="M448.667,579.562a3.855,3.855,0,0,1,1.412,2.842c.392,2.967-.295,5.965-.347,8.96-.049,4.2,1.166,8.467.128,12.53-.621,2.429-.094,5.205-.677,7.658-.173.729-.493,1.416-.659,2.144a9.356,9.356,0,0,0,.507,4.775,4.931,4.931,0,0,1,.295,1.294,4.656,4.656,0,0,1-.507,1.957l-2.082,4.924c-.232.552-1.149.642-1.735.715a4.34,4.34,0,0,1-3.213-.458,4.111,4.111,0,0,1-1.225-2.9,44.424,44.424,0,0,1-.347-6.187,5.1,5.1,0,0,0-.142-1.607,14.083,14.083,0,0,1-.725-1.735,6.969,6.969,0,0,1,.42-2.429,7.319,7.319,0,0,0-.035-2.252c-.135-1.11-.291-2.221-.468-3.324a14.732,14.732,0,0,1,.347-4.615,12.725,12.725,0,0,0-.347-4.379,12.072,12.072,0,0,1-.434,3.47c-.184.552-.448,1.079-.607,1.641-.711,2.523.805,5.17.59,7.783a19.281,19.281,0,0,0-.444,3.633,12.258,12.258,0,0,0,.784,2.53,3.279,3.279,0,0,1,0,2.585c-1.128,2.131-.285,5.028.725,7.214a9.744,9.744,0,0,1,.534,1.2,14.343,14.343,0,0,1,.128,3.071,1.936,1.936,0,0,1-1.627-.489c-.153-.16-.278-.347-.427-.513a4.237,4.237,0,0,0-1.45-.906,1.906,1.906,0,0,0-1.041-.239,2.083,2.083,0,0,0-.989.614,9.688,9.688,0,0,1-1.09.829,1.291,1.291,0,0,1-.555.246.489.489,0,0,1-.51-.26.618.618,0,0,1-.038-.18,27.471,27.471,0,0,1-.2-3.158c0-1.815-2.172-3.064-2.446-4.858-.219-1.447.187-2.922.052-4.379a21.3,21.3,0,0,1-.26-2.235c0-.486.111-.961.149-1.443a10.8,10.8,0,0,0-.024-1.607l-.108-1.676a14.483,14.483,0,0,0-.871-4.858,16.506,16.506,0,0,1-1.353-5.58c-.069-1.214-.024-2.429-.163-3.647a17.953,17.953,0,0,1-.323-3.3c.066-.854.347-1.68.413-2.533a12.945,12.945,0,0,0-.979-4.809,7.118,7.118,0,0,1-.208-4.83,1.586,1.586,0,0,1,.444-.645,1.936,1.936,0,0,1,.819-.305,63.538,63.538,0,0,1,18.12-1.156,6.017,6.017,0,0,1,2.793.871Z" transform="translate(-282.133 -408.206)" fill="#3f3d56"/>
    <circle id="Ellipse_304" data-name="Ellipse 304" cx="5.559" cy="5.559" r="5.559" transform="translate(141.275 123.383)" fill="#be6f72"/>
    <path id="Path_7120" data-name="Path 7120" d="M427.144,469.108a1.985,1.985,0,0,1,0,.968,2.195,2.195,0,0,1-.364.611,15.692,15.692,0,0,1-1.78,1.936,3.224,3.224,0,0,0,1.662,1.641,9.649,9.649,0,0,0,2.294.656,3.234,3.234,0,0,0,1.208.083,3.2,3.2,0,0,0,1.041-.472l3.088-1.849a6.17,6.17,0,0,0,1.284-.926,3.161,3.161,0,0,0,.9-2.172.6.6,0,0,0-.111-.409.728.728,0,0,0-.423-.177,3.763,3.763,0,0,1-2.429-2.12,11.229,11.229,0,0,1-.843-3.217l-3.293,1.735c-.489.26-.975.521-1.482.746-.323.146-.975.267-1.2.562C426.249,467.248,427.03,468.452,427.144,469.108Z" transform="translate(-281.386 -333.223)" fill="#be6f72"/>
    <path id="Path_7121" data-name="Path 7121" d="M422.887,479.915a3.661,3.661,0,0,0-1.065,1.44,3.752,3.752,0,0,0,.194,2.113,63.045,63.045,0,0,1,2.082,8.949c.292,2.082.4,4.2.541,6.3.292,4.3.715,11.146,1.28,15.414,2.082.094,4.112-.514,6.177-.736,3.859-.409,7.832.527,11.611-.347-.916-3.619-1.832-9.8-2.748-13.415a25.6,25.6,0,0,1-.84-4.355c-.08-1.058-.031-2.12-.017-3.185.031-2.082-.083-4.164-.2-6.246a39.63,39.63,0,0,0-.84-7.235,1.346,1.346,0,0,0-.4-.795,1.63,1.63,0,0,0-1.211-.108,5.268,5.268,0,0,1-3.6-.854c-.458-.312-1.072-.694-1.5-.347a1.493,1.493,0,0,0-.347.739,3.7,3.7,0,0,1-2.172,2.141,10.871,10.871,0,0,1-3.074.632,1.51,1.51,0,0,1-.954-.108c-.493-.3-.527-1.388-1.149-1.461C424.108,478.392,423.254,479.565,422.887,479.915Z" transform="translate(-279.252 -341.524)" fill="#3f3d56"/>
    <path id="Path_7122" data-name="Path 7122" d="M419.508,488.822c-1.28-1.225-1.843-3-2.776-4.511a10.042,10.042,0,0,0-2.4-2.637,7.153,7.153,0,0,1-1.3-1.107c-.33-.406-.58-.947-1.079-1.1a1.3,1.3,0,0,0-1.169.323,11.5,11.5,0,0,0-.867.923c-1.471,1.523-4.056,1.735-5.222,3.5a2.866,2.866,0,0,0-.621,1.3,10.084,10.084,0,0,0,1.853,7.252,2.464,2.464,0,0,0,1.284,1.041,4.018,4.018,0,0,0,.25,1.908,51.03,51.03,0,0,0,2.363,6.437,15.568,15.568,0,0,0-.465,2.495c-.243,2.12-.017,4.272-.246,6.4-.187,1.735-.694,3.425-.711,5.163,0,.278.024.607.264.75a.8.8,0,0,0,.413.087l4.268.128a34.642,34.642,0,0,0,7.419-.312,3.085,3.085,0,0,0,.933-.295,3.135,3.135,0,0,0,1.232-2.429,21.169,21.169,0,0,0,.2-3.63c.517,1.634,1.131,3.324,2.693,4.032a6.041,6.041,0,0,0,2.675.323,50.369,50.369,0,0,0,5.826-.6.767.767,0,0,0,.85-.892l.021-1.895c.042-3.848-.913-7.526-1.284-11.357a24.689,24.689,0,0,0-.4-3.612c-.121-.5-.3-.982-.406-1.482a10.593,10.593,0,0,1-.174-1.482l-.271-3.817c-.128-1.766-.312-3.47-.448-5.233a25.331,25.331,0,0,0-.743-5.087c-.3-1.041-.93-2.221-2.016-2.349a4.156,4.156,0,0,0-1.693.364,6.843,6.843,0,0,1-4.164-.017,5.861,5.861,0,0,0-1.3-.347,1.274,1.274,0,0,0-1.187.493,1.78,1.78,0,0,0-.184.874A46.285,46.285,0,0,1,419.508,488.822Z" transform="translate(-267.663 -341.957)" fill="#0081c8"/>
    <path id="Path_7123" data-name="Path 7123" d="M414.507,501.7a21.069,21.069,0,0,0-5.3-4.476,4.235,4.235,0,0,0-2.634-.583,1.972,1.972,0,0,0-1.693,1.853,11.99,11.99,0,0,0,.479,1.62,17.027,17.027,0,0,0,.139,1.895,3.206,3.206,0,0,0,.694,1.065l2.457,2.911a15.814,15.814,0,0,0,3.421,3.286,5.143,5.143,0,0,0,4.546.635,5.587,5.587,0,0,0,2.491-2.287c.611-.972,1.041-2.033,1.614-3.036a15.077,15.077,0,0,1,3.47-4.209,3.855,3.855,0,0,1-2.082-1.041,3.438,3.438,0,0,1-.33-.6l-.562-1.215a1.388,1.388,0,0,0-1.041.392,8.724,8.724,0,0,1-.774.788c-.489.368-1.152.468-1.6.888a4.226,4.226,0,0,0-.465.583A3.894,3.894,0,0,1,414.507,501.7Z" transform="translate(-268.245 -354.732)" fill="#3f3d56"/>
    <path id="Path_7124" data-name="Path 7124" d="M453.95,471.827c1.2-2.2,1.149-4.83,1.492-7.311a3.338,3.338,0,0,1,.663-1.815,3.457,3.457,0,0,1,2.967-.694c.309.035.694.18.677.489a.625.625,0,0,1-.156.295,8.255,8.255,0,0,0-1.714,4.553c.545.378,1.388-.4,1.912,0,.347.292.187.867-.021,1.284q-.725,1.447-1.5,2.873a9.226,9.226,0,0,1-1.586,2.287c-.441.423-.958.756-1.405,1.173-1.041.975-1.669,2.353-2.745,3.3a.563.563,0,0,1-.347.177.583.583,0,0,1-.364-.163,5.261,5.261,0,0,1-1.312-1.586c-.409-.756-.347-.979.3-1.513A11.469,11.469,0,0,0,453.95,471.827Z" transform="translate(-297.878 -332.114)" fill="#be6f72"/>
    <path id="Path_7125" data-name="Path 7125" d="M414.584,498.267c.208.128.465.274.694.167a.721.721,0,0,0,.232-.226,8.167,8.167,0,0,0,.986-1.714.659.659,0,0,0,.073-.278c0-.222-.2-.385-.382-.514a14.143,14.143,0,0,0-3.154-1.5,6.509,6.509,0,0,0-2.845-.562,2.714,2.714,0,0,0-1.9.965c-.694.892.468,1.162,1.2,1.485A46.273,46.273,0,0,1,414.584,498.267Z" transform="translate(-270.335 -352.791)" fill="#0081c8"/>
    <path id="Path_7126" data-name="Path 7126" d="M423.67,518.076a.51.51,0,0,0,.146.437c.1-.493-.031-1.013.073-1.509.153-.746.878-1.308.94-2.058C423.5,514.685,423.68,517.27,423.67,518.076Z" transform="translate(-280.513 -366.7)" opacity="0.1"/>
    <path id="Path_7127" data-name="Path 7127" d="M561.556,358.04v3.418l-14.109.857-.427-3.421Z" transform="translate(-357.216 -233.8)" opacity="0.2"/>
    <path id="Path_7128" data-name="Path 7128" d="M416.669,446.28c.881-.718.371-2.224.968-3.189a3.1,3.1,0,0,1,1.509-1.041,6.867,6.867,0,0,1,2.2-.611,2.557,2.557,0,0,1,2.082.767c.226.257.378.569.59.836a2.255,2.255,0,0,0,2.186.756c.461-.1.94-.455.909-.926a1.308,1.308,0,0,0-.416-.743l-.992-1.1c-1.128-1.249-2.38-2.575-4.036-2.887a6.922,6.922,0,0,0-3.442.461c-.448.149-.951.371-1.076.826-.083.312.042.652-.031.968-.142.628-.947.84-1.322,1.367s-.26,1.152-.368,1.735a15.177,15.177,0,0,0-.458,1.756c-.024.364.16,1.041.569,1.173S416.416,445.846,416.669,446.28Z" transform="translate(-274.839 -316.512)" fill="#3f3d56"/>
    <path id="Path_7129" data-name="Path 7129" d="M426.225,437.012a10.41,10.41,0,0,0-1.846-4.22,7.4,7.4,0,0,0-3.286-2.609,4.705,4.705,0,0,0-4.091.323,5.941,5.941,0,0,0-2.044,2.578,6.894,6.894,0,0,0-.187,6.163c.416-.507,1.131-.278,1.763-.462a18.377,18.377,0,0,0,2.214-1.083C421.02,436.7,423.8,437.511,426.225,437.012Z" transform="translate(-274.283 -311.151)" fill="#fed253"/>
    <path id="Path_7130" data-name="Path 7130" d="M417.337,446.627a2.12,2.12,0,0,1,.312-1.794.225.225,0,0,1,.184-.083.239.239,0,0,1,.142.125,7.764,7.764,0,0,1,.652,1.277,1.326,1.326,0,0,0-1.388.538" transform="translate(-276.319 -320.874)" opacity="0.1"/>
    <path id="Path_7131" data-name="Path 7131" d="M440.583,441.834l-.125-1.239a.565.565,0,0,1,.024-.305.392.392,0,0,1,.507-.139,1.041,1.041,0,0,1,.406.406,7.292,7.292,0,0,1,.715,1.412,4.2,4.2,0,0,0-1.69.021" transform="translate(-291.455 -317.844)" opacity="0.1"/>
    <path id="Path_7132" data-name="Path 7132" d="M410.586,502.21v2.831l-2.391.16H395.62V502.21Z" transform="translate(-258.352 -327.943)" opacity="0.1"/>
    <path id="Path_7133" data-name="Path 7133" d="M335.766,409.687v2.991H320.8L281.04,362.873V360.52h8.335Z" transform="translate(-183.532 -235.419)" fill="#f1c0c0"/>
    <path id="Path_7134" data-name="Path 7134" d="M335.766,409.687v2.991H320.8L281.04,362.873V360.52h8.335Z" transform="translate(-183.532 -235.419)" opacity="0.1"/>
    <path id="Path_7135" data-name="Path 7135" d="M335.766,409.687v2.991H320.8L281.04,362.873V360.52l39.975,49.167Z" transform="translate(-183.532 -235.419)" opacity="0.1"/>
    <path id="Path_7136" data-name="Path 7136" d="M299.349,729.411a1.041,1.041,0,0,1-.909,1.225,6.184,6.184,0,0,0-2.672,1.388,1.909,1.909,0,0,0,0,2.71,2.634,2.634,0,0,0,1.388.378,9.4,9.4,0,0,0,4.636-.58c1.02-.472,1.981-1.277,3.1-1.2.579.035,1.2.305,1.714.042s.663-1,.666-1.614a11.948,11.948,0,0,0-.573-3.779,15.176,15.176,0,0,0-2.523-.347l-2.675-.347c-.507-.066-1.6-.448-2-.024S299.349,728.908,299.349,729.411Z" transform="translate(-196.628 -505.224)" fill="#0081c8"/>
    <path id="Path_7137" data-name="Path 7137" d="M352.985,699.173a8.379,8.379,0,0,0,.548,1.818,4.234,4.234,0,0,0,1.756,2.4,3.134,3.134,0,0,0,2.679-.128,2.207,2.207,0,0,0,.892-.677,2.686,2.686,0,0,0,.347-1.558,8.512,8.512,0,0,0-.694-3.925c-.527-1.041-1.447-1.936-1.461-3.088l-3.161.611a.9.9,0,0,0-.465.184.8.8,0,0,0-.2.378A10.33,10.33,0,0,0,352.985,699.173Z" transform="translate(-234.3 -483.647)" fill="#0081c8"/>
    <path id="Path_7138" data-name="Path 7138" d="M244.259,603.086a5.165,5.165,0,0,0,.507,3.279,2.538,2.538,0,0,0,2.873,1.218.42.42,0,0,0,.26-.2.489.489,0,0,0-.045-.347,5.122,5.122,0,0,1,.108-3.859c.069-.16.219-.347.382-.284a.347.347,0,0,1,.156.16,1.815,1.815,0,0,1,.243.958,3.559,3.559,0,0,0-.028.92c.066.3.385.579.663.451a.694.694,0,0,0,.316-.448c.774-2.238.423-4.685.069-7.027a.368.368,0,0,0-.413-.385c-1.638-.163-2.533-.555-3.47.968A9.512,9.512,0,0,0,244.259,603.086Z" transform="translate(-163.323 -420.525)" fill="#0081c8"/>
    <path id="Path_7139" data-name="Path 7139" d="M297.656,595.585a21.279,21.279,0,0,0-.715,10l.364,3.005c.125,1.013.246,2.023.423,3.026a8.037,8.037,0,0,1,.184,1.572,8.419,8.419,0,0,1-.246,1.544,18.04,18.04,0,0,0-.364,3.227c-.038,1.735.177,3.47.312,5.205a57.962,57.962,0,0,1-.121,10.382,3.893,3.893,0,0,0,.569,2.675,3.444,3.444,0,0,1,.5.826c.26.795-.347,1.589-.5,2.4a2.429,2.429,0,0,0,2.02,2.776c2.776.33,5.628.18,8.13,1.45.264-.77-.312-1.645-.049-2.429.167-.486.625-.8.937-1.211a3.526,3.526,0,0,0,.6-2.117,7.734,7.734,0,0,0-.514-2.87,6.207,6.207,0,0,1-.694-2.335,2.951,2.951,0,0,0-.021-1.2,1.87,1.87,0,0,0-.448-.559,7.055,7.055,0,0,1-1.815-4.112,18.94,18.94,0,0,1,.146-4.56,7.747,7.747,0,0,1,1.312-4.074,26.139,26.139,0,0,1,.732-10.15c.09-.305.232-.659.545-.732a.778.778,0,0,1,.666.264,4.549,4.549,0,0,1,1.041,1.957,4.267,4.267,0,0,1,.326,2.37c-.083.347-.25.652-.347.985a2.922,2.922,0,0,0,.1,2.037,1.957,1.957,0,0,1,.25.767,2.124,2.124,0,0,1-.208.666,3.068,3.068,0,0,0,.288,2.481,8.985,8.985,0,0,0,1.621,1.988,7.287,7.287,0,0,0,.226,4.011.506.506,0,0,1,.045.385c-.062.132-.222.18-.347.274-.347.284-.132.822.1,1.194a27.37,27.37,0,0,0,2.106,2.922c.694.829.632,2.429,1.666,2.727a3.122,3.122,0,0,0,1.319,0,3.457,3.457,0,0,0,2.658-1.353,3.641,3.641,0,0,1,.607-1.1c.319-.278.732-.326.909-.659s-.021-.77.038-1.156.4-.694.5-1.1c.257-.937-.836-1.707-.986-2.665-.215-1.388,1.534-2.429,1.461-3.817-.153-3.015-.25-6.045-.406-9.06a65.33,65.33,0,0,1-.083-8.116,11.413,11.413,0,0,0-.271-5.011c-.888-2.207-3.338-3.446-5.708-3.682a28.111,28.111,0,0,0-7.082.694A44.763,44.763,0,0,1,297.656,595.585Z" transform="translate(-197.573 -418.719)" fill="#3f3d56"/>
    <circle id="Ellipse_305" data-name="Ellipse 305" cx="5.559" cy="5.559" r="5.559" transform="translate(101.568 132.582)" fill="#fbbebe"/>
    <path id="Path_7140" data-name="Path 7140" d="M308.978,498.288a2.37,2.37,0,0,1-2.266,1.433,2.794,2.794,0,0,0,.833,2.328A9.883,9.883,0,0,0,317,505.294a4.668,4.668,0,0,0,1.863-.777,4.133,4.133,0,0,0,1.423-2.464,12.249,12.249,0,0,0,.135-2.9.75.75,0,0,0-.153-.534.763.763,0,0,0-.486-.16,8.425,8.425,0,0,1-3.428-.725,2.444,2.444,0,0,1-1.267-2.946,12.439,12.439,0,0,1-2.373.281c-.836.118-1.673.25-2.505.4a4.554,4.554,0,0,0-1.176.222c-.5.26-.316.132-.2.6A2.87,2.87,0,0,1,308.978,498.288Z" transform="translate(-204.114 -353.55)" fill="#fbbebe"/>
    <path id="Path_7141" data-name="Path 7141" d="M275.154,507a9.206,9.206,0,0,1-2.224-.246,3.123,3.123,0,0,1-1.825-1.218c-.257-.389-.423-.878-.833-1.1-.67-.347-1.433.239-1.967.777a7.147,7.147,0,0,1-1.673,1.346c-.743.392-1.61.531-2.311.992a5.809,5.809,0,0,0-1.388,1.5l-4.917,6.7c-1.974,2.693-3.692,5.583-5.451,8.425-1.523,2.46-2.321,5.292-3.47,7.946a.888.888,0,0,0-.108.534c.042.18.26.326.413.222-.517.514-.062,1.388-.184,2.11a2.589,2.589,0,0,1-.826,1.294,6.524,6.524,0,0,1,2.29.108,7.019,7.019,0,0,1,2.165,1.041c.42-.066.382-.812.694-1.09.187-.163.465-.142.711-.191.926-.18,1.294-1.294,2.006-1.922.593-.524,1.433-.694,2.061-1.187,1.02-.8,1.239-2.228,1.773-3.411.455-1,1.169-1.877,1.568-2.9a12.512,12.512,0,0,1,.756-2,5.732,5.732,0,0,1,2.776-2,4.6,4.6,0,0,1,2.113-.566,19.628,19.628,0,0,0,.108,4.778c.121.555.291,1.1.437,1.648a31.037,31.037,0,0,1,.85,7.634,23.229,23.229,0,0,1,4.858-.583c1.287-.038,2.571.128,3.859.1,1.527-.028,3.036-.323,4.563-.427a8.524,8.524,0,0,1,4.473.694,42.5,42.5,0,0,1,.184-6.593l.368-3.449a21.189,21.189,0,0,1,.462-2.977c.2-.791.493-1.555.715-2.342a26.811,26.811,0,0,0,.489-8.63,10.878,10.878,0,0,0-1.322-4.268,11.552,11.552,0,0,0-.833-1.416,8.2,8.2,0,0,0-7.169-3.366,1.45,1.45,0,0,0-.514.111,1.71,1.71,0,0,0-.656.781A8.5,8.5,0,0,1,275.154,507Z" transform="translate(-166.06 -358.879)" fill="#3f3d56"/>
    <path id="Path_7142" data-name="Path 7142" d="M302.558,475.079c.156-.347.576-.475.833-.753.493-.527.271-1.371.347-2.082a2.991,2.991,0,0,1,1.978-2.283,6.392,6.392,0,0,1,3.123-.2,3.022,3.022,0,0,1,1.409.468c.18.132.347.3.517.423a1.388,1.388,0,0,0,1.888-.441c-1.228-1.478-2.589-3.04-4.455-3.494a9.14,9.14,0,0,0-1.947-.184,6.321,6.321,0,0,0-2.554.3,4.257,4.257,0,0,0-2.242,2.589,12.586,12.586,0,0,0-.545,3.47,13.072,13.072,0,0,0,0,2.36,6.524,6.524,0,0,0,1.159,2.974.9.9,0,0,0,.347.323C304,479.243,302.43,475.367,302.558,475.079Z" transform="translate(-200.32 -335.096)" fill="#3f3d56"/>
    <path id="Path_7143" data-name="Path 7143" d="M310.3,462.649a6.812,6.812,0,0,0-2.6-4.07,9.57,9.57,0,0,0-3.487-2.1,4.66,4.66,0,0,0-3.935.479,6.046,6.046,0,0,0-1.915,2.634,8.29,8.29,0,0,0-.836,3.817,4.115,4.115,0,0,0,1.863,3.3,3.5,3.5,0,0,1,1.8-1.162A88.337,88.337,0,0,1,310.3,462.649Z" transform="translate(-198.144 -328.387)" fill="#fed253"/>
    <path id="Path_7144" data-name="Path 7144" d="M303.29,472.72c.111,0,.184.115.239.208a8.8,8.8,0,0,1,.725,1.388c-.406.087-1.1.184-1.3-.173C302.842,473.962,302.971,472.7,303.29,472.72Z" transform="translate(-201.663 -339.138)" opacity="0.1"/>
    <path id="Path_7145" data-name="Path 7145" d="M326.45,467.236c-.083.08-.18-.083-.18-.2v-1.346a.2.2,0,0,1,.024-.108.163.163,0,0,1,.115-.056c.281-.031.514.208.694.437a7.326,7.326,0,0,1,.711,1.183l-1.468-.045" transform="translate(-216.915 -334.438)" opacity="0.1"/>
    <path id="Path_7146" data-name="Path 7146" d="M358.661,517.925a9.07,9.07,0,0,1,1.02-.836,15.387,15.387,0,0,1,3.2-1.3,4.227,4.227,0,0,0,2.6-2.148,5.1,5.1,0,0,0,.2-2.082,2.082,2.082,0,0,0-.153-.857,1.7,1.7,0,0,0-.548-.6,7.931,7.931,0,0,0-5.247-1.058,32.886,32.886,0,0,0-11.593,2.894,1.006,1.006,0,0,0-.486.347.992.992,0,0,0-.094.482,7.981,7.981,0,0,0,.392,3.022c.479,1.235,1.464,2.231,1.877,3.491.187.566.25,1.166.413,1.735a2.429,2.429,0,0,0,.975,1.451c1.371.819,2.665-.281,3.616-1.135Z" transform="translate(-230.807 -362.833)" fill="#3f3d56"/>
    <path id="Path_7147" data-name="Path 7147" d="M304.45,517.387l-1.759-3.838a13.438,13.438,0,0,1-.666-1.641c-.2-.67-.3-1.364-.486-2.037-.618-2.242-2.176-4.109-2.936-6.305a1.2,1.2,0,0,0-.285-.531.927.927,0,0,0-.774-.139c-1.062.184-1.891.992-2.863,1.45-.451.208-.937.347-1.388.586a1.735,1.735,0,0,0-.93,1.107,2.706,2.706,0,0,0,.378,1.558,17.6,17.6,0,0,1,1.2,6.843,7.276,7.276,0,0,1-.975,4.511c-1.78,2.429-.642,6,.024,8.935.08.347.173.722.229,1.09a10.02,10.02,0,0,1,.08,1.388,10.862,10.862,0,0,1-.739,4.577,5.121,5.121,0,0,0,2.082.59q3.022.385,6.069.541a6.613,6.613,0,0,0,1.905-.1,3.47,3.47,0,0,0,2.564-3.4,4.29,4.29,0,0,0,1.013,2.672,4.036,4.036,0,0,0,2.662.819,49.475,49.475,0,0,0,8.016-.226,1.387,1.387,0,0,0,.493-.115c.514-.257.541-.965.5-1.534-.076-1.065-.156-2.131-.285-3.189a13.051,13.051,0,0,1-.167-2.04,11.742,11.742,0,0,1,.347-2.082,23.611,23.611,0,0,0,.677-6.593,11.125,11.125,0,0,1-.066-1.627c.09-1.225.736-2.391.614-3.609a59.078,59.078,0,0,0-1.627-10.712,2.776,2.776,0,0,0-.947-1.634c-.694-.465-1.669-.222-2.464-.517a6.161,6.161,0,0,1-1.058-.628,4.858,4.858,0,0,0-2.391-.736,2.029,2.029,0,0,0-1.735.632,2.519,2.519,0,0,0-.347.947c-.5,2.117-1.093,4.209-1.683,6.3l-.566,2.006-1.516,5.385C304.5,516.669,304.6,516.846,304.45,517.387Z" transform="translate(-194.547 -357.49)" fill="#0081c8"/>
    <path id="Path_7148" data-name="Path 7148" d="M329.864,400.25l33.565,35.273v2.991H348.464l-25.224-32.92" transform="translate(-211.088 -261.363)" fill="#f1c0c0"/>
    <path id="Path_7149" data-name="Path 7149" d="M329.864,400.25l33.565,35.273v2.991H348.464l-25.224-32.92" transform="translate(-211.088 -261.363)" opacity="0.1"/>
    <path id="Path_7150" data-name="Path 7150" d="M323.774,414.31l.108.038,24.8,30.356H363.43v2.991H348.464l-25.224-32.92Z" transform="translate(-211.088 -270.544)" opacity="0.1"/>
    <path id="Path_7151" data-name="Path 7151" d="M341.36,501.481c-1.214.531-2.564,1.211-2.929,2.488a1.43,1.43,0,0,0-.045.694,1.416,1.416,0,0,0,1.274.975,4.163,4.163,0,0,0,1.669-.305l7.166-2.367c.194-.062.416-.156.465-.347a.6.6,0,0,0-.069-.347c-.222-.541-.441-1.648-.906-2.026-.382-.305-1.138-.2-1.6-.191A12.971,12.971,0,0,0,341.36,501.481Z" transform="translate(-224.812 -356.973)" fill="#0081c8"/>
    <path id="Path_7152" data-name="Path 7152" d="M362.53,501.885a11.525,11.525,0,0,1,3.557.552,6.336,6.336,0,0,1,2.946,2.013,2.207,2.207,0,0,1,.465.909c.069.347,1.2.555.951.791.76-.121.579.236,1.35.229a2.55,2.55,0,0,0,2.065-.819,2.682,2.682,0,0,0,.406-1.7,2.891,2.891,0,0,0-.229-1.2,3.545,3.545,0,0,0-1.881-1.457l-6.2-2.835a4.114,4.114,0,0,0-1.145-.406,4.28,4.28,0,0,0-1.01.024l-2.807.323a4.209,4.209,0,0,1,1.919,3.7" transform="translate(-239.594 -355.611)" fill="#3f3d56"/>
  </g>
</svg>
