<svg xmlns="http://www.w3.org/2000/svg" width="61.559" height="94.095" viewBox="0 0 61.559 94.095">
  <g id="Group_3704" data-name="Group 3704" transform="translate(12823.99 -7904.303)">
    <g id="Group_3537" data-name="Group 3537" transform="translate(-12823.99 7904.303)">
      <path id="Path_5225" data-name="Path 5225" d="M582.032,470.711H528.18a3.247,3.247,0,0,1-3.243-3.243V428.75a3.247,3.247,0,0,1,3.243-3.243h53.852a3.247,3.247,0,0,1,3.243,3.243v38.719A3.247,3.247,0,0,1,582.032,470.711Z" transform="translate(-524.937 -425.507)" fill="#e6e6e6"/>
      <path id="Path_5226" data-name="Path 5226" d="M540.074,478.694h51.861a1.572,1.572,0,0,0,1.572-1.572v-36.89a1.572,1.572,0,0,0-1.572-1.572H540.074a1.572,1.572,0,0,0-1.572,1.572v36.89A1.572,1.572,0,0,0,540.074,478.694Z" transform="translate(-535.836 -436.075)" fill="#fff"/>
      <path id="Path_5229" data-name="Path 5229" d="M638.659,496.981H605.532a1.183,1.183,0,0,0,0,2.366h33.127a1.183,1.183,0,0,0,0-2.366Z" transform="translate(-588.741 -482.933)" fill="#e6e6e6"/>
      <path id="Path_5230" data-name="Path 5230" d="M605.532,534.025a1.183,1.183,0,0,0,0,2.366h33.127a1.183,1.183,0,0,0,0-2.366Z" transform="translate(-588.741 -512.697)" fill="#e6e6e6"/>
      <path id="Path_5231" data-name="Path 5231" d="M605.532,571.069a1.183,1.183,0,0,0,0,2.366h33.127a1.183,1.183,0,0,0,0-2.366Z" transform="translate(-588.741 -542.46)" fill="#e6e6e6"/>
      <circle id="Ellipse_104" data-name="Ellipse 104" cx="1.456" cy="1.456" r="1.456" transform="translate(9.056 13.865)" fill="#54b948"/>
      <circle id="Ellipse_105" data-name="Ellipse 105" cx="1.456" cy="1.456" r="1.456" transform="translate(9.056 21.146)" fill="#e6e6e6"/>
      <circle id="Ellipse_106" data-name="Ellipse 106" cx="1.456" cy="1.456" r="1.456" transform="translate(9.056 28.426)" fill="#e6e6e6"/>
      <path id="Path_5232" data-name="Path 5232" d="M625.463,498.163h0a1.183,1.183,0,0,1-1.183,1.183H605.574a1.212,1.212,0,0,1-1.215-1.026,1.185,1.185,0,0,1,1.173-1.34h18.748a1.183,1.183,0,0,1,1.183,1.183Z" transform="translate(-588.74 -482.933)" fill="#54b948"/>
    </g>
    <g id="Group_3536" data-name="Group 3536" transform="translate(-12795.23 7913.817)">
      <path id="Path_5239" data-name="Path 5239" d="M735,676.934h-2.538l-1.207-9.791H735Z" transform="translate(-722.578 -594.711)" fill="#ffb8b8"/>
      <path id="Path_5240" data-name="Path 5240" d="M717.721,707.973h4.9v3.082h-7.978a3.082,3.082,0,0,1,3.082-3.082Z" transform="translate(-709.656 -626.475)" fill="#2f2e41"/>
      <path id="Path_5241" data-name="Path 5241" d="M796.618,676.934h-2.539l-1.207-9.791h3.747Z" transform="translate(-770.518 -594.711)" fill="#ffb8b8"/>
      <path id="Path_5242" data-name="Path 5242" d="M779.342,707.973h4.9v3.082H776.26a3.082,3.082,0,0,1,3.082-3.082Z" transform="translate(-757.594 -626.475)" fill="#2f2e41"/>
      <circle id="Ellipse_113" data-name="Ellipse 113" cx="5.453" cy="5.453" r="5.453" transform="translate(13.213 1.713)" fill="#ffb8b8"/>
      <path id="Path_5243" data-name="Path 5243" d="M850.109,602.417a2.082,2.082,0,0,1,2.685-1.727l3.048-3.653,2.672,1.311-4.376,5.1a2.093,2.093,0,0,1-4.028-1.029Z" transform="translate(-850.09 -559.685)" fill="#ffb8b8"/>
      <path id="Path_5244" data-name="Path 5244" d="M967.61,610.078a2.082,2.082,0,0,1,1.339-2.9l.612-4.718,2.958-.328-.958,6.651a2.093,2.093,0,0,1-3.951,1.293Z" transform="translate(-941.362 -563.651)" fill="#ffb8b8"/>
      <path id="Path_5245" data-name="Path 5245" d="M952.7,503.857h0a2.683,2.683,0,0,1,4.607.651l4.47,11.155a6.929,6.929,0,0,1,.422,3.6l-1.456,9.8a.888.888,0,0,1-1.139.719l-1.918-.589a.888.888,0,0,1-.621-.952h0a32.264,32.264,0,0,0-2.59-16.926l-2.107-4.713A2.683,2.683,0,0,1,952.7,503.857Z" transform="translate(-929.475 -486.391)" fill="#a70063"/>
      <path id="Path_5246" data-name="Path 5246" d="M910.083,441.434a5.818,5.818,0,1,0-1.09-11.507A6.688,6.688,0,0,0,905,428.834a3.912,3.912,0,0,0-3.3,2.256,2.794,2.794,0,0,0,1.338,3.548,5.046,5.046,0,0,0,2.663.038,3.971,3.971,0,0,1,2.633.233c.774.459,1.122,1.689.429,2.262a2.384,2.384,0,0,0-.685,2.625A2.608,2.608,0,0,0,910.083,441.434Z" transform="translate(-890.09 -428.815)" fill="#2f2e41"/>
      <path id="Path_5247" data-name="Path 5247" d="M905.106,619.082l.967,36.712a.888.888,0,0,1-.933.91l-3.187-.163a.888.888,0,0,1-.832-.748l-3.791-23.844a.444.444,0,0,0-.872-.027l-5.131,22.958a.888.888,0,0,1-1.164.643L887,655.33a.888.888,0,0,1-.588-.9l2.761-35.7Z" transform="translate(-878.346 -576.565)" fill="#2f2e41"/>
      <path id="Path_5248" data-name="Path 5248" d="M912.214,503.033a10.007,10.007,0,0,0-9.132-10.991c-2.4-.171-6.131-.232-7.36,2.917-3.7,9.484,2.779,9.254.546,17.47s-4.206,8.688-1.141,9.281,16.845,4.1,16.279-1.687C911.058,516.468,911.681,508.582,912.214,503.033Z" transform="translate(-883.902 -477.953)" fill="#a70063"/>
      <path id="Path_5249" data-name="Path 5249" d="M874.842,500.425h0a2.683,2.683,0,0,1,3.618,2.926l-1.741,10.878a10.63,10.63,0,0,1-2.279,5.064l-5.653,6.888a.888.888,0,0,1-1.347.031l-1.343-1.491a.888.888,0,0,1-.044-1.136l.4-.513a29.91,29.91,0,0,0,6-14.694l.692-5.77A2.683,2.683,0,0,1,874.842,500.425Z" transform="translate(-862.366 -484.384)" fill="#a70063"/>
    </g>
  </g>
</svg>
