<svg xmlns="http://www.w3.org/2000/svg" width="58.998" height="87.721" viewBox="0 0 58.998 87.721">
  <g id="Group_3867" data-name="Group 3867" transform="translate(16845.047 -17722.279)">
    <g id="Group_3487" data-name="Group 3487" transform="translate(-16845.047 17781.77)">
      <path id="Path_5193" data-name="Path 5193" d="M225.985,468.642a18.353,18.353,0,0,0,2.464,6.509c.057.1.113.2.171.306h14.822c.263-.093.522-.2.779-.306a13.726,13.726,0,0,0,2.685-1.5c4.821-3.473,6.677-10.037,5.838-15.918-.519-3.656-2.124-7.386-5.247-9.354a7.886,7.886,0,0,0-5.663-.992q-.076.014-.152.032a5.846,5.846,0,0,0-3.916,2.752c-1.489,2.645-.6,5.921.13,8.864s1.126,6.467-.992,8.639a5.4,5.4,0,0,0-6.282-7.023c-.153.032-.3.069-.455.115a5.011,5.011,0,0,0-1.034.433C226.635,462.591,225.625,465.8,225.985,468.642Z" transform="translate(-225.914 -447.227)" fill="#e5e5e5"/>
      <path id="Path_5194" data-name="Path 5194" d="M274.544,476c-.331.112-.665.213-1,.306h1.45q.4-.143.8-.306l.176-.072a14.886,14.886,0,0,0,5.728-4.13,11.587,11.587,0,0,0,1.807-2.951,13.367,13.367,0,0,0,.925-3.777,26.879,26.879,0,0,0-.531-8.011,33.407,33.407,0,0,0-2.613-7.835q-.216-.448-.444-.891a.18.18,0,0,0-.115-.1.2.2,0,0,0-.152.032.237.237,0,0,0-.093.312,33.028,33.028,0,0,1,2.772,7.552,28.988,28.988,0,0,1,.824,7.861,12.538,12.538,0,0,1-2.208,6.881,13.871,13.871,0,0,1-5.2,4.264A17.436,17.436,0,0,1,274.544,476Z" transform="translate(-264.81 -448.074)" fill="#fff"/>
      <path id="Path_5195" data-name="Path 5195" d="M356.1,549.669h.562c.08-.1.156-.2.231-.306A12.443,12.443,0,0,0,359.1,544.3a12.16,12.16,0,0,0-1.048-7.561,12.49,12.49,0,0,0-1.132-1.875c-.153.032-.3.069-.455.115a11.75,11.75,0,0,1-.116,14.388C356.269,549.467,356.187,549.57,356.1,549.669Z" transform="translate(-352.214 -521.439)" fill="#fff"/>
    </g>
    <g id="Group_3486" data-name="Group 3486" transform="translate(-16834.543 17722.279)">
      <path id="Path_5127" data-name="Path 5127" d="M478.849,379.988a2.337,2.337,0,0,1,.455-2.141,3.017,3.017,0,0,1,2.148-1.067l16.561-18.316,4.1,3.378-17.5,17.5a2.718,2.718,0,0,1-2.557,2.59A2.931,2.931,0,0,1,478.849,379.988Z" transform="translate(-478.758 -335.926)" fill="#ffb8b8"/>
      <path id="Path_5128" data-name="Path 5128" d="M465.161,348.261l5.234,3.546a1.439,1.439,0,0,0,1.06.214,1.3,1.3,0,0,0,.875-.57l3.188-5.084a2.968,2.968,0,0,0-.689-4.494,3.948,3.948,0,0,0-5.08.609l-4.7,4.034a1.087,1.087,0,0,0-.394.9,1.123,1.123,0,0,0,.51.849Z" transform="translate(-449.083 -322.812)" fill="#a70063"/>
      <ellipse id="Ellipse_90" data-name="Ellipse 90" cx="6.656" cy="5.887" rx="6.656" ry="5.887" transform="translate(18.211 2.617)" fill="#ffb8b8"/>
      <path id="Path_5129" data-name="Path 5129" d="M296.008,339.06h-3.322l.316-5.5h4.9Z" transform="translate(-285.348 -254.189)" fill="#ffb8b8"/>
      <path id="Path_5130" data-name="Path 5130" d="M533.18,614.5h-6.543a3.951,3.951,0,0,0-4.169,3.688v.12H533.18Z" transform="translate(-521.673 -530.591)" fill="#2f2e41"/>
      <path id="Path_5131" data-name="Path 5131" d="M174.8,322.735l-2.826,1.544-3-4.826,3.42-1.893Z" transform="translate(-128.719 -242.024)" fill="#ffb8b8"/>
      <path id="Path_5132" data-name="Path 5132" d="M393.522,596.1l-5.566,3.041h0a3.451,3.451,0,0,0-1.356,5.076l.071.1,9.114-4.98Z" transform="translate(-347.29 -516.599)" fill="#2f2e41"/>
      <path id="Path_5133" data-name="Path 5133" d="M400.38,462.812a1.222,1.222,0,0,0,1.137-.7L413.534,436.7a.4.4,0,0,1,.333-.233.429.429,0,0,1,.386.155l16.509,23a1.31,1.31,0,0,0,1.528.376l2.259-.932a1.034,1.034,0,0,0,.6-1.419L421.62,430.985c.3-.636,3.176-7.161-1.25-10.385l-.031-.017-12-4.736-.3,8.144L396.072,460.7a.97.97,0,0,0,.111.832,1.211,1.211,0,0,0,.75.51l3.133.729A1.371,1.371,0,0,0,400.38,462.812Z" transform="translate(-389.479 -379.553)" fill="#2f2e41"/>
      <path id="Path_5134" data-name="Path 5134" d="M443.375,340.992a8.922,8.922,0,0,1,1.973-4.013,10.266,10.266,0,0,0,.9-.875,6.478,6.478,0,0,1,2.155-1.562c-.306-.151-.485-.33-.485-.523,0-.53,1.334-.959,2.981-.959s2.981.429,2.981.959a.45.45,0,0,1-.177.323,5.735,5.735,0,0,1,3.922,4.678c.385,3.647.5,8.309-.852,11.258a9.691,9.691,0,0,0-.253,7.651.884.884,0,0,1-.285,1,1.19,1.19,0,0,1-1.148.19l-11.909-4.245a.967.967,0,0,1-.679-.889v-6.447a24.117,24.117,0,0,1,.879-6.547Z" transform="translate(-424.699 -316.611)" fill="#a70063"/>
      <path id="Path_5135" data-name="Path 5135" d="M409.949,393.394a2.879,2.879,0,0,1-1.938-1.345,2.308,2.308,0,0,1-.079-2.178l-9.318-21.735,4.725-1.079,8.618,21.511a2.474,2.474,0,0,1,1.419,3.2A3.016,3.016,0,0,1,409.949,393.394Z" transform="translate(-368.486 -342.459)" fill="#ffb8b8"/>
      <path id="Path_5136" data-name="Path 5136" d="M432.833,354.375,438.8,351.9a1.206,1.206,0,0,0,.7-.733,1.043,1.043,0,0,0-.168-.95l-3.629-4.847a3.842,3.842,0,0,0-4.825-1.532,3.058,3.058,0,0,0-1.732,4.268l1.876,5.552a1.212,1.212,0,0,0,.717.723A1.46,1.46,0,0,0,432.833,354.375Z" transform="translate(-402.668 -324.573)" fill="#a70063"/>
      <path id="Path_5137" data-name="Path 5137" d="M422.023,271.49a1.69,1.69,0,0,1-.873-.14c-.491-.284-.443-.93-.277-1.428a8.014,8.014,0,0,1,5.786-4.981c.948-.223,2.147-.214,2.689.508a7.5,7.5,0,0,1,8.855.962,7.828,7.828,0,0,1,2.079,3.918c.569,2.465,3,7.549,1.655,9.763-.9,1.474-5.03.325-6.777.967a6.428,6.428,0,0,1-5.424-.387,3.685,3.685,0,0,1-1.7-4.414,13.282,13.282,0,0,1,1.056-1.7,2.483,2.483,0,0,0,.458-1.856C429.3,271.719,424.049,271.453,422.023,271.49Z" transform="translate(-403.269 -264.434)" fill="#2f2e41"/>
    </g>
  </g>
</svg>
