<svg xmlns="http://www.w3.org/2000/svg" width="126.92" height="120.971" viewBox="0 0 126.92 120.971">
  <g id="Group_3866" data-name="Group 3866" transform="translate(18157.598 -6034.443)">
    <g id="Group_3516" data-name="Group 3516" transform="translate(-18079.82 6034.443)">
      <path id="Path_5159" data-name="Path 5159" d="M284.2,86.267a24.571,24.571,0,1,0,24.571,24.571A24.6,24.6,0,0,0,284.2,86.267Zm20.329,34.449a22.6,22.6,0,1,1,2.276-9.878A22.628,22.628,0,0,1,304.532,120.716Z" transform="translate(-259.631 -86.267)" fill="#e6e6e6"/>
      <path id="Path_5160" data-name="Path 5160" d="M297.227,332.6a24.674,24.674,0,0,1-22.244-14.038,1.062,1.062,0,0,1,.08-1.055l.013-.019a1.046,1.046,0,0,1,1.805.144,22.526,22.526,0,0,0,39.831,1.631,1.046,1.046,0,0,1,.913-.523,1.028,1.028,0,0,1,.9.524l.011.02a1.06,1.06,0,0,1-.006,1.053,24.739,24.739,0,0,1-21.3,12.263Z" transform="translate(-272.656 -283.38)" fill="#a70063"/>
      <g id="Group_3493" data-name="Group 3493" transform="translate(9.299 12.103)">
        <path id="Path_5161" data-name="Path 5161" d="M368.495,263.684a4.537,4.537,0,1,1-3.182,1.332,4.477,4.477,0,0,1,3.182-1.332m0-1.933a6.444,6.444,0,1,0,6.441,6.448,6.444,6.444,0,0,0-6.441-6.448Zm18.045,1.933a4.537,4.537,0,1,1-3.182,1.332,4.478,4.478,0,0,1,3.182-1.332m0-1.933a6.441,6.441,0,1,0,6.441,6.441A6.441,6.441,0,0,0,386.539,261.751Z" transform="translate(-362.047 -248.131)" fill="#2f2e41"/>
        <path id="Path_5196" data-name="Path 5196" d="M390.15,217.938m13.427-11.149a2.2,2.2,0,0,0,2.209-2.187v-.022a2.175,2.175,0,0,0-2.154-2.2h-.042a2.2,2.2,0,0,0-.041,4.4h.028Z" transform="translate(-383.702 -202.386)" fill="#ccc"/>
        <path id="Path_5162" data-name="Path 5162" d="M414.949,223.278h-3.314l-2.036-4.149a2.16,2.16,0,0,0-3.417-.456l-4.95,4.77a2.247,2.247,0,0,0-.642,1.546,2.057,2.057,0,0,0,1.277,1.871c3.141,1.809,4.245,2.009,4.245,2.913v4.549a1.1,1.1,0,0,0,2.209,0h0V228.11c0-.911-2.1-1.657-3.334-2.623l3.376-3.555c1.291,1.967,1.885,3.555,2.623,3.555h3.962a1.1,1.1,0,0,0,0-2.209h0Z" transform="translate(-391.748 -214.442)" fill="#ccc"/>
      </g>
    </g>
    <g id="Group_3517" data-name="Group 3517" transform="translate(-18157.699 6059.051)">
      <path id="Path_5166" data-name="Path 5166" d="M537.685,446.957a25.594,25.594,0,1,0,0,51.188h0c.166,0,.328,0,.494-.007a25.592,25.592,0,1,0-.494-51.182Zm5.216,48.554A23.546,23.546,0,1,1,537.671,449h.014a23.546,23.546,0,0,1,5.216,46.507Z" transform="translate(-511.985 -446.954)" fill="#e6e6e6"/>
      <path id="Path_5167" data-name="Path 5167" d="M536.186,498.952c-12.568,0-23.113-9.8-24.451-22.728s6.962-24.813,19.245-27.565a1.092,1.092,0,0,1,.443-.006l.051.01a1.135,1.135,0,0,1,.025,2.206c-11.2,2.483-18.778,13.3-17.571,25.083s10.811,20.717,22.262,20.719c.216,0,.427,0,.64-.01a1.055,1.055,0,0,1,.476,2h0q-.216.1-.434.2a.978.978,0,0,1-.388.089C536.384,498.952,536.285,498.952,536.186,498.952Z" transform="translate(-511.492 -447.761)" fill="#54b948"/>
      <g id="Group_3492" data-name="Group 3492" transform="translate(18.203 8.374)">
        <path id="Path_5127" data-name="Path 5127" d="M485.124,365.124a.8.8,0,0,0-.712-.992l-4.532-5.666-1.121,1.045,4.788,5.413a.8.8,0,0,0,1.578.2Z" transform="translate(-471.877 -351.491)" fill="#ffb8b8"/>
        <path id="Path_5128" data-name="Path 5128" d="M467.686,343.4l-1.432,1.1a.357.357,0,0,1-.53-.11l-.873-1.573a.992.992,0,1,1,1.579-1.2l1.287,1.248a.357.357,0,0,1-.032.54Z" transform="translate(-458.815 -335.523)" fill="#ccc"/>
        <circle id="Ellipse_90" data-name="Ellipse 90" cx="1.821" cy="1.821" r="1.821" transform="translate(4.645 0.81)" fill="#ffb8b8"/>
        <path id="Path_5129" data-name="Path 5129" d="M293.205,335.262h.909l-.087-1.7h-1.342Z" transform="translate(-282.851 -309.004)" fill="#ffb8b8"/>
        <path id="Path_5130" data-name="Path 5130" d="M522.468,614.5h1.79a1.141,1.141,0,0,1,1.141,1.141v.037h-2.931Z" transform="translate(-512.346 -588.541)" fill="#2f2e41"/>
        <path id="Path_5131" data-name="Path 5131" d="M168.975,319.161l.773.478.821-1.493-.936-.586Z" transform="translate(-168.315 -294.19)" fill="#ffb8b8"/>
        <path id="Path_5132" data-name="Path 5132" d="M386.6,596.1l1.523.941h0a1.141,1.141,0,0,1,.371,1.57l-.019.032-2.494-1.541Z" transform="translate(-385.977 -571.503)" fill="#2f2e41"/>
        <path id="Path_5133" data-name="Path 5133" d="M405.568,430.377a.333.333,0,0,1-.311-.215l-3.289-7.863a.111.111,0,0,0-.2-.024l-4.518,7.117a.333.333,0,0,1-.418.116l-.618-.289a.335.335,0,0,1-.163-.439l3.7-8.251c-.081-.2-.869-2.216.342-3.213l.008-.005,3.284-1.465.083,2.52,3.274,11.359a.334.334,0,0,1-.236.415l-.857.226A.337.337,0,0,1,405.568,430.377Z" transform="translate(-395.279 -404.618)" fill="#2f2e41"/>
        <path id="Path_5134" data-name="Path 5134" d="M446.465,335.514a2.911,2.911,0,0,0-.54-1.241,3,3,0,0,1-.246-.271,1.8,1.8,0,0,0-.59-.483c.084-.047.133-.1.133-.162,0-.164-.365-.3-.816-.3s-.816.133-.816.3a.145.145,0,0,0,.048.1,1.736,1.736,0,0,0-1.073,1.447,8.4,8.4,0,0,0,.233,3.483,3.359,3.359,0,0,1,.069,2.367.3.3,0,0,0,.392.368l3.259-1.313a.3.3,0,0,0,.186-.275V337.54A8.384,8.384,0,0,0,446.465,335.514Z" transform="translate(-438.305 -327.971)" fill="#ccc"/>
        <path id="Path_5135" data-name="Path 5135" d="M399.6,375.206a.8.8,0,0,0,.552-1.09l2.55-6.724-1.293-.334-2.359,6.655a.8.8,0,0,0,.55,1.493Z" transform="translate(-397.677 -359.447)" fill="#ffb8b8"/>
        <path id="Path_5136" data-name="Path 5136" d="M430.646,346.888l-1.634-.765a.357.357,0,0,1-.146-.521l.993-1.5a.992.992,0,0,1,1.795.846l-.514,1.718a.357.357,0,0,1-.494.221Z" transform="translate(-425.63 -337.667)" fill="#ccc"/>
        <path id="Path_5137" data-name="Path 5137" d="M426.317,266.617a.415.415,0,0,0,.239-.043c.134-.088.121-.288.076-.442a2.3,2.3,0,0,0-1.583-1.541.667.667,0,0,0-.736.157,1.873,1.873,0,0,0-2.423.3,2.537,2.537,0,0,0-.569,1.212c-.156.763-.822,2.335-.453,3.021.246.456,1.376.1,1.855.3a1.58,1.58,0,0,0,1.484-.12,1.211,1.211,0,0,0,.466-1.366,4.208,4.208,0,0,0-.289-.526.846.846,0,0,1-.125-.574C424.325,266.688,425.762,266.606,426.317,266.617Z" transform="translate(-418.178 -264.434)" fill="#2f2e41"/>
      </g>
    </g>
    <g id="Group_3518" data-name="Group 3518" transform="translate(-18101.023 6092.707)">
      <path id="Path_5159-2" data-name="Path 5159" d="M290.981,86.267a31.353,31.353,0,1,0,31.35,31.353A31.386,31.386,0,0,0,290.981,86.267Zm25.938,43.957a28.837,28.837,0,1,1,2.9-12.6A28.871,28.871,0,0,1,316.918,130.225Z" transform="translate(-259.631 -86.267)" fill="#e6e6e6"/>
      <path id="Path_5160-2" data-name="Path 5160" d="M302.256,334.446c-11.636-.009-22.233-6.117-27.249-15.708a1.1,1.1,0,0,1,.1-1.18l.016-.022a1.329,1.329,0,0,1,1.157-.5,1.286,1.286,0,0,1,1.055.663c4.567,8.739,14.35,14.385,24.924,14.385,9.833-.023,18.916-4.8,23.87-12.56a1.309,1.309,0,0,1,1.118-.585,1.284,1.284,0,0,1,1.1.586l.014.023a1.1,1.1,0,0,1-.007,1.178C322.932,329.2,313,334.422,302.256,334.446Z" transform="translate(-271.155 -271.739)" fill="#fbb034"/>
      <g id="undraw_reading_re_29f8" transform="translate(7.464 16.73)">
        <path id="Path_5197" data-name="Path 5197" d="M817.537,557.493l-3.451-5.126s5.226,1.825,4.633,5.126Z" transform="translate(-773.922 -526.019)" fill="#e5e5e5"/>
        <path id="Path_5198" data-name="Path 5198" d="M318.793,483.643l-.131,0a30.381,30.381,0,0,1,.465-4.342c.566-3.071,1.508-5.088,2.8-5.994l.075.107C318.986,475.529,318.795,483.562,318.793,483.643Z" transform="translate(-315.835 -452.135)" fill="#e5e5e5"/>
        <path id="Path_5199" data-name="Path 5199" d="M343.793,566.294l-.131,0c0-.145.085-3.564,1.431-4.509l.075.107C343.876,562.8,343.794,566.259,343.793,566.294Z" transform="translate(-339.197 -534.817)" fill="#e5e5e5"/>
        <circle id="Ellipse_96" data-name="Ellipse 96" cx="0.655" cy="0.655" r="0.655" transform="translate(6.258 19.979)" fill="#fbb034"/>
        <circle id="Ellipse_97" data-name="Ellipse 97" cx="0.655" cy="0.655" r="0.655" transform="translate(5.933 25.612)" fill="#fbb034"/>
        <path id="Path_5200" data-name="Path 5200" d="M328.6,461.745a2.909,2.909,0,0,1-.2,1.49,2.652,2.652,0,0,1-.446-2.847A2.91,2.91,0,0,1,328.6,461.745Z" transform="translate(-324.307 -440.064)" fill="#e5e5e5"/>
        <path id="Path_5201" data-name="Path 5201" d="M352.27,496.862a.783.783,0,1,1,1.225-.87A2.91,2.91,0,0,1,352.27,496.862Z" transform="translate(-345.839 -473.271)" fill="#e5e5e5"/>
        <path id="Path_5202" data-name="Path 5202" d="M359.046,576.942a2.04,2.04,0,0,1-1.052.045,1.859,1.859,0,0,1,1.911-.655A2.038,2.038,0,0,1,359.046,576.942Z" transform="translate(-352.59 -548.362)" fill="#e5e5e5"/>
        <path id="Path_5203" data-name="Path 5203" d="M322.824,630.753H275.573a.066.066,0,1,1,0-.131h47.251a.066.066,0,1,1,0,.131Z" transform="translate(-275.5 -599.148)" fill="#cbcbcb"/>
        <path id="Path_5204" data-name="Path 5204" d="M321.758,499.112l-.536,1.395-5.635-1.4.791-2.059Z" transform="translate(-292.136 -464.487)" fill="#ffb7b7"/>
        <path id="Path_5205" data-name="Path 5205" d="M665.391,671.314l-1.728,4.5-.057-.022a1.875,1.875,0,0,1-1.078-2.423h0l1.055-2.747Z" transform="translate(-633.927 -636.525)" fill="#2f2e41"/>
        <path id="Path_5206" data-name="Path 5206" d="M517.8,412.112l-2.456.23-.122,7.306a1.375,1.375,0,0,0,1.464,1.248l1.557-.107Z" transform="translate(-497.582 -394.951)" fill="#e5e5e5"/>
        <path id="Path_5207" data-name="Path 5207" d="M661.347,406.313l-1.68-.022-.1,8.682h0a2.7,2.7,0,0,0,2.792-2.807Z" transform="translate(-631.315 -389.512)" fill="#e5e5e5"/>
        <path id="Path_5208" data-name="Path 5208" d="M530.088,568.752a5.348,5.348,0,0,1-.173.744c-.085.238-.216.459-.293.7a2.339,2.339,0,0,0,.643,2.217,3.619,3.619,0,0,0,1.764,1.047,7.2,7.2,0,0,0,1.515.159,11.762,11.762,0,0,0,4.188-.362,7.272,7.272,0,0,0,1.217-.553.912.912,0,0,0,.316-.249.87.87,0,0,0,.114-.51c0-.6-.124-1.191-.1-1.788a7.072,7.072,0,0,0,.047-.99,1.826,1.826,0,0,0-1.4-1.573,3.787,3.787,0,0,0-1.157,0,29.548,29.548,0,0,1-3.01.134c-1.027-.006-2.048-.163-3.07-.18-.3,0-.3.088-.392.381A7.12,7.12,0,0,0,530.088,568.752Z" transform="translate(-510.412 -540.206)" fill="#2f2e41"/>
        <path id="Path_5209" data-name="Path 5209" d="M436.1,577.2a3.038,3.038,0,0,0-.845-.09,2.11,2.11,0,0,0-1.959,2.487,3.543,3.543,0,0,0,.335.915,3.056,3.056,0,0,0,.908,1.2,3.526,3.526,0,0,0,.8.382l2.186.823c.322.121.643.242.968.355a18.94,18.94,0,0,0,5.055,1.005,5.477,5.477,0,0,0,1.57-.08.511.511,0,0,0,.321-.173.552.552,0,0,0,.072-.237l.135-.942a.79.79,0,0,0-.011-.4.76.76,0,0,0-.363-.342c-1.437-.825-3.115-1.281-4.324-2.413-.285-.267-.523-.689-.869-.871-.392-.205-.854-.323-1.26-.512A13.942,13.942,0,0,0,436.1,577.2Z" transform="translate(-421.246 -549.135)" fill="#2f2e41"/>
        <path id="Path_5210" data-name="Path 5210" d="M495.943,594.795a22.68,22.68,0,0,1,4.593,2.5c-.075.027-2.618-1.4-2.694-1.421a15.368,15.368,0,0,1-2.049-.722c-.133-.061-.861-.349-.828-.517C495,594.452,495.806,594.752,495.943,594.795Z" transform="translate(-478.687 -565.465)" opacity="0.1"/>
        <path id="Path_5211" data-name="Path 5211" d="M521.129,373.221l-2.08,1.579s-2.195.069-2.121,1.472.953,8.046.953,8.046l.191,2.286,3.615,1.03a11.829,11.829,0,0,0,5.993.129h0l-.43-2.293s1.74-10.414.692-10.873a3.123,3.123,0,0,0-1.7-.327l-1.314-1.146Z" transform="translate(-498.633 -358.515)" fill="#e5e5e5"/>
        <path id="Path_5212" data-name="Path 5212" d="M554.265,254.576c0,2.05-1.9,1.74-4.234,1.74s-4.234.31-4.234-1.74.926-5.685,4.234-5.685C553.453,248.891,554.265,252.526,554.265,254.576Z" transform="translate(-525.55 -242.422)" fill="#2f2e41"/>
        <circle id="Ellipse_98" data-name="Ellipse 98" cx="2.849" cy="2.849" r="2.849" transform="translate(20.663 10.834) rotate(-45)" fill="#ffb7b7"/>
        <path id="Path_5213" data-name="Path 5213" d="M559.964,271.389h1.127l.5-1.392.1,1.392h.539l.29-.812.058.812h4a3.016,3.016,0,0,0-3.016-3.016h-.58a3.016,3.016,0,0,0-3.016,3.016Z" transform="translate(-538.795 -260.627)" fill="#2f2e41"/>
        <rect id="Rectangle_17306" data-name="Rectangle 17306" width="5.699" height="6.878" transform="translate(21.635 15.033)" fill="#fbb034"/>
        <path id="Path_5214" data-name="Path 5214" d="M296.381,498.112l.536,1.395,5.635-1.4-.791-2.058Z" transform="translate(-274.357 -463.553)" fill="#ffb7b7"/>
        <path id="Path_5215" data-name="Path 5215" d="M550.962,669.62l1.055,2.747h0a1.875,1.875,0,0,1-1.078,2.423l-.057.022-1.728-4.5Z" transform="translate(-529.013 -635.591)" fill="#2f2e41"/>
        <path id="Path_5216" data-name="Path 5216" d="M609.118,568.668a3.932,3.932,0,0,1,1.386-.095,1.461,1.461,0,0,1,1.467,1.649,3.9,3.9,0,0,1-.848,2.491,2.258,2.258,0,0,1-.485.466,3.184,3.184,0,0,1-.631.3l-4.895,1.931a31.625,31.625,0,0,1-3.923,1.352.306.306,0,0,1-.408-.142l0-.007a10.145,10.145,0,0,1-1.073-1.963.132.132,0,0,1,.058-.209l3.462-1.989a3.506,3.506,0,0,0,.7-.486,1.746,1.746,0,0,0,.362-.5c.072-.15.078-.5.17-.614s.4-.117.539-.16a4.865,4.865,0,0,0,.586-.222c.774-.346,1.464-.85,2.207-1.256A5.663,5.663,0,0,1,609.118,568.668Z" transform="translate(-575.008 -541.141)" fill="#2f2e41"/>
        <path id="Path_5217" data-name="Path 5217" d="M634.589,587.623c-.595.447-1.365.858-1.955,1.316a37.561,37.561,0,0,0-3.6,2.293c.55.093,4.054-2.358,4.555-2.6a8.094,8.094,0,0,0,1.386-.932c.112-.087.588-.349.266-.447C635.056,587.2,634.723,587.534,634.589,587.623Z" transform="translate(-602.748 -558.611)" opacity="0.1"/>
        <circle id="Ellipse_99" data-name="Ellipse 99" cx="2.047" cy="2.047" r="2.047" transform="translate(42.244 7.678)" fill="#f1f1f1"/>
        <circle id="Ellipse_100" data-name="Ellipse 100" cx="1.436" cy="1.436" r="1.436" transform="translate(39.067 9.267)" fill="#f1f1f1"/>
        <circle id="Ellipse_101" data-name="Ellipse 101" cx="1.151" cy="1.151" r="1.151" transform="translate(9.156 8.899)" fill="#f1f1f1"/>
        <circle id="Ellipse_102" data-name="Ellipse 102" cx="0.808" cy="0.808" r="0.808" transform="translate(11.646 10.361)" fill="#f1f1f1"/>
        <circle id="Ellipse_103" data-name="Ellipse 103" cx="0.88" cy="0.88" r="0.88" transform="translate(24.077 0)" fill="#f1f1f1"/>
        <path id="Path_5218" data-name="Path 5218" d="M537.087,437.959l.079-.607s2.935.214,2.476.935a2.214,2.214,0,0,1-1.572.786Z" transform="translate(-517.855 -418.537)" fill="#2f2e41" opacity="0.17"/>
        <path id="Path_5219" data-name="Path 5219" d="M524.757,406.216a1.146,1.146,0,0,1,.833.512h0a1.145,1.145,0,0,1-.372,1.609,1.111,1.111,0,0,1-.152.074l-1.8,5.517a.916.916,0,0,1-1.648-.8l1.918-5.456a1.143,1.143,0,0,1,1.224-1.454Z" transform="translate(-503.349 -389.435)" fill="#ffb7b7"/>
        <path id="Path_5220" data-name="Path 5220" d="M517.489,438.142s1.034,1.766,2.528.883l-1.448,5.542h-1.22l-1.262-.236.353-2.29Z" transform="translate(-498.332 -419.276)" fill="#e5e5e5"/>
        <path id="Path_5221" data-name="Path 5221" d="M637.942,427.366l-.856-1.175s.411-1.219,2.007-.773C639.093,425.417,640.108,427.689,637.942,427.366Z" transform="translate(-610.527 -407.292)" fill="#e5e5e5"/>
        <path id="Path_5222" data-name="Path 5222" d="M637.942,427.366l-.856-1.175s.411-1.219,2.007-.773C639.093,425.417,640.108,427.689,637.942,427.366Z" transform="translate(-610.527 -407.292)" fill="#2f2e41" opacity="0.17"/>
        <path id="Path_5223" data-name="Path 5223" d="M630.334,392.314a1.137,1.137,0,0,1,.611,1.352l1.918,5.456a.916.916,0,1,1-1.648.8l-1.8-5.517a1.11,1.11,0,0,1-.152-.075,1.145,1.145,0,0,1-.372-1.609h0a1.146,1.146,0,0,1,.833-.512A1.132,1.132,0,0,1,630.334,392.314Z" transform="translate(-602.612 -376.348)" fill="#ffb7b7"/>
        <path id="Path_5224" data-name="Path 5224" d="M637.087,427.589a1.31,1.31,0,0,0,2.007-.773l1.991,5.241-.591,1.034-.086.007a2.188,2.188,0,0,1-1.872-.792h0a4.345,4.345,0,0,1-.908-1.931Z" transform="translate(-610.397 -408.691)" fill="#e5e5e5"/>
      </g>
    </g>
  </g>
</svg>
