<svg xmlns="http://www.w3.org/2000/svg" width="16.841" height="18.379" viewBox="0 0 16.841 18.379">
  <path id="clock-rotate-right-icon" d="M11.533,16.4a.655.655,0,0,1,.09-.035.685.685,0,0,1,.09-.057A7.165,7.165,0,0,0,12.7,15.7a.634.634,0,1,1,.756,1.018,8.467,8.467,0,0,1-1.166.722.631.631,0,0,1-.117.046.6.6,0,0,1-.084.051l-.008,0h0A8.418,8.418,0,1,1,8.944,1.557l-.358-.338A.706.706,0,1,1,9.553.191l1.433,1.35a.709.709,0,0,1,.135.175.7.7,0,0,1-.1.922L9.579,3.976a.7.7,0,1,1-.956-1.033l.138-.128a7.153,7.153,0,1,0,.317,14.269q.036-.008.072-.013c.118-.013.236-.029.353-.047a.687.687,0,0,1,.089-.007,7.151,7.151,0,0,0,1.941-.617ZM7.073,6.543a.652.652,0,1,1,1.3,0v3.969l2.716,1.194a.651.651,0,1,1-.525,1.192L7.5,11.547a.653.653,0,0,1-.423-.611V6.543Zm7.246,7.493a.634.634,0,0,0,1.041.724,8.592,8.592,0,0,0,.687-1.186.634.634,0,0,0-1.146-.542,7.273,7.273,0,0,1-.583,1.005ZM15.533,10.8a.634.634,0,0,0,1.26.138,8.376,8.376,0,0,0,.039-1.368.634.634,0,1,0-1.266.068A7.145,7.145,0,0,1,15.533,10.8ZM15.08,7.371a.634.634,0,1,0,1.18-.462,8.385,8.385,0,0,0-.6-1.231.634.634,0,1,0-1.092.645,7.237,7.237,0,0,1,.509,1.048ZM13.086,4.543a.634.634,0,0,0,.828-.961,8.49,8.49,0,0,0-1.106-.807.634.634,0,0,0-.661,1.082A7.231,7.231,0,0,1,13.086,4.543Z" transform="translate(-0.004 0)" fill="#ff4040"/>
</svg>
