<svg id="Group_112" data-name="Group 112" xmlns="http://www.w3.org/2000/svg" width="28.199" height="19.804" viewBox="0 0 28.199 19.804">
  <path id="path12488" d="M648.312-1858.777a4.761,4.761,0,0,1-4.757-4.757,4.763,4.763,0,0,1,4.757-4.757,4.765,4.765,0,0,1,4.757,4.757A4.763,4.763,0,0,1,648.312-1858.777Zm-9.366-3.715a1.042,1.042,0,0,1-1.041-1.041,1.043,1.043,0,0,1,1.041-1.041,1.043,1.043,0,0,1,1.041,1.041A1.042,1.042,0,0,1,638.946-1862.491Zm9.366-8.891a7.85,7.85,0,0,0-7.761,6.674,1.988,1.988,0,0,0-1.605-.817,2,2,0,0,0-1.993,1.992,2,2,0,0,0,1.993,1.993,1.989,1.989,0,0,0,1.605-.817,7.848,7.848,0,0,0,7.76,6.672,7.849,7.849,0,0,0,7.849-7.849,7.827,7.827,0,0,0-.859-3.568h4.464a7.817,7.817,0,0,1,5.387-2.14v-2.141H648.312" transform="translate(-636.953 1875.489)" fill="#fff"/>
  <path id="path12490" d="M1093.444-1636.743a4.072,4.072,0,0,0-4.067,4.067,4.07,4.07,0,0,0,4.067,4.067,4.072,4.072,0,0,0,4.067-4.067,4.073,4.073,0,0,0-4.067-4.067" transform="translate(-1082.086 1644.631)" fill="#fff"/>
  <path id="path12492" d="M1123.741-2123.014a.438.438,0,0,0,.422.324.445.445,0,0,0,.114-.015.438.438,0,0,0,.309-.536l-.708-2.642a.437.437,0,0,0-.536-.309.438.438,0,0,0-.309.536l.708,2.642" transform="translate(-1115.184 2126.207)" fill="#fff"/>
  <path id="path12494" d="M945.992-2049.263a.437.437,0,0,0,.379.219.438.438,0,0,0,.218-.059.438.438,0,0,0,.16-.6l-1.368-2.369a.437.437,0,0,0-.6-.16.437.437,0,0,0-.16.6l1.367,2.369" transform="translate(-939.608 2053.479)" fill="#fff"/>
  <path id="path12496" d="M793.393-1932.011a.436.436,0,0,0,.309.128.436.436,0,0,0,.309-.128.437.437,0,0,0,0-.619l-1.934-1.934a.437.437,0,0,0-.619,0,.438.438,0,0,0,0,.619l1.934,1.934" transform="translate(-788.843 1937.779)" fill="#fff"/>
  <path id="path12498" d="M673.96-1780.637l2.369,1.367a.436.436,0,0,0,.218.059.437.437,0,0,0,.379-.219.437.437,0,0,0-.16-.6l-2.369-1.368a.437.437,0,0,0-.6.16.438.438,0,0,0,.16.6" transform="translate(-673.148 1787.01)" fill="#fff"/>
</svg>
