<svg xmlns="http://www.w3.org/2000/svg" xmlns:xlink="http://www.w3.org/1999/xlink" width="48" height="48" viewBox="0 0 48 48">
  <defs>
    <clipPath id="clip-Manage_Mandates">
      <rect width="48" height="48"/>
    </clipPath>
  </defs>
  <g id="Manage_Mandates" data-name="Manage Mandates" clip-path="url(#clip-Manage_Mandates)">
    <g id="db6e7e2b449fafc55decaa715c08590e" transform="translate(5.641 0.503)">
      <g id="Group_500" data-name="Group 500" transform="translate(0 0)">
        <path id="Path_5109" data-name="Path 5109" d="M150.245,12.94H142.9a3.665,3.665,0,0,0-2.935-1.467h-1.87a2.92,2.92,0,0,0-5.069,0h-1.87a3.665,3.665,0,0,0-2.935,1.467h-7.347a3.677,3.677,0,0,0-3.673,3.673V53.322a3.677,3.677,0,0,0,3.673,3.673h29.372a3.677,3.677,0,0,0,3.673-3.673V16.608A3.679,3.679,0,0,0,150.245,12.94Zm-21.3,2.2a2.2,2.2,0,0,1,2.2-2.2h2.34a.73.73,0,0,0,.691-.489,1.457,1.457,0,0,1,2.753,0,.734.734,0,0,0,.691.489h2.34a2.2,2.2,0,0,1,2.2,2.2v2.2H128.949Zm23.5,38.181a2.2,2.2,0,0,1-2.2,2.2H120.873a2.2,2.2,0,0,1-2.2-2.2V16.608a2.2,2.2,0,0,1,2.2-2.2h6.685a3.73,3.73,0,0,0-.072.734v2.94a.734.734,0,0,0,.734.734h14.688a.734.734,0,0,0,.734-.734v-2.94a3.7,3.7,0,0,0-.072-.734h6.685a2.2,2.2,0,0,1,2.2,2.2V53.322Z" transform="translate(-117.2 -10)" fill="#fff"/>
        <path id="Path_5110" data-name="Path 5110" d="M208.605,132.5H204.2a.734.734,0,1,0,0,1.467h3.673v35.246h-27.9V133.967h3.673a.734.734,0,0,0,0-1.467h-4.407a.734.734,0,0,0-.734.734v36.713a.734.734,0,0,0,.734.734h29.372a.734.734,0,0,0,.734-.734V133.234A.737.737,0,0,0,208.605,132.5Z" transform="translate(-175.56 -126.626)" fill="#fff"/>
        <path id="Path_5111" data-name="Path 5111" d="M485.434,71.3a.725.725,0,0,0-.518.216.734.734,0,0,0-.216.518.726.726,0,0,0,.216.518.734.734,0,0,0,.518.216.726.726,0,0,0,.518-.216.734.734,0,0,0,.216-.518.737.737,0,0,0-.734-.734Z" transform="translate(-467.077 -68.36)" fill="#fff"/>
        <path id="Path_5112" data-name="Path 5112" d="M255.216,333.188a.735.735,0,0,0,0,1.041l2.2,2.2a.729.729,0,0,0,1.036,0l3.673-3.673a.736.736,0,1,0-1.041-1.041l-3.151,3.151-1.683-1.683A.734.734,0,0,0,255.216,333.188Z" transform="translate(-248.392 -316.083)" fill="#fff"/>
        <path id="Path_5113" data-name="Path 5113" d="M262.031,500.216a.735.735,0,0,0-1.041,0l-3.151,3.151-1.683-1.683a.736.736,0,0,0-1.041,1.04l2.2,2.2a.729.729,0,0,0,1.036,0l3.673-3.673A.725.725,0,0,0,262.031,500.216Z" transform="translate(-248.297 -476.503)" fill="#fff"/>
        <path id="Path_5114" data-name="Path 5114" d="M261.09,668.6l-3.151,3.151-1.683-1.683a.736.736,0,0,0-1.041,1.04l2.2,2.2a.729.729,0,0,0,1.036,0l3.673-3.673a.732.732,0,1,0-1.036-1.036Z" transform="translate(-248.392 -636.815)" fill="#fff"/>
        <path id="Path_5115" data-name="Path 5115" d="M454.834,363.667h12.482a.734.734,0,1,0,0-1.467H454.834a.734.734,0,1,0,0,1.467Z" transform="translate(-437.944 -345.311)" fill="#fff"/>
        <path id="Path_5116" data-name="Path 5116" d="M454.834,532.167h12.482a.734.734,0,0,0,0-1.467H454.834a.734.734,0,1,0,0,1.467Z" transform="translate(-437.944 -505.73)" fill="#fff"/>
      </g>
      <path id="Path_5118" data-name="Path 5118" d="M33.66,26.129a6.763,6.763,0,0,0-.094-.982l1.777-1.575-1.559-2.7-2.261.764a5.685,5.685,0,0,0-1.684-.982l-.468-2.323H26.255l-.468,2.323a5.685,5.685,0,0,0-1.684.982l-2.261-.764-1.559,2.7,1.777,1.575a6.762,6.762,0,0,0-.094.982,6.762,6.762,0,0,0,.094.982l-1.777,1.575,1.559,2.7,2.261-.764a5.685,5.685,0,0,0,1.684.982l.468,2.323h3.118L29.84,31.6a5.686,5.686,0,0,0,1.684-.982l2.261.764,1.559-2.7-1.777-1.575A6.762,6.762,0,0,0,33.66,26.129Zm-5.847,3.118a3.118,3.118,0,1,1,3.118-3.118A3.127,3.127,0,0,1,27.814,29.247Z" transform="translate(-4.431 8.441)" fill="#fff"/>
    </g>
  </g>
</svg>
