<svg xmlns="http://www.w3.org/2000/svg" xmlns:xlink="http://www.w3.org/1999/xlink" width="48" height="48" viewBox="0 0 48 48">
  <defs>
    <clipPath id="clip-Manage_Classes">
      <rect width="48" height="48"/>
    </clipPath>
  </defs>
  <g id="Manage_Classes" data-name="Manage Classes" clip-path="url(#clip-Manage_Classes)">
    <g id="Group_499" data-name="Group 499" transform="translate(2.701 6.567)">
      <path id="Path_5102" data-name="Path 5102" d="M17.441,18.434a5.884,5.884,0,1,0-5.884-5.884A5.882,5.882,0,0,0,17.441,18.434Zm0,2.942c-3.927,0-6.284,1.971-6.284,5.884L9.344,28.974s4.956-4.256,8.1-4.256,7.083,3.62,8.654,4.256-2.371-1.714-2.371-1.714C23.725,23.347,21.369,21.376,17.441,21.376Z" transform="translate(3.831 -6.667)" fill="#fff"/>
      <g id="Group_498" data-name="Group 498" transform="translate(0 10.911)">
        <g id="Group_494" data-name="Group 494">
          <g id="Group_488" data-name="Group 488">
            <ellipse id="Ellipse_61" data-name="Ellipse 61" cx="5.728" cy="5.637" rx="5.728" ry="5.637" transform="translate(5.728)" fill="#fff"/>
            <path id="Path_5094" data-name="Path 5094" d="M15.75,21.695c-.315-.014-.63-.028-.96-.028a18.667,18.667,0,0,0-9.466,2.565A4.1,4.1,0,0,0,3.333,27.8v3.734H16.595a9.7,9.7,0,0,1-1.8-5.637A9.833,9.833,0,0,1,15.75,21.695Z" transform="translate(-3.333 -8.984)" fill="#fff"/>
            <path id="Path_5095" data-name="Path 5095" d="M32.571,25.379a6.017,6.017,0,0,0-.086-.888l1.633-1.423L32.685,20.63l-2.077.69a5.242,5.242,0,0,0-1.547-.888l-.43-2.1H25.768l-.43,2.1a5.242,5.242,0,0,0-1.547.888l-2.077-.69-1.432,2.438,1.633,1.423a6.016,6.016,0,0,0-.086.888,6.015,6.015,0,0,0,.086.888L20.283,27.69l1.432,2.438,2.077-.69a5.242,5.242,0,0,0,1.547.888l.43,2.1h2.864l.43-2.1a5.243,5.243,0,0,0,1.547-.888l2.077.69,1.432-2.438-1.633-1.423A6.017,6.017,0,0,0,32.571,25.379ZM27.2,28.2a2.819,2.819,0,1,1,2.864-2.818A2.85,2.85,0,0,1,27.2,28.2Z" transform="translate(-5.719 -8.469)" fill="#fff"/>
          </g>
        </g>
        <g id="Group_495" data-name="Group 495" transform="translate(14.199)">
          <g id="Group_488-2" data-name="Group 488">
            <ellipse id="Ellipse_61-2" data-name="Ellipse 61" cx="5.728" cy="5.637" rx="5.728" ry="5.637" transform="translate(11.213)" fill="#fff"/>
            <path id="Path_5094-2" data-name="Path 5094" d="M4.178,21.695c.315-.014.63-.028.96-.028A18.667,18.667,0,0,1,14.6,24.231,4.1,4.1,0,0,1,16.595,27.8v3.734H3.333a9.7,9.7,0,0,0,1.8-5.637A9.833,9.833,0,0,0,4.178,21.695Z" transform="translate(11.804 -8.984)" fill="#fff"/>
            <path id="Path_5095-2" data-name="Path 5095" d="M21.83,25.379a6.017,6.017,0,0,1,.086-.888l-1.633-1.423,1.432-2.438,2.077.69a5.242,5.242,0,0,1,1.547-.888l.43-2.1h2.864l.43,2.1a5.242,5.242,0,0,1,1.547.888l2.077-.69,1.432,2.438-1.633,1.423a6.019,6.019,0,0,1,.086.888,6.019,6.019,0,0,1-.086.888l1.633,1.423-1.432,2.438-2.077-.69a5.243,5.243,0,0,1-1.547.888l-.43,2.1H25.768l-.43-2.1a5.243,5.243,0,0,1-1.547-.888l-2.077.69L20.283,27.69l1.633-1.423A6.018,6.018,0,0,1,21.83,25.379ZM27.2,28.2a2.819,2.819,0,1,0-2.864-2.818A2.85,2.85,0,0,0,27.2,28.2Z" transform="translate(-20.283 -8.469)" fill="#fff"/>
          </g>
        </g>
      </g>
    </g>
  </g>
</svg>
