<svg xmlns="http://www.w3.org/2000/svg" xmlns:xlink="http://www.w3.org/1999/xlink" width="48" height="48" viewBox="0 0 48 48">
  <defs>
    <clipPath id="clip-Roles_privileges">
      <rect width="48" height="48"/>
    </clipPath>
  </defs>
  <g id="Roles_privileges" data-name="Roles &amp; privileges" clip-path="url(#clip-Roles_privileges)">
    <path id="Path_5087" data-name="Path 5087" d="M0,0H26V26H0Z" transform="translate(0 10)" fill="none"/>
    <g id="class-file-icon" transform="translate(0.009 -4)">
      <g id="_39b222fe11cad6a40a745208ae145b39" data-name="39b222fe11cad6a40a745208ae145b39" transform="translate(0.449 4.45)">
        <path id="Path_5107" data-name="Path 5107" d="M38.482,29.742a15.765,15.765,0,0,1,6.169-1.249c.211,0,.423.01.634.01a15.9,15.9,0,0,0,.754-8.451,12.182,12.182,0,0,0-14.1-9.979C25.313,11.249,19.725,16.4,20.9,23.083a21.49,21.49,0,0,0,1.773,5.324L10.649,45.761a3.976,3.976,0,0,0-.562,2.566L10.61,51.3c-.495-2.859.139,1.028.524,1.019l3.964.053a3.712,3.712,0,0,0,2.143-1.437L22,43.493l.048-.048,4.156.332,5.554-8.711c.019,0,.038.01.053.01a16.049,16.049,0,0,1,6.674-5.333ZM13.248,47.591l-.591.25.062-.644,11.522-16.73.692.644ZM30.761,16.813a5.7,5.7,0,0,1,8-1.427,5.85,5.85,0,0,1,1.417,8.091c-1.821,2.619-3.68.774-6.28-1.067S28.94,19.441,30.761,16.813Z" transform="translate(-10.051 -9.884)" fill="#fff"/>
        <path id="Path_5108" data-name="Path 5108" d="M476.636,464.2a12.636,12.636,0,1,0,12.636,12.636A12.633,12.633,0,0,0,476.636,464.2Zm7.3,17.82c0,1.883-3.613,2.316-7.005,2.316s-7.053-.432-7.053-2.316V481.5c0-1.389,2.5-2.8,4.627-3.56.159-.053.894-.461.48-1.537a6.794,6.794,0,0,1-1.85-4.545,3.792,3.792,0,1,1,7.572,0,6.854,6.854,0,0,1-1.85,4.536h.01c-.4,1.225.24,1.518.341,1.547,2.234.735,4.747,2.133,4.747,3.56l-.019.524Z" transform="translate(-442.189 -442.372)" fill="#fff"/>
      </g>
    </g>
  </g>
</svg>
