<svg id="_8499e025467805a7a55afe9ab7429988" data-name="8499e025467805a7a55afe9ab7429988" xmlns="http://www.w3.org/2000/svg" width="17.303" height="24.791" viewBox="0 0 17.303 24.791">
  <path id="Path_180" data-name="Path 180" d="M157.9,32.667c.23-.556.475-1.105.685-1.669,2.132-5.688,4.249-11.384,7.552-16.46a9.949,9.949,0,0,1,6.973-4.492c.341-.058.784-.2,1.024-.038a2.465,2.465,0,0,1,1.062,1.219c.068.268-.511.921-.911,1.085-.822.336-1.743.392-2.585.688a6.812,6.812,0,0,0-3.776,3.222c.832,1.045,1.748,2.051,2.5,3.184a12.117,12.117,0,0,1,1.363,2.843,1.257,1.257,0,0,1-1.057,1.8c-1.6.309-3.2.642-4.965,1,.827,1.9,1.634,3.751,2.443,5.6.245.561.518,1.113.739,1.687a1.517,1.517,0,0,1-.8,2.049c-.819.448-1.434.091-1.811-.741-.991-2.19-1.963-4.393-3.065-6.872-.822,2.254-1.518,4.3-2.329,6.3-.266.653-.771,1.55-1.275,1.639-.524.091-1.174-.665-1.77-1.05Zm10.365-12.282c-.435.642-.789,1.161-1.3,1.912.885-.19,1.469-.314,2.19-.465C168.869,21.358,168.644,21,168.265,20.385Z" transform="translate(-157.9 -9.932)" fill="#0081c8"/>
  <path id="Path_181" data-name="Path 181" d="M620.162,177.224a2.048,2.048,0,0,1-2.044,2.079,1.99,1.99,0,0,1-1.935-2.041,2.045,2.045,0,0,1,1.958-2.162A2.1,2.1,0,0,1,620.162,177.224Z" transform="translate(-604.592 -170.922)" fill="#0081c8"/>
</svg>
