<svg xmlns="http://www.w3.org/2000/svg" width="329.056" height="245.948" viewBox="0 0 329.056 245.948">
  <g id="undraw_empty_re_opql" transform="translate(0 0.028)">
    <path id="Path_6996" data-name="Path 6996" d="M614.271,571.689h-6.548l-3.116-25.254h9.663Z" transform="translate(-373.995 -338.028)" fill="#9e616a"/>
    <path id="Path_6997" data-name="Path 6997" d="M770.461,743.31h-4.7l-.838-4.433-2.146,4.433H750.327a2.8,2.8,0,0,1-1.591-5.1l9.945-6.868v-4.482l10.46.624Z" transform="translate(-526.729 -498.306)" fill="#2f2e41"/>
    <path id="Path_6998" data-name="Path 6998" d="M694.909,558.116l-5.254,3.907-17.57-18.406,7.754-5.766Z" transform="translate(-415.735 -332.719)" fill="#9e616a"/>
    <path id="Path_6999" data-name="Path 6999" d="M892.138,717.725l-3.768,2.8-3.318-3.057.923,4.838-9.993,7.431a2.8,2.8,0,0,1-4.321-3.146l3.882-11.446-2.674-3.6,8.766-5.741Z" transform="translate(-603.422 -485.287)" fill="#2f2e41"/>
    <path id="Path_7000" data-name="Path 7000" d="M772.848,398.647s12.423,10.733,6.691,41.328l-7,29.979,22.82,37.859-7.276,8.852-29.667-40.978L747.669,450.47l-3.017-44.882Z" transform="translate(-524.95 -295.283)" fill="#2f2e41"/>
    <path id="Path_7001" data-name="Path 7001" d="M598.235,425.746l-.747,11.572,2.287,49.311,10.76-1.874,2.056-35.109Z" transform="translate(-369.591 -263.373)" fill="#2f2e41"/>
    <path id="Path_7002" data-name="Path 7002" d="M237.444,591.585H243.3L246.084,569h-8.641Z" transform="translate(-146.876 -351.987)" fill="#ffb6b6"/>
    <path id="Path_7003" data-name="Path 7003" d="M402.178,746.562h1.648l6.434-2.617,3.449,2.616h0a7.349,7.349,0,0,1,7.348,7.348v.239H402.178Z" transform="translate(-313.104 -508.876)" fill="#2f2e41"/>
    <path id="Path_7004" data-name="Path 7004" d="M296.932,582.812l5.711,1.289,7.692-21.416-8.429-1.9Z" transform="translate(-183.674 -346.903)" fill="#ffb6b6"/>
    <path id="Path_7005" data-name="Path 7005" d="M460.155,739.141l1.608.363,6.853-1.135,2.788,3.312h0a7.349,7.349,0,0,1,5.549,8.786l-.053.233-18.416-4.158Z" transform="translate(-347.933 -505.426)" fill="#2f2e41"/>
    <path id="Path_7006" data-name="Path 7006" d="M383.6,393.843c-2.745,8.279-2.455,17.266.66,26.912l1.332,54.307s-1.984,35.613,4.417,48.145h9.284l4.6-51.4.577-34.5,19.9,29.1-12.677,55.951,11.426,1.021,20.572-60.719L418.31,403.76Z" transform="translate(-300.448 -292.311)" fill="#2f2e41"/>
    <path id="Path_7007" data-name="Path 7007" d="M644.576,319.817c7.1-6.4,17.663-9.617,26.523-6.028a44.042,44.042,0,0,0-19.791,22.861c-1.41,3.753-2.589,8.073-6.058,10.082a9.845,9.845,0,0,1-7.264.708,29.241,29.241,0,0,1-6.827-3.011l-.622-.014C633.331,335.273,637.475,326.215,644.576,319.817Z" transform="translate(-454.36 -241.868)" fill="#e6e6e6"/>
    <path id="Path_7008" data-name="Path 7008" d="M671.211,316.033a37.643,37.643,0,0,0-20.942,9.891,16.211,16.211,0,0,0-3.183,3.958,9.3,9.3,0,0,0-1.075,4.774,19.247,19.247,0,0,1-.082,4.657,5.693,5.693,0,0,1-2.832,3.7,14.792,14.792,0,0,1-5.678,1.551c-2.171.266-4.43.508-6.31,1.726-.228.148-.443-.214-.216-.362,3.27-2.119,7.407-1.348,10.923-2.762a5.765,5.765,0,0,0,3.606-3.569,14.929,14.929,0,0,0,.173-4.727,9.922,9.922,0,0,1,.877-4.707,14.988,14.988,0,0,1,3.019-4.066,36.524,36.524,0,0,1,9.281-6.644,38.312,38.312,0,0,1,12.434-3.836c.268-.035.27.387,0,.421Z" transform="translate(-454.522 -243.918)" fill="#fff"/>
    <path id="Path_7009" data-name="Path 7009" d="M684.748,325.873a5.648,5.648,0,0,1,.623-7.287c.193-.19.5.1.3.291a5.23,5.23,0,0,0-.565,6.779C685.268,325.877,684.9,326.092,684.748,325.873Z" transform="translate(-487.246 -245.721)" fill="#fff"/>
    <path id="Path_7010" data-name="Path 7010" d="M669.942,360.909a10.886,10.886,0,0,0,7.779-1.558c.228-.147.444.215.216.362a11.323,11.323,0,0,1-8.1,1.6c-.267-.048-.163-.456.1-.409Z" transform="translate(-478.576 -270.955)" fill="#fff"/>
    <path id="Path_7011" data-name="Path 7011" d="M713.816,321.782a3.2,3.2,0,0,0,2.391,1.867c.268.045.163.453-.1.408a3.582,3.582,0,0,1-2.65-2.059.218.218,0,0,1,.073-.289.212.212,0,0,1,.289.073Z" transform="translate(-505.634 -247.673)" fill="#fff"/>
    <path id="Path_7012" data-name="Path 7012" d="M680.035,378.841c-.168-.023-.336-.046-.506-.067a42.1,42.1,0,0,0-6.821-.346c-.176,0-.355.008-.531.015a44.385,44.385,0,0,0-15.925,3.666,43.1,43.1,0,0,0-5.783,3.073c-2.551,1.615-5.188,3.569-8.04,4.228a7.4,7.4,0,0,1-.9.161l-11.782-10.2c-.015-.037-.033-.071-.048-.107l-.489-.386c.091-.067.187-.134.278-.2.053-.039.108-.076.161-.115.036-.025.072-.051.1-.075l.034-.023c.031-.025.062-.045.091-.067q.8-.568,1.615-1.127s0,0,.007,0a63.377,63.377,0,0,1,13.2-7.094c.14-.053.282-.109.427-.157a41.13,41.13,0,0,1,6.461-1.818,36.358,36.358,0,0,1,3.644-.509,30.236,30.236,0,0,1,9.43.668c6.157,1.428,11.79,4.809,15.126,10.082C679.87,378.571,679.952,378.7,680.035,378.841Z" transform="translate(-453.54 -276.062)" fill="#e6e6e6"/>
    <path id="Path_7013" data-name="Path 7013" d="M680.294,388.749a37.644,37.644,0,0,0-22.676-4.712,16.212,16.212,0,0,0-4.924,1.244,9.3,9.3,0,0,0-3.732,3.165,19.248,19.248,0,0,1-2.869,3.669,5.693,5.693,0,0,1-4.486,1.246,14.789,14.789,0,0,1-5.467-2.18c-1.894-1.095-3.843-2.262-6.077-2.421-.271-.019-.225-.438.045-.419,3.886.277,6.726,3.383,10.384,4.371a5.765,5.765,0,0,0,5.028-.679,14.932,14.932,0,0,0,2.984-3.67,9.922,9.922,0,0,1,3.534-3.23A14.988,14.988,0,0,1,656.9,383.7a36.523,36.523,0,0,1,11.411.283,38.311,38.311,0,0,1,12.238,4.423c.235.134-.017.472-.251.339Z" transform="translate(-453.954 -285.843)" fill="#fff"/>
    <path id="Path_7014" data-name="Path 7014" d="M709.2,375.152a5.648,5.648,0,0,1,4.884-5.443c.269-.036.337.38.068.416a5.23,5.23,0,0,0-4.533,5.073C709.612,375.468,709.193,375.422,709.2,375.152Z" transform="translate(-503.019 -277.381)" fill="#fff"/>
    <path id="Path_7015" data-name="Path 7015" d="M680.263,394.7a10.885,10.885,0,0,0,7.149,3.44c.271.02.225.439-.045.419a11.322,11.322,0,0,1-7.431-3.594C679.75,394.77,680.079,394.506,680.263,394.7Z" transform="translate(-484.883 -292.801)" fill="#fff"/>
    <path id="Path_7016" data-name="Path 7016" d="M740.27,387.814a3.2,3.2,0,0,0,.785,2.93c.187.2-.143.46-.328.264a3.582,3.582,0,0,1-.876-3.24.218.218,0,0,1,.232-.187A.212.212,0,0,1,740.27,387.814Z" transform="translate(-521.925 -288.438)" fill="#fff"/>
    <path id="Path_7017" data-name="Path 7017" d="M188.206,687.325a9.4,9.4,0,0,1-3.761,5.062c-.286.206-.58.4-.877.576-.092.053-.183.111-.278.16s-.206.118-.309.172h-8.25c-.149-.3-.294-.607-.439-.908-3.536-7.43-6.019-15.448-5.6-23.614a30.229,30.229,0,0,1,1.972-9.25c2.266-5.9,6.4-11.008,12.087-13.579.141-.065.29-.13.435-.191-.046.164-.092.324-.137.488a42.254,42.254,0,0,0-1.289,6.709c-.023.176-.042.351-.057.53a44.265,44.265,0,0,0,1.419,16.283c0,.011.008.027.011.038q.486,1.756,1.129,3.459c.336.9.7,1.781,1.095,2.651C187.016,679.563,189.236,683.453,188.206,687.325Z" transform="translate(-168.648 -448.136)" fill="#e6e6e6"/>
    <path id="Path_7018" data-name="Path 7018" d="M193.662,645.607c-.08.107-.16.21-.24.317a37.428,37.428,0,0,0-4.241,7.156c-.061.126-.118.252-.168.381a37.309,37.309,0,0,0-2.983,11.153.569.569,0,0,0-.008.08c-.1.9-.153,1.808-.175,2.716a16.2,16.2,0,0,0,.545,5.05,9.066,9.066,0,0,0,2.083,3.593c.1.1.191.206.294.305.076.08.16.16.24.236.771.736,1.613,1.419,2.338,2.208a8.175,8.175,0,0,1,.9,1.144,5.685,5.685,0,0,1,.61,4.615,14.761,14.761,0,0,1-2.918,5.111c-.606.778-1.232,1.564-1.774,2.4-.2.3-.381.6-.549.908h-.481c.16-.309.336-.61.526-.908,1.392-2.193,3.372-4.077,4.4-6.492a5.754,5.754,0,0,0,.027-5.073,6.74,6.74,0,0,0-.927-1.289c-.7-.79-1.533-1.465-2.292-2.178-.191-.179-.378-.362-.557-.553a9.522,9.522,0,0,1-2.151-3.395,14.963,14.963,0,0,1-.74-5.008c0-1.083.057-2.174.164-3.257.011-.137.027-.278.042-.42a38.435,38.435,0,0,1,7.5-18.778c.076-.107.156-.21.236-.313C193.525,645.1,193.826,645.4,193.662,645.607Z" transform="translate(-179.017 -447.819)" fill="#fff"/>
    <path id="Path_7019" data-name="Path 7019" d="M178.723,687.271a5.648,5.648,0,0,1-4.712-5.593.211.211,0,0,1,.421-.009,5.23,5.23,0,0,0,4.394,5.193c.268.044.163.452-.1.408Z" transform="translate(-171.965 -470.23)" fill="#fff"/>
    <path id="Path_7020" data-name="Path 7020" d="M193.013,715.267a10.886,10.886,0,0,0,4.4-6.6c.058-.265.466-.162.409.1a11.323,11.323,0,0,1-4.592,6.86c-.223.155-.438-.208-.216-.362Z" transform="translate(-183.661 -486.957)" fill="#fff"/>
    <path id="Path_7021" data-name="Path 7021" d="M194.538,665.012a3.2,3.2,0,0,0,3.011-.371c.221-.158.436.205.216.362a3.582,3.582,0,0,1-3.33.417.218.218,0,0,1-.153-.256.212.212,0,0,1,.256-.153Z" transform="translate(-184.501 -459.796)" fill="#fff"/>
    <path id="Path_7022" data-name="Path 7022" d="M224.782,683.9c-.133.1-.271.206-.4.313a42.1,42.1,0,0,0-5.069,4.577c-.122.126-.244.256-.362.385l0,0a44.379,44.379,0,0,0-8.643,13.785l-.011.034c0,.011-.008.019-.011.03a43.651,43.651,0,0,0-1.919,6.263,51.7,51.7,0,0,1-1.575,6.32c-.111.309-.233.614-.362.908H189.462c.057-.3.118-.606.179-.908a61.143,61.143,0,0,1,4.02-12.854c.061-.137.122-.275.191-.412a41.314,41.314,0,0,1,3.284-5.855,0,0,0,0,1,0,0h0a36.2,36.2,0,0,1,2.212-2.933,30.177,30.177,0,0,1,7.14-6.194c.015-.011.034-.019.05-.031,5.355-3.322,11.7-4.905,17.771-3.536h0C224.473,683.828,224.626,683.863,224.782,683.9Z" transform="translate(-181.523 -471.363)" fill="#e6e6e6"/>
    <path id="Path_7023" data-name="Path 7023" d="M234.654,684.71c-.13.034-.259.072-.385.111a37.6,37.6,0,0,0-7.693,3.154c-.122.065-.244.133-.366.2a37.477,37.477,0,0,0-9.074,7.091.013.013,0,0,0,0,.008c-.031.031-.065.065-.092.1-.61.656-1.2,1.339-1.755,2.041a16.313,16.313,0,0,0-2.6,4.36,9.03,9.03,0,0,0-.5,4.123c.011.141.031.278.05.42.015.111.031.221.05.336a19.363,19.363,0,0,1,.564,4.623,5.687,5.687,0,0,1-2.292,4.055,9.079,9.079,0,0,1-1.4.893,14.064,14.064,0,0,1-2.2.908h-1.5l.6-.172a18.386,18.386,0,0,0,2.109-.736,10.27,10.27,0,0,0,1.144-.565,5.774,5.774,0,0,0,3.078-4.036,14.978,14.978,0,0,0-.484-4.7c-.046-.267-.088-.53-.111-.793a9.321,9.321,0,0,1,.324-3.99,14.9,14.9,0,0,1,2.426-4.447,31.775,31.775,0,0,1,2.09-2.5q.137-.155.286-.309a38.486,38.486,0,0,1,9.234-7.144h0A37.874,37.874,0,0,1,234.2,684.4h0c.126-.038.256-.076.381-.111C234.852,684.222,234.913,684.638,234.654,684.71Z" transform="translate(-191.414 -471.97)" fill="#fff"/>
    <path id="Path_7024" data-name="Path 7024" d="M232.606,701.274a5.648,5.648,0,0,1-.4-7.3c.165-.215.507.031.342.246a5.23,5.23,0,0,0,.382,6.792c.187.2-.142.459-.328.264Z" transform="translate(-207.254 -477.912)" fill="#fff"/>
    <path id="Path_7025" data-name="Path 7025" d="M222.387,736.6a10.886,10.886,0,0,0,7.487-2.623c.206-.177.47.151.264.328a11.323,11.323,0,0,1-7.8,2.713c-.271-.011-.225-.429.045-.419Z" transform="translate(-201.749 -502.679)" fill="#fff"/>
    <path id="Path_7026" data-name="Path 7026" d="M260.041,693.547a3.2,3.2,0,0,0,2.627,1.517c.271.007.224.426-.045.419a3.582,3.582,0,0,1-2.91-1.672.218.218,0,0,1,.032-.3A.212.212,0,0,1,260.041,693.547Z" transform="translate(-224.951 -477.652)" fill="#fff"/>
    <path id="Path_7027" data-name="Path 7027" d="M590.659,289.12a4.424,4.424,0,0,1-6.777.319l-14.418,6.271,1.4-8.049,13.476-4.721a4.448,4.448,0,0,1,6.314,6.179Z" transform="translate(-416.583 -223.101)" fill="#ffb8b8"/>
    <path id="Path_7028" data-name="Path 7028" d="M472.533,271l-33.488,14.917-.072-.026-38.168-13.6a12.572,12.572,0,0,1-5.638-16.308h0a12.558,12.558,0,0,1,17.922-5.583l28.4,17.11,27.543-3.57Z" transform="translate(-308.078 -202.464)" fill="#e6e6e6"/>
    <path id="Path_7029" data-name="Path 7029" d="M497.724,770.467a.452.452,0,0,1-.454.454H169.134a.454.454,0,1,1,0-.908H497.27a.453.453,0,0,1,.454.454Z" transform="translate(-168.668 -525.001)" fill="#ccc"/>
    <path id="Path_7030" data-name="Path 7030" d="M419.982,300.028l-33.758-5.4a6.443,6.443,0,0,1-3.8-9.019l1.531-3.062-.595-32.172a23.832,23.832,0,0,1,11.571-20.846l3.292-1.968,1.664-4.225,15.341.374.045,5.541,5.494,8.761v.036l-.345,47.684-1.514,4.921,2.289,5.724Z" transform="translate(-300.465 -186.839)" fill="#e6e6e6"/>
    <circle id="Ellipse_278" data-name="Ellipse 278" cx="13.939" cy="13.939" r="13.939" transform="translate(94.561 3.364)" fill="#ffb8b8"/>
    <path id="Path_7031" data-name="Path 7031" d="M414.657,147.949a18.44,18.44,0,0,1,.01-5.98,16.738,16.738,0,0,1,7.084-11.622,5.1,5.1,0,0,1,2.542-1.01,2.194,2.194,0,0,1,2.206,1.335,4.574,4.574,0,0,1,2.581-2.559,8.062,8.062,0,0,1,3.673-.495,13.425,13.425,0,0,1,11.2,8.006c.372.884,1.412-2.382,1.884-1.547a3.715,3.715,0,0,0,2.107,1.851c.924.258,1.3,4.066,1.663,3.178a4.233,4.233,0,0,1-4.047,5.9,23.314,23.314,0,0,1-2.77-.53,6.906,6.906,0,0,0-7.561,5.169,9.151,9.151,0,0,0-1.2-2.678,3.1,3.1,0,0,0-2.484-1.365,3.479,3.479,0,0,0-2.391,1.374c-.614.721-1.075,1.561-1.693,2.278-1.814,2.1-4.267,7.007-6.852,6.649C418.567,155.623,415.225,150.34,414.657,147.949Z" transform="translate(-320.672 -127.607)" fill="#2f2e41"/>
    <path id="Path_7032" data-name="Path 7032" d="M555.974,316.787a2.721,2.721,0,0,0-1.834-3l-37.537-12.5a2.72,2.72,0,0,0-1.119-.128l-9.409.89-5.4.512-9.962.941a2.729,2.729,0,0,0-2.435,2.285l-5.058,31.6a2.741,2.741,0,0,0,1.71,2.974L522.861,355a2.65,2.65,0,0,0,.552.148,2.722,2.722,0,0,0,.83.006l24.509-3.632a2.716,2.716,0,0,0,2.3-2.288Z" transform="translate(-363.215 -234.973)" fill="#fff"/>
    <path id="Path_7033" data-name="Path 7033" d="M489.66,342l37.929,14.64a.342.342,0,0,0,.174.02l24.505-3.632a.337.337,0,0,0,.288-.287l4.928-32.447a.345.345,0,0,0-.229-.374l-.252-.085-37.287-12.414a.259.259,0,0,0-.052-.013.335.335,0,0,0-.088,0l-22.948,2.172-1.821.171a.345.345,0,0,0-.3.285l-5.057,31.6a.342.342,0,0,0,.213.373Z" transform="translate(-367.083 -238.844)" fill="#19a617"/>
    <path id="Path_7034" data-name="Path 7034" d="M508.282,309.579l22.948-2.172a.337.337,0,0,1,.088,0,.262.262,0,0,1,.052.013l37.287,12.414-9.836,1.041-3.681.388-10.474,1.107a.738.738,0,0,1-.092,0l-.06-.017Z" transform="translate(-378.737 -238.844)" fill="#2f2e41"/>
    <path id="Path_7035" data-name="Path 7035" d="M484.929,340.36,522.858,355a2.561,2.561,0,0,0,.553.145,2.755,2.755,0,0,0,.831.01l24.505-3.632a2.722,2.722,0,0,0,2.3-2.29l4.924-32.447a2.744,2.744,0,0,0-.16-1.418c-.025-.06-.05-.12-.079-.176a2.667,2.667,0,0,0-.863-1.029,2.723,2.723,0,0,0-.731-.373l-.045-.016L516.6,301.288a3.417,3.417,0,0,0-.468-.114,2.7,2.7,0,0,0-.654-.013l-9.407.887-5.4.515-9.964.941a2.7,2.7,0,0,0-1.151.38.51.51,0,0,0-.077.046.452.452,0,0,0-.05.037,2.726,2.726,0,0,0-1.154,1.817l-5.061,31.6A2.744,2.744,0,0,0,484.929,340.36ZM488.95,305.9a2.021,2.021,0,0,1,.484-1.019,1.772,1.772,0,0,1,.258-.251,2.028,2.028,0,0,1,.886-.413,1.55,1.55,0,0,1,.194-.027l16.777-1.585,8-.761c.054-.006.1-.005.154-.008a1.908,1.908,0,0,1,.361.027,1.579,1.579,0,0,1,.322.077l37.535,12.5.085.031a2.044,2.044,0,0,1,1.294,2.212l-4.928,32.45a2.04,2.04,0,0,1-1.72,1.717l-24.509,3.632a2.064,2.064,0,0,1-1.039-.118l-37.929-14.636a2.061,2.061,0,0,1-1.281-2.23Z" transform="translate(-363.212 -234.972)" fill="#3f3d56"/>
    <path id="Path_7036" data-name="Path 7036" d="M499.322,308.626a.334.334,0,0,1,.1-.147.405.405,0,0,1,.049-.034c.016-.006.032-.016.048-.022a.333.333,0,0,1,.238,0l.789.278L539.117,322.3l9.026-.954,5.051-.533,10.691-1.132.956-.1.186-.021a.345.345,0,0,1,.363.249.285.285,0,0,1,.01.055.341.341,0,0,1-.21.352.377.377,0,0,1-.094.025l-1.3.136-10.528,1.113-3.681.388-10.474,1.107a.739.739,0,0,1-.092,0l-.06-.017-39.3-13.859-.133-.047a.255.255,0,0,1-.084-.046A.347.347,0,0,1,499.322,308.626Z" transform="translate(-373.183 -239.457)" fill="#3f3d56"/>
    <path id="Path_7037" data-name="Path 7037" d="M588.453,382.286a.341.341,0,0,1-.283-.387l5.537-36.744a.341.341,0,0,1,.388-.286h0a.341.341,0,0,1,.283.387L588.844,382a.341.341,0,0,1-.388.286Z" transform="translate(-428.151 -262.014)" fill="#3f3d56"/>
    <path id="Path_7038" data-name="Path 7038" d="M619.744,377.4l-3.683.389,4.308-36.439s4.918-.891,5.05-.533C625.5,341.025,619.779,377.162,619.744,377.4Z" transform="translate(-445.406 -259.455)" fill="#3f3d56"/>
    <path id="Path_7039" data-name="Path 7039" d="M331.089,182.533l-.1,16.618,29.418,11.209,10.564-14.191Z" transform="translate(-204.742 -112.928)" fill="#3f3d56"/>
    <path id="Path_7040" data-name="Path 7040" d="M607.6,304.68a2.021,2.021,0,0,0-.952-.662l-37.534-12.5a1.943,1.943,0,0,0-.323-.079,1.908,1.908,0,0,0-.363-.027l.061-.38.376-.272,8.913-6.453,29.767,9.123.052,10.318Z" transform="translate(-415.943 -224.553)" fill="#3f3d56"/>
    <path id="Path_7041" data-name="Path 7041" d="M502.813,380.076a.578.578,0,0,1,.124.026l11.517,3.783a.572.572,0,1,1-.357,1.087l-11.517-3.783a.572.572,0,0,1,.232-1.113Z" transform="translate(-374.967 -283.794)" fill="#fff"/>
    <circle id="Ellipse_279" data-name="Ellipse 279" cx="4.577" cy="4.577" r="4.577" transform="translate(169.736 156.838)" fill="#f2f2f2"/>
    <circle id="Ellipse_280" data-name="Ellipse 280" cx="4.577" cy="4.577" r="4.577" transform="translate(53.019 173.621)" fill="#f2f2f2"/>
    <circle id="Ellipse_281" data-name="Ellipse 281" cx="4.577" cy="4.577" r="4.577" transform="translate(148.376 22.195)" fill="#f2f2f2"/>
    <path id="Path_7042" data-name="Path 7042" d="M554.131,379.971a4.424,4.424,0,0,1-6.067-3.035l-15.643-1.58,5.161-6.334,14.064,2.472a4.448,4.448,0,0,1,2.486,8.478Z" transform="translate(-393.669 -276.957)" fill="#ffb8b8"/>
    <path id="Path_7043" data-name="Path 7043" d="M458.307,304.571,421.8,301.208l-.05-.057-26.643-30.528a12.572,12.572,0,0,1,3.056-16.982h0a12.558,12.558,0,0,1,18.363,3.894l16.41,28.815L458.709,296.7Z" transform="translate(-307.466 -204.07)" fill="#e6e6e6"/>
    <path id="Path_7044" data-name="Path 7044" d="M748.238,199.374c-.907-6.65-2.044-13.789-6.734-18.589a15.772,15.772,0,0,0-22.788.236c-3.414,3.642-4.922,8.756-5.06,13.746s.973,9.925,2.206,14.762a45.5,45.5,0,0,0,18.99-3.738A30.6,30.6,0,0,1,739.406,204c1.582-.4,2.71.611,4.182,1.317l.808-1.547c.661,1.231,2.709.866,3.452-.317A6.105,6.105,0,0,0,748.238,199.374Z" transform="translate(-505.77 -157.581)" fill="#2f2e41"/>
    <path id="Path_7045" data-name="Path 7045" d="M680.55,312.958l-26.653.57a4.216,4.216,0,1,0-1.884,5.94c3.535.2,31.19,4.126,32.84,1.6,1.675-2.567,10.613-11.628,10.613-11.628l-6.871-9.781Z" transform="translate(-463.945 -234.049)" fill="#9e616a"/>
    <circle id="Ellipse_282" data-name="Ellipse 282" cx="12.522" cy="12.522" r="12.522" transform="translate(210.578 23.328)" fill="#9e616a"/>
    <path id="Path_7046" data-name="Path 7046" d="M599.361,299.184" transform="translate(-435.076 -233.758)" fill="#6c63ff"/>
    <path id="Path_7047" data-name="Path 7047" d="M757.16,272.284c-1.476-2.937-2.193-6.565-5.339-7.517-2.124-.643-10.717.321-12.653,1.406-3.221,1.805-.3,5.188-2.2,8.354-2.066,3.441-7.679,10.348-9.744,13.789-1.42,2.366,3.363,9.31,2.6,11.961a10.8,10.8,0,0,0,.5,8.055c1.171,2.175-.523,4.1.654,6.27,1.224,2.258,2.727,10.7,1.587,13l-.763,2.289c7.57.445,13.935-8.6,21.458-9.552a11.659,11.659,0,0,0,5.349-1.63c2.268-1.6,3.165-4.5,3.725-7.214A60.771,60.771,0,0,0,757.16,272.284Z" transform="translate(-524.247 -205.17)" fill="#3f3d56"/>
    <path id="Path_7048" data-name="Path 7048" d="M787.554,340.469c-1.054-2.878-2.963-15.462-2.963-15.462l-11.948-.35,5.841,14.407-15.94,22.314.083.136a4.216,4.216,0,1,0,3.536,4.48.291.291,0,0,0,.365-.063C768.3,363.706,788.608,343.347,787.554,340.469Z" transform="translate(-533.048 -249.514)" fill="#9e616a"/>
    <path id="Path_7049" data-name="Path 7049" d="M803.987,300.96a85.737,85.737,0,0,0-4.05-13.665,28.709,28.709,0,0,0-8.218-11.483,9.611,9.611,0,0,0-4.013-2.076,4.626,4.626,0,0,0-4.221,1.137c-1.677,1.764-1.172,4.594-.557,6.949l5.44,20.827,15.71-1.665Z" transform="translate(-548.266 -217.953)" fill="#3f3d56"/>
    <path id="Path_7050" data-name="Path 7050" d="M739.789,197.192a43.447,43.447,0,0,0-2.026-8.936,14.442,14.442,0,0,0-5.335-7.14c-3.966-2.558-9.1-2.065-13.548-.593a20.554,20.554,0,0,0-9.221,5.649,11.917,11.917,0,0,0-2.885,10.385L721,193.194l-.519.367a11.457,11.457,0,0,1,6.115,7.969,11.871,11.871,0,0,1-2.5,9.859l9.705-3.443c2-.708,4.134-1.525,5.318-3.341C740.491,202.5,740.172,199.706,739.789,197.192Z" transform="translate(-501.346 -159.605)" fill="#2f2e41"/>
  </g>
</svg>
