<svg id="activity-assessment" xmlns="http://www.w3.org/2000/svg" width="32.021" height="34.566" viewBox="0 0 32.021 34.566">
  <path id="Path_5025" data-name="Path 5025" d="M245.3,495.622H231.531c-.515,0-.931-.312-.931-.693s.416-.693.931-.693h13.775c.515,0,.931.312.931.693S245.817,495.622,245.3,495.622Zm4.746,9.588a1.8,1.8,0,0,1-1.061-.342l-3.49-2.512a1.812,1.812,0,0,1-.411-2.533l7.1-9.869a1.826,1.826,0,0,1,1.477-.754,1.8,1.8,0,0,1,1.061.342l3.49,2.512a1.812,1.812,0,0,1,.411,2.533l-7.1,9.869A1.826,1.826,0,0,1,250.048,505.21Zm3.616-14.624a.433.433,0,0,0-.351.178l-7.1,9.869a.431.431,0,0,0,.1.6l3.49,2.512a.447.447,0,0,0,.251.082.433.433,0,0,0,.351-.178l7.1-9.869a.431.431,0,0,0-.1-.6l-3.49-2.516A.446.446,0,0,0,253.664,490.586Z" transform="translate(-226.949 -473.333)" fill="#282828"/>
  <path id="Path_5026" data-name="Path 5026" d="M245.095,349.761a.677.677,0,0,1-.4-.13.694.694,0,0,1-.286-.632l.6-6.089a.7.7,0,0,1,.4-.563.679.679,0,0,1,.689.069l4.976,3.564a.694.694,0,0,1-.117,1.2l-5.573,2.529A.818.818,0,0,1,245.095,349.761Zm1.169-5.521-.364,3.7,3.386-1.537Zm10.311-5.469a.7.7,0,0,1-.4-.13l-4.655-3.347a.692.692,0,0,1,.81-1.122l4.655,3.347a.689.689,0,0,1,.156.966A.7.7,0,0,1,256.575,338.77Zm-24.883-6.141a.714.714,0,0,1-.45-.165.7.7,0,0,1-.078-.979l4.807-5.651a.692.692,0,0,1,.481-.242.68.68,0,0,1,.507.173l5.478,4.876,6.1-6.517a.692.692,0,1,1,1.013.944l-6.552,7.015a.692.692,0,0,1-.966.043l-5.461-4.854-4.348,5.11a.675.675,0,0,1-.528.247Z" transform="translate(-227.331 -315.195)" fill="#282828"/>
  <path id="Path_5027" data-name="Path 5027" d="M531.91,306.007a.7.7,0,0,1-.693-.693v-4.829h-4.824a.693.693,0,1,1,0-1.386h6.214v6.214A.7.7,0,0,1,531.91,306.007Z" transform="translate(-509.27 -291.465)" fill="#282828"/>
  <path id="Path_5028" data-name="Path 5028" d="M158.8,154.707H148.431a.745.745,0,0,1-.745-.745V124.931a.745.745,0,0,1,.745-.745h23.056a.745.745,0,0,1,.745.745v10.25a.693.693,0,1,0,1.386,0v-10.25a2.129,2.129,0,0,0-2.131-2.131H148.431a2.129,2.129,0,0,0-2.131,2.131v29.032a2.129,2.129,0,0,0,2.131,2.131H158.8a.693.693,0,1,0,0-1.386Z" transform="translate(-146.3 -122.8)" fill="#282828"/>
</svg>
