<svg id="Layer_2" data-name="Layer 2" xmlns="http://www.w3.org/2000/svg" width="40.327" height="34.566" viewBox="0 0 40.327 34.566">
  <path id="Path_5029" data-name="Path 5029" d="M3.44,6a1.44,1.44,0,0,1,1.44,1.44V36.245a1.442,1.442,0,0,0,1.44,1.44H40.887a1.44,1.44,0,1,1,0,2.881H6.321A4.326,4.326,0,0,1,2,36.245V7.44A1.44,1.44,0,0,1,3.44,6Z" transform="translate(-2 -6)" fill="#282828"/>
  <path id="Path_5030" data-name="Path 5030" d="M3.44,31.983a1.439,1.439,0,0,0,1.122-.537l9.224-11.453,7.533,5.456a1.44,1.44,0,0,0,2.03-.347l6.57-9.518,4.716,1.707a1.44,1.44,0,1,0,.979-2.709L29.855,12.5a1.441,1.441,0,0,0-1.675.536l-6.364,9.22-7.448-5.394a1.435,1.435,0,0,0-1.966.263L2.319,29.64A1.439,1.439,0,0,0,3.44,31.983Z" transform="translate(3.761 -3.178)" fill="#282828"/>
</svg>
