<svg id="stretching-exercises" xmlns="http://www.w3.org/2000/svg" width="28.878" height="39.128" viewBox="0 0 28.878 39.128">
  <g id="Group_2969" data-name="Group 2969" transform="translate(0 0)">
    <path id="Path_5024" data-name="Path 5024" d="M34.666.009a16.979,16.979,0,0,0-13.6,8.21,65.368,65.368,0,0,0-6.735,12.812,102.528,102.528,0,0,0-6.085,14.7c-.994,2.955,3.468,4.883,4.468,1.915a116.7,116.7,0,0,1,4.344-11.152c1.647,3.686,3.321,7.361,5.118,10.977,1.393,2.807,5.584.345,4.2-2.452-1.85-3.723-3.569-7.5-5.262-11.3.022-.073.049-.145.071-.218a2,2,0,0,0,.936.04l7.775-1.458a1.969,1.969,0,0,0,1.357-2.39c-.524-2.908-2.18-4.931-4.242-6.845a6.81,6.81,0,0,0-2.46-2.877c2.3-3.713,6.047-5.728,10.927-6.158C37.965,3.593,37.135-.208,34.666.009Zm-9.44,16.528a9.049,9.049,0,0,1,1.6,2.18l-3.762.705A21.276,21.276,0,0,1,25.226,16.537Z" transform="translate(-8.102 0)" fill="#282828"/>
    <circle id="Ellipse_3" data-name="Ellipse 3" cx="3.337" cy="3.337" r="3.337" transform="translate(19.151 6.553)" fill="#282828"/>
  </g>
</svg>
