<svg xmlns="http://www.w3.org/2000/svg" width="51.146" height="62.983" viewBox="0 0 51.146 62.983">
  <path id="writing-pad-clipboard-icon" d="M12.782,5.415H19.7A6,6,0,0,1,25.531,0,5.994,5.994,0,0,1,31.35,5.351l7.009.063A.644.644,0,0,1,39,6.062v7.124a.644.644,0,0,1-.645.646H12.789a.649.649,0,0,1-.648-.646V6.062a.637.637,0,0,1,.64-.648ZM18.8,26.749a1.776,1.776,0,0,1,0-3.553H38.426a1.776,1.776,0,1,1,0,3.553Zm0,10.164a1.777,1.777,0,0,1,0-3.554H38.426a1.777,1.777,0,1,1,0,3.554Zm-5.915,6.406A1.985,1.985,0,1,1,10.9,45.3,1.983,1.983,0,0,1,12.883,43.319ZM18.8,47.08a1.777,1.777,0,0,1,0-3.554H36.125a1.777,1.777,0,1,1,0,3.554ZM12.883,33.153A1.985,1.985,0,1,1,10.9,35.138,1.984,1.984,0,0,1,12.883,33.153Zm0-10.164A1.984,1.984,0,1,1,10.9,24.973,1.983,1.983,0,0,1,12.883,22.988ZM5.734,8.148h3.29V11.5H5.734A2.383,2.383,0,0,0,3.349,13.88V57.247a2.388,2.388,0,0,0,2.384,2.386H45.41A2.369,2.369,0,0,0,47.021,59l.07-.073a2.38,2.38,0,0,0,.7-1.681V13.88A2.388,2.388,0,0,0,45.41,11.5H42.121V8.148H45.41a5.762,5.762,0,0,1,5.736,5.732V57.247a5.721,5.721,0,0,1-1.686,4.05l-.115.1a5.715,5.715,0,0,1-3.935,1.581H5.734A5.762,5.762,0,0,1,0,57.247V13.88A5.755,5.755,0,0,1,5.734,8.148ZM25.463,2.77A3.06,3.06,0,1,1,22.4,5.829a3.06,3.06,0,0,1,3.06-3.059Z" fill="#0081c8" fill-rule="evenodd"/>
</svg>
