<svg xmlns="http://www.w3.org/2000/svg" width="19.495" height="25" viewBox="0 0 19.495 25">
  <path id="page-file-icon" d="M3.474,0H12.8a.779.779,0,0,1,.624.312L19.285,6.65a.776.776,0,0,1,.206.527l0,14.349a3.466,3.466,0,0,1-1.021,2.45l0,0A3.465,3.465,0,0,1,16.021,25H3.474A3.485,3.485,0,0,1,0,21.526V3.474A3.482,3.482,0,0,1,3.474,0ZM5.711,12.413a.78.78,0,1,1,0-1.559h8.073a.78.78,0,1,1,0,1.559Zm0,3.879a.78.78,0,1,1,0-1.559h7.645a.78.78,0,1,1,0,1.559Zm0,3.879a.78.78,0,1,1,0-1.559h6.484a.78.78,0,0,1,0,1.559H5.711ZM13.245,2.4V5.05a2.147,2.147,0,0,0,.684,1.526,2.958,2.958,0,0,0,1.9.578l1.8,0L13.245,2.4Zm4.691,6.308-2.116,0a4.455,4.455,0,0,1-2.9-.949,3.655,3.655,0,0,1-1.225-2.595l-.007-.108V1.559H3.474A1.92,1.92,0,0,0,1.559,3.474V21.526A1.923,1.923,0,0,0,3.474,23.44H16.021a1.92,1.92,0,0,0,1.915-1.914V8.709Z" fill="#282828"/>
</svg>
