<?xml version="1.0" encoding="UTF-8"?>
<svg id="Layer_2" data-name="Layer 2" xmlns="http://www.w3.org/2000/svg" viewBox="0 0 644.5 644.5">
  <defs>
    <style>
      .cls-1 {
        fill: #fff;
      }

      .cls-2 {
        fill: #00a5f2;
      }

      .cls-3 {
        stroke: #fff;
        stroke-miterlimit: 10;
        stroke-width: 2px;
      }

      .cls-3, .cls-4 {
        fill: #00aeef;
      }

      .cls-5 {
        fill: #54b948;
      }

      .cls-6 {
        fill: #a70063;
      }

      .cls-7 {
        fill: #fbb034;
      }
    </style>
  </defs>
  <g id="Layer_2-2" data-name="Layer 2">
    <g>
      <path class="cls-6" d="m322.03,0c-.1,0-.2,0-.29,0-15.68.01-28.08,13.32-27.23,28.97l.14,2.56c.78,14.37,12.72,25.48,27.12,25.47.09,0,.17,0,.26,0,146.36,0,265,118.64,265,265v24.5s56.08,0,56.08,0c.61-8.09.92-16.26.92-24.5C644.03,144.16,499.87,0,322.03,0Z"/>
      <path class="cls-7" d="m644.5,322.03c0-.1,0-.2,0-.29-.01-15.68-13.32-28.08-28.97-27.23l-2.56.14c-14.37.78-25.48,12.72-25.47,27.12,0,.09,0,.17,0,.26,0,146.36-118.64,265-265,265h-24.5s0,56.08,0,56.08c8.09.61,16.26.92,24.5.92,177.84,0,322-144.16,322-322Z"/>
      <path class="cls-5" d="m322.47,644.5c.1,0,.2,0,.29,0,15.68-.01,28.08-13.32,27.23-28.97l-.14-2.56c-.78-14.37-12.72-25.48-27.12-25.47-.09,0-.17,0-.26,0-146.36,0-265-118.64-265-265v-24.5s-56.08,0-56.08,0c-.61,8.09-.92,16.26-.92,24.5,0,177.84,144.16,322,322,322Z"/>
      <path class="cls-2" d="m0,322.47c0,.1,0,.2,0,.29.01,15.68,13.32,28.08,28.97,27.23l2.56-.14c14.37-.78,25.48-12.72,25.47-27.12,0-.09,0-.17,0-.26,0-146.36,118.64-265,265-265h24.5s0-56.08,0-56.08c-8.09-.61-16.26-.92-24.5-.92C144.16.47,0,144.63,0,322.47Z"/>
      <path class="cls-6" d="m322.03,0h-.29c-15.68.01-28.08,13.32-27.23,28.97l.14,2.56c.79,14.37,12.73,25.48,27.12,25.47h.26c123.03,0,226.48,83.84,256.32,197.5h58.59C605.93,109.07,476.72,0,322.03,0Z"/>
      <path class="cls-3" d="m276,346.5l-46.94,62.62c-1.66,2.21-3.87,3.95-6.41,5.05l-55.82,24.12c-11.75,5.08-17.12,18.74-11.97,30.46h0c4.81,10.97,17.52,16.06,28.58,11.45l65.08-27.12c7.19-3,13.37-7.99,17.8-14.4l47.21-68.19-37.53-24Z"/>
      <path class="cls-3" d="m417.52,251.19l-51.99,20.31-12.6,41.7,75.61-32.42c9-3.86,12.56-14.76,7.57-23.19h0c-3.79-6.4-11.66-9.11-18.59-6.4Z"/>
      <g>
        <circle class="cls-4" cx="351.53" cy="178.5" r="41"/>
        <path class="cls-1" d="m351.53,138.5c22.09,0,40,17.91,40,40s-17.91,40-40,40-40-17.91-40-40,17.91-40,40-40m0-2c-23.16,0-42,18.84-42,42s18.84,42,42,42,42-18.84,42-42-18.84-42-42-42h0Z"/>
      </g>
      <g>
        <path class="cls-4" d="m394.51,504.5c-6.37,0-12.33-2.51-16.79-7.06s-6.84-10.57-6.7-16.94l1.39-65.33c.07-3.17-1.56-6.17-4.25-7.84l-88.77-55.18c-10.34-6.43-14.3-19.61-9.21-30.67l40.21-87.33c3.71-8.06,11.84-13.27,20.71-13.27,1.7,0,3.41.19,5.07.57l9.1,2.07c10.25,2.33,18.99,8.98,23.99,18.22,5,9.25,5.77,20.2,2.11,30.05l-24.62,66.28,51.38,32.08c11.98,7.48,19.14,20.39,19.14,34.52v77.05c0,12.55-10.21,22.76-22.76,22.76Z"/>
        <path class="cls-1" d="m331.11,221.88c1.61,0,3.23.18,4.85.55l9.1,2.07c20.91,4.76,32.85,26.85,25.38,46.95l-24.9,67.04,52.07,32.52c11.61,7.25,18.67,19.98,18.67,33.67v77.05c0,12.02-9.74,21.76-21.76,21.76-12.61,0-22.76-10.37-22.49-22.97l1.39-65.33c.08-3.53-1.72-6.85-4.72-8.71l-88.77-55.18c-9.93-6.18-13.72-18.78-8.83-29.41l40.21-87.33c3.62-7.86,11.44-12.69,19.8-12.69m0-2c-9.26,0-17.74,5.44-21.62,13.85l-40.21,87.33c-5.3,11.52-1.18,25.25,9.59,31.94l88.77,55.18c2.39,1.49,3.84,4.16,3.78,6.97l-1.39,65.33c-.14,6.64,2.34,12.91,6.99,17.66,4.65,4.75,10.86,7.36,17.5,7.36,13.1,0,23.76-10.66,23.76-23.76v-77.05c0-14.48-7.33-27.7-19.61-35.37l-50.69-31.65,24.33-65.52c3.76-10.12,2.97-21.38-2.16-30.88-5.13-9.5-14.12-16.32-24.65-18.72l-9.1-2.07c-1.74-.4-3.52-.6-5.3-.6h0Z"/>
      </g>
      <g>
        <path class="cls-4" d="m234.35,334.53c-3.08,0-6.05-.93-8.6-2.7l-.49-.34c-6.21-4.32-7.99-12.77-4.06-19.23l30.59-50.2c1.32-2.17,3.36-3.86,5.74-4.77l55.69-21.18c1.75-.67,3.59-1.01,5.45-1.01,5.75,0,10.97,3.17,13.63,8.27,1.95,3.75,2.23,8.17.78,12.13-1.45,3.96-4.53,7.16-8.43,8.76l-49.51,20.3c-1.31.54-2.4,1.46-3.14,2.66l-24.81,40.15c-2.77,4.48-7.57,7.15-12.84,7.15,0,0,0,0,0,0Z"/>
        <path class="cls-1" d="m318.69,236.1c5.22,0,10.21,2.86,12.74,7.74,3.82,7.34.51,16.37-7.14,19.5l-49.51,20.3c-1.5.61-2.76,1.69-3.61,3.06l-24.81,40.15c-2.67,4.33-7.29,6.68-11.99,6.68-2.77,0-5.57-.82-8.03-2.52l-.49-.34c-5.79-4.03-7.44-11.87-3.77-17.89l30.59-50.2c1.21-1.99,3.06-3.53,5.24-4.35l55.69-21.18c1.67-.64,3.4-.94,5.1-.94m0-2c-1.99,0-3.94.36-5.81,1.07l-55.69,21.18c-2.58.98-4.8,2.82-6.24,5.18l-30.59,50.2c-4.21,6.91-2.31,15.95,4.34,20.58l.49.34c2.71,1.89,5.88,2.88,9.17,2.88,5.62,0,10.74-2.85,13.69-7.63l24.81-40.15c.63-1.02,1.56-1.81,2.67-2.26l49.51-20.3c4.17-1.71,7.44-5.11,8.99-9.34,1.55-4.23,1.25-8.94-.83-12.94-2.83-5.44-8.39-8.81-14.52-8.81h0Z"/>
      </g>
    </g>
  </g>
</svg>