<svg xmlns="http://www.w3.org/2000/svg" width="30.935" height="40" viewBox="0 0 30.935 40">
  <path id="Path_7019" data-name="Path 7019" d="M15.454,35.293a1.3,1.3,0,1,1-1.3,1.3,1.3,1.3,0,0,1,1.3-1.3ZM7.044,21.964a.779.779,0,0,0-.068-.111c-.114-.186-.228-.371-.342-.583-.114-.228-.228-.443-.329-.641-.1-.215-.2-.443-.283-.671-.072-.2-.156-.426-.241-.7a.913.913,0,0,0-.869-.625H2.448A.538.538,0,0,1,2.22,18.6a.526.526,0,0,1-.169-.127.7.7,0,0,1-.127-.169.528.528,0,0,1-.042-.228V14.966a.8.8,0,0,1,.029-.215.745.745,0,0,1,.143-.2.4.4,0,0,1,.169-.114.538.538,0,0,1,.228-.042H4.713a.932.932,0,0,0,.911-.755c.055-.241.114-.469.169-.671.072-.228.143-.443.228-.671a6.017,6.017,0,0,1,.283-.654c.1-.228.215-.426.312-.625a.9.9,0,0,0-.156-1.081L4.7,8.16c-.013-.013-.013-.013-.029-.013a.639.639,0,0,1-.127-.169.407.407,0,0,1-.029-.2.477.477,0,0,1,.042-.215.585.585,0,0,1,.143-.2L6.874,5.2a.585.585,0,0,1,.2-.143.468.468,0,0,1,.215-.042.477.477,0,0,1,.215.042.786.786,0,0,1,.186.127H7.7L9.309,6.793a.914.914,0,0,0,1.169.1c.186-.114.371-.228.583-.342.228-.114.443-.228.641-.329.215-.1.443-.2.671-.283.2-.072.426-.156.7-.241a.913.913,0,0,0,.625-.869V2.363a.538.538,0,0,1,.042-.228,1.286,1.286,0,0,1,.114-.169.419.419,0,0,1,.169-.114.528.528,0,0,1,.228-.042h2.438a.538.538,0,0,1,.228.042.4.4,0,0,1,.169.114,1.286,1.286,0,0,1,.114.169.528.528,0,0,1,.042.228V4.827a.916.916,0,0,0,.625.869c.27.085.5.169.7.241.228.085.456.186.671.283.2.1.413.215.641.329s.4.228.583.342a.906.906,0,0,0,1.169-.1l1.608-1.608h.013a.651.651,0,0,1,.186-.127.459.459,0,0,1,.215-.042.477.477,0,0,1,.215.042.585.585,0,0,1,.2.143l2.178,2.165a.585.585,0,0,1,.143.2.459.459,0,0,1,.042.215.407.407,0,0,1-.029.2.658.658,0,0,1-.127.169c-.013,0-.013,0-.029.013l-1.764,1.78a.9.9,0,0,0-.156,1.081c.1.2.215.4.312.625a6.623,6.623,0,0,1,.283.654c.085.228.156.443.228.671.055.2.114.426.169.671a.932.932,0,0,0,.911.755h2.262a.538.538,0,0,1,.228.042.371.371,0,0,1,.169.114.8.8,0,0,1,.143.2.9.9,0,0,1,.029.215v3.105a.538.538,0,0,1-.042.228.658.658,0,0,1-.127.169.483.483,0,0,1-.169.127.538.538,0,0,1-.228.042H26.02a.916.916,0,0,0-.869.625c-.085.27-.169.5-.241.7-.085.228-.186.456-.283.671-.1.2-.215.413-.329.641s-.228.4-.342.583a.779.779,0,0,0-.068.111h2.155c.091-.182.182-.378.277-.579.114-.257.228-.511.329-.768.013-.042.042-.1.059-.143H28.53a2.469,2.469,0,0,0,.924-.169,2.4,2.4,0,0,0,.784-.527,2.24,2.24,0,0,0,.527-.784,2.543,2.543,0,0,0,.169-.924v-3.1a2.49,2.49,0,0,0-.186-.911,2.284,2.284,0,0,0-.511-.768l-.013-.013a2.334,2.334,0,0,0-.768-.527,2.256,2.256,0,0,0-.924-.186H26.98a.3.3,0,0,0-.029-.114c-.085-.27-.169-.54-.27-.8s-.215-.527-.329-.768a.936.936,0,0,1-.055-.114l1.282-1.3a2.165,2.165,0,0,0,.54-.755,2.491,2.491,0,0,0,.186-.924,2.246,2.246,0,0,0-.186-.924,2.548,2.548,0,0,0-.527-.768h-.013L25.4,3.932a2.484,2.484,0,0,0-.784-.527,2.4,2.4,0,0,0-1.849,0,2.239,2.239,0,0,0-.784.527l-1.11,1.1-.085-.042c-.228-.127-.485-.241-.755-.371-.257-.114-.511-.228-.768-.329-.042-.013-.1-.042-.143-.059V2.405a2.469,2.469,0,0,0-.169-.924A2.364,2.364,0,0,0,18.426.7a2.5,2.5,0,0,0-.784-.527A2.518,2.518,0,0,0,16.717,0h-2.5A2.531,2.531,0,0,0,13.3.169,2.58,2.58,0,0,0,12.512.7a2.364,2.364,0,0,0-.527.784,2.482,2.482,0,0,0-.169.924V4.228c-.042.013-.1.042-.143.059-.257.1-.511.215-.768.329s-.527.241-.755.371l-.085.042-1.11-1.1A2.239,2.239,0,0,0,8.17,3.4a2.356,2.356,0,0,0-.924-.186,2.246,2.246,0,0,0-.924.186,2.431,2.431,0,0,0-.784.527L3.359,6.1H3.346a2.609,2.609,0,0,0-.527.768,2.284,2.284,0,0,0-.186.921,2.478,2.478,0,0,0,.186.924,2.195,2.195,0,0,0,.54.755l1.282,1.3a.936.936,0,0,1-.055.114c-.114.241-.215.5-.329.768s-.186.527-.27.8a.368.368,0,0,0-.029.114H2.405a2.245,2.245,0,0,0-.924.186,2.334,2.334,0,0,0-.768.527L.7,13.28a2.284,2.284,0,0,0-.511.768A2.445,2.445,0,0,0,0,14.963v3.1a2.531,2.531,0,0,0,.169.924,2.239,2.239,0,0,0,.527.784,2.364,2.364,0,0,0,.784.527,2.482,2.482,0,0,0,.924.169H4.228c.013.042.042.1.059.143.1.257.215.511.329.768.1.205.186.4.277.579H7.044Zm3.525-2.881a1.16,1.16,0,0,0-.618.163.481.481,0,0,0-.176.205.734.734,0,0,0-.059.329A2.926,2.926,0,0,0,10.3,21.2l.007.007,1.224,1.95a10.321,10.321,0,0,0,1.647,2.161,3.365,3.365,0,0,0,2.35.947,3.47,3.47,0,0,0,2.487-.986,10.75,10.75,0,0,0,1.693-2.311l1.38-2.272a2.215,2.215,0,0,0,.293-1.211c-.036-.137-.186-.205-.446-.218-.055,0-.111,0-.169,0s-.127.007-.192.013a.4.4,0,0,1-.107-.007,2.113,2.113,0,0,1-.378-.02l.472-2.093c-3.506.553-6.129-2.051-9.836-.521l.267,2.464a2.507,2.507,0,0,1-.42-.02ZM21.4,18.644a.9.9,0,0,1,.648.667,2.78,2.78,0,0,1-.335,1.673h0l-.02.039-1.4,2.3a11.382,11.382,0,0,1-1.813,2.457l-.036.033c.068.1.146.212.225.329.241.355.518.762.775,1.077,1.517.944,4.853,1.2,6.158,1.924,3.32,1.852,2.109,6.35,2.35,9.586A1.3,1.3,0,0,1,26.6,40h-.921l1.012-7.672a.922.922,0,0,0-.869-1.087H18.706c.176-1.253.3-2.451.365-3.356a13.335,13.335,0,0,1-.993-1.338c-.068-.1-.133-.2-.2-.283a4.078,4.078,0,0,1-2.357.693,3.979,3.979,0,0,1-2.581-.924,7.977,7.977,0,0,1-.749,1.751.348.348,0,0,1-.085.085c.117.934.28,2.132.472,3.375H5.293a.924.924,0,0,0-.869,1.087L5.436,40H4.511a1.3,1.3,0,0,1-1.357-1.269C3.2,35.3,1.894,31.156,5.5,29.145c1.322-.739,4.729-.99,6.217-1.963a12.961,12.961,0,0,0,.631-1.65c.016-.052-.01.033.016-.042a12.9,12.9,0,0,1-1.422-1.963L9.723,21.58a3.568,3.568,0,0,1-.7-1.78,1.406,1.406,0,0,1,.12-.638,1.187,1.187,0,0,1,.42-.488,1.585,1.585,0,0,1,.3-.153,31.216,31.216,0,0,1-.059-3.5,4.87,4.87,0,0,1,.15-.794,5.142,5.142,0,0,1,3.4-3.3c.762-.264.469-.892,1.24-.85A9.924,9.924,0,0,1,20.324,12.6c1.523,1.748,1.129,3.9,1.081,6.041ZM13.033,29.356a1.512,1.512,0,0,1,0-2.217,6.556,6.556,0,0,1,2.138.983.976.976,0,0,1,.465-.075,15.035,15.035,0,0,1,2.3-1.038,1.446,1.446,0,0,1-.081,2.444,6.108,6.108,0,0,1-1.422-.521,1.428,1.428,0,0,1-.1.381l.231,1.924H14.725l.231-1.924a1.21,1.21,0,0,1-.2-.625,5.791,5.791,0,0,1-1.728.667Z" fill="#282828" fill-rule="evenodd"/>
</svg>
