<svg id="administrator-developer-icon_1_" data-name="administrator-developer-icon (1)" xmlns="http://www.w3.org/2000/svg" width="30" height="38.791" viewBox="0 0 30 38.791">
  <path id="Path_5121" data-name="Path 5121" d="M14.987,34.227a1.263,1.263,0,1,1-1.263,1.263,1.262,1.262,0,0,1,1.263-1.263ZM6.831,21.3a.755.755,0,0,0-.066-.107c-.11-.18-.221-.36-.331-.565-.11-.221-.221-.429-.319-.622-.1-.208-.193-.429-.275-.65-.069-.193-.152-.414-.234-.676a.886.886,0,0,0-.843-.606H2.374a.521.521,0,0,1-.221-.041.51.51,0,0,1-.164-.123.674.674,0,0,1-.123-.164.512.512,0,0,1-.041-.221V14.514a.772.772,0,0,1,.028-.208.722.722,0,0,1,.139-.193A.387.387,0,0,1,2.156,14a.521.521,0,0,1,.221-.041H4.571a.9.9,0,0,0,.884-.732c.054-.234.11-.455.164-.65.069-.221.139-.429.221-.65a5.835,5.835,0,0,1,.275-.634c.1-.221.208-.414.3-.606A.876.876,0,0,0,6.266,9.64L4.555,7.914C4.542,7.9,4.542,7.9,4.527,7.9A.619.619,0,0,1,4.4,7.737a.394.394,0,0,1-.028-.193.463.463,0,0,1,.041-.208.568.568,0,0,1,.139-.193l2.112-2.1a.568.568,0,0,1,.193-.139.454.454,0,0,1,.208-.041.463.463,0,0,1,.208.041.762.762,0,0,1,.18.123h.013L9.028,6.588a.886.886,0,0,0,1.133.1c.18-.11.36-.221.565-.331.221-.11.429-.221.622-.319.208-.1.429-.193.65-.275.193-.069.414-.152.676-.234a.886.886,0,0,0,.606-.843V2.292a.521.521,0,0,1,.041-.221,1.247,1.247,0,0,1,.11-.164A.407.407,0,0,1,13.6,1.8a.512.512,0,0,1,.221-.041h2.364A.521.521,0,0,1,16.4,1.8a.387.387,0,0,1,.164.11,1.247,1.247,0,0,1,.11.164.512.512,0,0,1,.041.221v2.39a.889.889,0,0,0,.606.843c.262.082.483.164.676.234.221.082.442.18.65.275.193.1.4.208.622.319s.385.221.565.331a.879.879,0,0,0,1.133-.1l1.559-1.559h.013a.631.631,0,0,1,.18-.123.445.445,0,0,1,.208-.041.463.463,0,0,1,.208.041.568.568,0,0,1,.193.139l2.112,2.1a.568.568,0,0,1,.139.193.445.445,0,0,1,.041.208.394.394,0,0,1-.028.193.638.638,0,0,1-.123.164c-.013,0-.013,0-.028.013L23.731,9.637a.877.877,0,0,0-.152,1.048c.1.193.208.385.3.606a6.424,6.424,0,0,1,.275.634c.082.221.152.429.221.65.054.193.11.414.164.65a.9.9,0,0,0,.884.732H27.62a.521.521,0,0,1,.221.041.36.36,0,0,1,.164.11.775.775,0,0,1,.139.193.872.872,0,0,1,.028.208v3.011a.521.521,0,0,1-.041.221.638.638,0,0,1-.123.164.468.468,0,0,1-.164.123.521.521,0,0,1-.221.041h-2.39a.889.889,0,0,0-.843.606c-.082.262-.164.483-.234.676-.082.221-.18.442-.275.65-.1.193-.208.4-.319.622s-.221.388-.331.565a.756.756,0,0,0-.066.107h2.09c.088-.177.177-.366.268-.562.11-.249.221-.5.319-.745.013-.041.041-.1.057-.139h1.768a2.4,2.4,0,0,0,.9-.164,2.325,2.325,0,0,0,.761-.511,2.172,2.172,0,0,0,.511-.761,2.466,2.466,0,0,0,.164-.9V14.511a2.415,2.415,0,0,0-.18-.884,2.215,2.215,0,0,0-.5-.745l-.013-.013a2.263,2.263,0,0,0-.745-.511,2.188,2.188,0,0,0-.9-.18H26.165a.287.287,0,0,0-.028-.11c-.082-.262-.164-.524-.262-.773s-.208-.511-.319-.745a.908.908,0,0,1-.054-.11l1.244-1.256a2.1,2.1,0,0,0,.524-.732,2.416,2.416,0,0,0,.18-.9,2.178,2.178,0,0,0-.18-.9,2.471,2.471,0,0,0-.511-.745h-.013l-2.112-2.1a2.409,2.409,0,0,0-.761-.511,2.323,2.323,0,0,0-1.793,0,2.172,2.172,0,0,0-.761.511L20.243,4.877l-.082-.041c-.221-.123-.47-.234-.732-.36-.249-.11-.5-.221-.745-.319-.041-.013-.1-.041-.139-.057V2.333a2.4,2.4,0,0,0-.164-.9,2.293,2.293,0,0,0-.511-.761,2.428,2.428,0,0,0-.761-.511,2.442,2.442,0,0,0-.9-.164H13.791a2.454,2.454,0,0,0-.9.164,2.5,2.5,0,0,0-.761.511,2.293,2.293,0,0,0-.511.761,2.407,2.407,0,0,0-.164.9V4.1c-.041.013-.1.041-.139.057-.249.1-.5.208-.745.319s-.511.234-.732.36l-.082.041L8.684,3.813A2.172,2.172,0,0,0,7.923,3.3a2.285,2.285,0,0,0-.9-.18,2.178,2.178,0,0,0-.9.18,2.357,2.357,0,0,0-.761.511l-2.112,2.1H3.245a2.53,2.53,0,0,0-.511.745,2.215,2.215,0,0,0-.18.893,2.4,2.4,0,0,0,.18.9,2.129,2.129,0,0,0,.524.732L4.5,10.436a.908.908,0,0,1-.054.11c-.11.234-.208.483-.319.745s-.18.511-.262.773a.357.357,0,0,0-.028.11H2.333a2.177,2.177,0,0,0-.9.18,2.263,2.263,0,0,0-.745.511l-.013.013a2.215,2.215,0,0,0-.5.745A2.371,2.371,0,0,0,0,14.511v3.008a2.454,2.454,0,0,0,.164.9,2.172,2.172,0,0,0,.511.761,2.293,2.293,0,0,0,.761.511,2.407,2.407,0,0,0,.9.164H4.1c.013.041.041.1.057.139.1.249.208.5.319.745.095.2.18.388.268.562H6.831Zm3.419-2.794a1.125,1.125,0,0,0-.6.158.466.466,0,0,0-.17.2.712.712,0,0,0-.057.319,2.837,2.837,0,0,0,.565,1.379l.006.006,1.187,1.891a10.009,10.009,0,0,0,1.6,2.1,3.263,3.263,0,0,0,2.279.919,3.365,3.365,0,0,0,2.412-.956,10.425,10.425,0,0,0,1.641-2.241l1.338-2.2a2.148,2.148,0,0,0,.284-1.174c-.035-.133-.18-.2-.432-.211-.054,0-.107,0-.164,0s-.123.006-.186.013a.386.386,0,0,1-.1-.006,2.05,2.05,0,0,1-.366-.019l.458-2.03c-3.4.537-5.944-1.989-9.539-.505l.259,2.39a2.431,2.431,0,0,1-.407-.019Zm10.508-.426a.868.868,0,0,1,.628.647,2.7,2.7,0,0,1-.325,1.622h0l-.019.038-1.354,2.229A11.037,11.037,0,0,1,17.929,25l-.035.032c.066.1.142.205.218.319.234.344.5.739.751,1.045,1.471.915,4.706,1.162,5.972,1.866,3.22,1.8,2.045,6.158,2.279,9.3A1.258,1.258,0,0,1,25.8,38.788h-.893l.982-7.44a.894.894,0,0,0-.843-1.054h-6.9c.17-1.215.294-2.377.354-3.254a12.932,12.932,0,0,1-.963-1.3c-.066-.095-.129-.189-.189-.275a3.955,3.955,0,0,1-2.285.672,3.859,3.859,0,0,1-2.5-.9,7.736,7.736,0,0,1-.726,1.7.338.338,0,0,1-.082.082c.114.906.271,2.068.458,3.273H5.133a.9.9,0,0,0-.843,1.054l.982,7.44h-.9A1.258,1.258,0,0,1,3.059,37.56c.041-3.324-1.222-7.345,2.279-9.3,1.282-.717,4.586-.96,6.029-1.9a12.569,12.569,0,0,0,.612-1.6c.016-.051-.009.032.016-.041a12.508,12.508,0,0,1-1.379-1.9L9.429,20.928A3.461,3.461,0,0,1,8.753,19.2a1.363,1.363,0,0,1,.117-.619,1.152,1.152,0,0,1,.407-.473,1.537,1.537,0,0,1,.287-.148,30.273,30.273,0,0,1-.057-3.4,4.723,4.723,0,0,1,.145-.77,4.987,4.987,0,0,1,3.3-3.2c.739-.256.455-.865,1.2-.824a9.624,9.624,0,0,1,5.559,2.453c1.477,1.7,1.1,3.785,1.048,5.859ZM12.639,28.469a1.466,1.466,0,0,1,0-2.15,6.358,6.358,0,0,1,2.074.953.947.947,0,0,1,.451-.073A14.58,14.58,0,0,1,17.4,26.193a1.4,1.4,0,0,1-.079,2.371,5.923,5.923,0,0,1-1.379-.505,1.385,1.385,0,0,1-.095.369l.224,1.866H14.28l.224-1.866a1.173,1.173,0,0,1-.189-.606,5.616,5.616,0,0,1-1.676.647Z" transform="translate(0 0)" fill="#282828" fill-rule="evenodd"/>
</svg>
