<svg xmlns="http://www.w3.org/2000/svg" width="33.605" height="40" viewBox="0 0 33.605 40">
  <g id="Group_98" data-name="Group 98" transform="translate(1531 3205)">
    <path id="generate-report-icon" d="M19.723,38.073a.975.975,0,0,1,0,1.926H2.255a2.262,2.262,0,0,1-1.6-.66A2.236,2.236,0,0,1,0,37.748V2.229A2.229,2.229,0,0,1,2.252,0h27.7a2.252,2.252,0,0,1,2.255,2.242V22.261a.983.983,0,0,1-1.944,0V2.242h0a.324.324,0,0,0-.092-.221.328.328,0,0,0-.223-.094H2.255a.309.309,0,0,0-.238.089.3.3,0,0,0-.089.236v35.5h0a.324.324,0,0,0,.092.218.328.328,0,0,0,.226.094H19.723Zm-13.5-4.666V31.239h9.436V33.4H6.222Zm18.1-13.96v1.988H21.477V19.446ZM19.235,17.7v3.739H16.391V17.7Zm-5.083-5.356v9.112H11.308V12.339ZM9.066,8.594V21.435H6.219V8.594Zm13.517.944,4.291.016a4.264,4.264,0,0,1-1.28,3.023,4.43,4.43,0,0,1-.625.508Zm-.439-.846-.216-4.559a.166.166,0,0,1,.157-.172h.17a4.755,4.755,0,0,1,4.808,4.393.17.17,0,0,1-.154.176l-4.582.325a.161.161,0,0,1-.118-.038.159.159,0,0,1-.055-.111h0Zm.272-4.409.213,4.071,3.849-.345A3.793,3.793,0,0,0,25.169,5.45a3.657,3.657,0,0,0-2.723-1.165Zm-.782,5.057,2.291,3.96a4.62,4.62,0,0,1-5.084-.319,4.565,4.565,0,0,1,2.125-8.165l.655,4.523ZM6.219,27.6V25.431H19.592v2.157Z" transform="translate(-1531 -3205)" fill="#282828" fill-rule="evenodd"/>
    <g id="pencil-icon" transform="matrix(0.996, -0.087, 0.087, 0.996, -1508.618, -3177.372)">
      <path id="Path_189" data-name="Path 189" d="M8.251.189l1.91,1.91a.65.65,0,0,1,0,.917L9.1,4.073,6.278,1.246,7.334.189a.65.65,0,0,1,.917,0ZM5.979,4.447h0a.4.4,0,0,1,0,.569h0L3.416,7.582h0a.448.448,0,0,1-.072.057h0a.377.377,0,0,1-.079.038.4.4,0,0,1-.418-.1h0a.447.447,0,0,1-.057-.072h0a.377.377,0,0,1-.038-.079.406.406,0,0,1,.095-.418h0L5.407,4.447h0a.4.4,0,0,1,.569,0ZM3.875,9.3l-2.294.71c-1.8.556-1.79.927-1.3-.8l.773-2.726h0l0,0L5.742,1.781,8.569,4.608,3.877,9.3l0,0Z" transform="translate(0 0)" fill="#282828" fill-rule="evenodd"/>
    </g>
  </g>
</svg>
