<svg id="statistics-graph-svgrepo-com" xmlns="http://www.w3.org/2000/svg" width="33" height="33" viewBox="0 0 33 33">
  <g id="Group_120" data-name="Group 120">
    <g id="Group_119" data-name="Group 119">
      <path id="Path_421" data-name="Path 421" d="M24.758,96.433l-2.935-1.761-2.935,1.761.548.912,1.855-1.113v8.108H15.968v5.323H10.645v5.323H5.323v5.323H0v1.065H6.387v-5.323H11.71v-5.323h5.323v-5.323h5.323V96.233l1.855,1.113Z" transform="translate(0 -88.373)"/>
      <path id="Path_422" data-name="Path 422" d="M359.243,5.822a2.656,2.656,0,0,0,2.338-2.629V0H352V3.194a2.656,2.656,0,0,0,2.338,2.629,2.671,2.671,0,0,0,1.92,1.575v3.247H352V11.71h9.581V10.645h-4.258V7.4A2.671,2.671,0,0,0,359.243,5.822Zm.209-4.758h1.065V3.194a1.6,1.6,0,0,1-1.065,1.5Zm-5.323,3.628a1.594,1.594,0,0,1-1.065-1.5V1.065h1.065Zm2.661,1.695a1.6,1.6,0,0,1-1.6-1.6V1.065h3.194V4.79A1.6,1.6,0,0,1,356.79,6.387Z" transform="translate(-328.581)"/>
      <path id="Path_423" data-name="Path 423" d="M112,436.258h4.258V432H112Zm1.065-3.194h2.129v2.129h-2.129Z" transform="translate(-104.548 -403.258)"/>
      <path id="Path_424" data-name="Path 424" d="M192,361.581h4.258V352H192Zm1.065-8.516h2.129v7.452h-2.129Z" transform="translate(-179.226 -328.581)"/>
      <path id="Path_425" data-name="Path 425" d="M272,286.9h4.258V272H272Zm1.065-13.839h2.129v12.774h-2.129Z" transform="translate(-253.903 -253.903)"/>
      <path id="Path_426" data-name="Path 426" d="M352,212.226h4.258V192H352Zm1.065-19.161h2.129v18.1h-2.129Z" transform="translate(-328.581 -179.226)"/>
      <path id="Path_427" data-name="Path 427" d="M432,212.226h4.258V192H432Zm1.065-19.161h2.129v18.1h-2.129Z" transform="translate(-403.258 -179.226)"/>
      <path id="Path_428" data-name="Path 428" d="M2.129,17.565a2.125,2.125,0,0,0,1.233-3.858L5.975,9.35a2.08,2.08,0,0,0,2.1-.115L10.9,11.253a2.1,2.1,0,0,0-.255.989,2.129,2.129,0,1,0,3.541-1.582L17.629,4.2a2.154,2.154,0,1,0-.944-.492l-3.444,6.457a2.076,2.076,0,0,0-1.623.29L8.793,8.441a2.1,2.1,0,0,0,.255-.989A2.129,2.129,0,1,0,5.157,8.644l-2.81,4.684a2.094,2.094,0,0,0-.218-.022,2.129,2.129,0,0,0,0,4.258ZM18.1,1.065a1.065,1.065,0,1,1-1.065,1.065A1.066,1.066,0,0,1,18.1,1.065ZM12.774,11.177a1.065,1.065,0,1,1-1.065,1.065A1.066,1.066,0,0,1,12.774,11.177ZM6.919,6.387A1.065,1.065,0,1,1,5.855,7.452,1.066,1.066,0,0,1,6.919,6.387Zm-4.79,7.984a1.065,1.065,0,1,1-1.065,1.065A1.066,1.066,0,0,1,2.129,14.371Z"/>
    </g>
  </g>
</svg>
