<svg id="undraw_speed_test_re_pe1f" xmlns="http://www.w3.org/2000/svg" width="423.127" height="341.04" viewBox="0 0 423.127 341.04">
  <path id="Path_7153" data-name="Path 7153" d="M279.136,444.766a164.167,164.167,0,0,1-99.943-33.28l.877-1.082a165.247,165.247,0,0,0,198.193-.047l.878,1.082a164.163,164.163,0,0,1-100,33.327Z" transform="translate(-56.068 -128.399)" fill="#3f3d56"/>
  <g id="Group_3909" data-name="Group 3909" transform="translate(0 0)">
    <path id="Path_7154" data-name="Path 7154" d="M561.062,366.413a1.559,1.559,0,0,0,1.13-2.7l-.107-.425.042-.1a4.187,4.187,0,0,1,7.724.029c1.263,3.043,2.872,6.09,3.268,9.307a12.387,12.387,0,0,1-.217,4.26,49.665,49.665,0,0,0,4.518-20.628,47.947,47.947,0,0,0-.3-5.348q-.246-2.183-.683-4.336a50.24,50.24,0,0,0-9.963-21.293,13.37,13.37,0,0,1-5.561-5.769,10.2,10.2,0,0,1-.928-2.787c.271.035,1.021-4.087.817-4.34.377-.572,1.052-.857,1.465-1.416,2.049-2.778,4.872-2.293,6.346,1.482,3.148,1.589,3.179,4.224,1.247,6.759-1.229,1.613-1.4,3.794-2.476,5.521.111.142.226.28.337.422A50.566,50.566,0,0,1,573,333.409a21.02,21.02,0,0,1,1.255-9.763c1.2-2.9,3.453-5.338,5.435-7.843a4.315,4.315,0,0,1,7.685,2.119l.012.111q-.442.249-.865.529a2.115,2.115,0,0,0,.853,3.849l.043.007a21.045,21.045,0,0,1-.555,3.147c2.544,9.836-2.948,13.419-10.789,13.58-.173.089-.342.178-.515.262a51.614,51.614,0,0,1,2.778,13.074,48.945,48.945,0,0,1-.036,7.9l.013-.093a12.935,12.935,0,0,1,4.416-7.469c3.4-2.791,8.2-3.819,11.865-6.063a2.428,2.428,0,0,1,3.718,2.362l-.015.1a14.208,14.208,0,0,0-1.593.768q-.442.249-.865.529a2.115,2.115,0,0,0,.853,3.849l.043.007.089.013a21.062,21.062,0,0,1-3.874,6.067c-1.59,8.587-8.421,9.4-15.728,6.9h0a51.6,51.6,0,0,1-3.466,10.118H561.372c-.044-.138-.084-.28-.124-.417a14.068,14.068,0,0,0,3.426-.2c-.919-1.127-1.837-2.263-2.756-3.391a.779.779,0,0,1-.058-.067c-.466-.577-.936-1.149-1.4-1.726h0a20.607,20.607,0,0,1,.6-5.249h0Z" transform="translate(-175.217 -96.713)" fill="#f2f2f2"/>
    <path id="Path_7155" data-name="Path 7155" d="M37.322,366.413a1.559,1.559,0,0,1-1.13-2.7l.107-.425-.042-.1a4.187,4.187,0,0,0-7.724.029c-1.263,3.043-2.872,6.09-3.268,9.307a12.388,12.388,0,0,0,.217,4.26,49.665,49.665,0,0,1-4.518-20.628,47.937,47.937,0,0,1,.3-5.348q.246-2.183.683-4.336a50.241,50.241,0,0,1,9.963-21.293,13.37,13.37,0,0,0,5.561-5.769,10.2,10.2,0,0,0,.928-2.787c-.271.035-1.021-4.087-.817-4.34-.377-.572-1.052-.857-1.465-1.416-2.049-2.778-4.872-2.293-6.346,1.482-3.148,1.589-3.179,4.224-1.247,6.759,1.229,1.613,1.4,3.794,2.476,5.521-.111.142-.226.28-.337.422a50.564,50.564,0,0,0-5.278,8.361,21.02,21.02,0,0,0-1.255-9.763c-1.2-2.9-3.453-5.338-5.435-7.843a4.314,4.314,0,0,0-7.685,2.119l-.012.111q.442.249.865.529a2.115,2.115,0,0,1-.853,3.849l-.043.007a21.045,21.045,0,0,0,.555,3.147c-2.544,9.836,2.948,13.419,10.789,13.58.173.089.342.178.515.262a51.612,51.612,0,0,0-2.778,13.074,48.952,48.952,0,0,0,.036,7.9l-.013-.093a12.935,12.935,0,0,0-4.416-7.469c-3.4-2.791-8.2-3.819-11.865-6.063a2.428,2.428,0,0,0-3.718,2.362l.015.1a14.2,14.2,0,0,1,1.593.768q.442.249.865.529a2.115,2.115,0,0,1-.853,3.849l-.043.007-.089.013a21.063,21.063,0,0,0,3.874,6.067c1.59,8.587,8.421,9.4,15.728,6.9h0a51.6,51.6,0,0,0,3.466,10.118H37.012c.044-.138.084-.28.124-.417a14.068,14.068,0,0,1-3.426-.2c.919-1.127,1.837-2.263,2.756-3.391a.769.769,0,0,0,.058-.067c.466-.577.936-1.149,1.4-1.726h0a20.607,20.607,0,0,0-.6-5.249h0Z" transform="translate(-0.013 -96.713)" fill="#f2f2f2"/>
    <path id="Path_7156" data-name="Path 7156" d="M134.243,330.432l-.577.677a101,101,0,1,1,131.039,0l-.577-.677" transform="translate(-30.72 -47.946)" fill="#f2f2f2"/>
    <path id="Path_7157" data-name="Path 7157" d="M355.328,285.469l-.892-1.045a154.431,154.431,0,0,0,54.315-117.659c0-85.246-69.353-154.6-154.6-154.6s-154.6,69.353-154.6,154.6a154.43,154.43,0,0,0,54.315,117.659l-.892,1.045a155.973,155.973,0,1,1,202.352,0Z" transform="translate(-30.72 -3.377)" fill="#3f3d56"/>
    <path id="Path_7158" data-name="Path 7158" d="M395,409.78a.815.815,0,0,0,.818.818H545.806a.818.818,0,1,0,0-1.635H395.818A.815.815,0,0,0,395,409.78Z" transform="translate(-123.593 -127.962)" fill="#ccc"/>
    <rect id="Rectangle_17271" data-name="Rectangle 17271" width="1.374" height="47.686" transform="translate(222.745 8.102)" fill="#3f3d56"/>
    <rect id="Rectangle_17272" data-name="Rectangle 17272" width="47.686" height="1.374" transform="translate(69.04 161.122)" fill="#3f3d56"/>
    <rect id="Rectangle_17273" data-name="Rectangle 17273" width="1.374" height="47.686" transform="translate(120.562 46.888) rotate(-39.219)" fill="#3f3d56"/>
    <rect id="Rectangle_17274" data-name="Rectangle 17274" width="47.687" height="1.374" transform="matrix(0.775, -0.632, 0.632, 0.775, 98.029, 255.373)" fill="#3f3d56"/>
    <rect id="Rectangle_17275" data-name="Rectangle 17275" width="47.686" height="1.374" transform="translate(330.14 161.122)" fill="#3f3d56"/>
    <rect id="Rectangle_17276" data-name="Rectangle 17276" width="47.686" height="1.374" transform="translate(295.089 82.966) rotate(-50.785)" fill="#3f3d56"/>
    <rect id="Rectangle_17277" data-name="Rectangle 17277" width="1.374" height="47.687" transform="translate(311.027 226.28) rotate(-50.781)" fill="#3f3d56"/>
    <circle id="Ellipse_306" data-name="Ellipse 306" cx="19.239" cy="19.239" r="19.239" transform="translate(204.193 139.34)" fill="#3f3d56"/>
    <circle id="Ellipse_307" data-name="Ellipse 307" cx="6.871" cy="6.871" r="6.871" transform="translate(305.198 218.357)" fill="#3f3d56"/>
    <circle id="Ellipse_308" data-name="Ellipse 308" cx="6.871" cy="6.871" r="6.871" transform="translate(320.314 156.517)" fill="#3f3d56"/>
    <circle id="Ellipse_309" data-name="Ellipse 309" cx="6.871" cy="6.871" r="6.871" transform="translate(287.333 76.813)" fill="#3f3d56"/>
    <circle id="Ellipse_310" data-name="Ellipse 310" cx="6.871" cy="6.871" r="6.871" transform="translate(215.874 50.703)" fill="#3f3d56"/>
    <circle id="Ellipse_311" data-name="Ellipse 311" cx="6.871" cy="6.871" r="6.871" transform="translate(145.102 76.813)" fill="#3f3d56"/>
    <circle id="Ellipse_312" data-name="Ellipse 312" cx="6.871" cy="6.871" r="6.871" transform="translate(110.06 154.456)" fill="#3f3d56"/>
    <circle id="Ellipse_313" data-name="Ellipse 313" cx="6.871" cy="6.871" r="6.871" transform="translate(129.299 217.67)" fill="#3f3d56"/>
    <g id="Group_3903" data-name="Group 3903" transform="translate(213.813 147.039)">
      <circle id="Ellipse_314" data-name="Ellipse 314" cx="6.871" cy="6.871" r="6.871" transform="translate(0 5.215)" fill="#3f3d56"/>
      <rect id="Rectangle_17278" data-name="Rectangle 17278" width="163.531" height="9.619" rx="4.81" transform="translate(6.87 7.035) rotate(-2.466)" fill="#0081c8"/>
    </g>
    <g id="Group_3908" data-name="Group 3908" transform="translate(230.358)">
      <g id="Group_3904" data-name="Group 3904" transform="translate(18.068 304.205)">
        <path id="Path_7159" data-name="Path 7159" d="M396.682,473.645h-8.013l-3.813-30.91h11.828Z" transform="translate(-368.845 -442.734)" fill="#a0616a"/>
        <path id="Path_7160" data-name="Path 7160" d="M361.935,483.339h0a6.88,6.88,0,0,0-.381,2.265h0a2.72,2.72,0,0,0,2.72,2.72h24.817a1.855,1.855,0,0,0,1.855-1.855v-1.033s1.228-3.105-1.3-6.933c0,0-3.141,3-7.836-1.7l-1.384-2.508-10.02,7.328-5.554.684c-1.215.15-2.292-.023-2.917,1.03Z" transform="translate(-361.554 -452.61)" fill="#2f2e41"/>
      </g>
      <g id="Group_3905" data-name="Group 3905" transform="translate(60.266 304.205)">
        <path id="Path_7161" data-name="Path 7161" d="M458.1,473.645h-8.014l-3.812-30.91H458.1Z" transform="translate(-430.259 -442.734)" fill="#a0616a"/>
        <path id="Path_7162" data-name="Path 7162" d="M423.349,483.339h0a6.88,6.88,0,0,0-.381,2.265h0a2.72,2.72,0,0,0,2.72,2.72h24.817a1.855,1.855,0,0,0,1.855-1.855v-1.033s1.228-3.105-1.3-6.933c0,0-3.141,3-7.836-1.7l-1.384-2.508-10.02,7.328-5.554.684c-1.215.15-2.292-.023-2.917,1.03Z" transform="translate(-422.968 -452.61)" fill="#2f2e41"/>
      </g>
      <g id="Group_3906" data-name="Group 3906" transform="translate(88.239 53.453)">
        <path id="Path_7163" data-name="Path 7163" d="M484.071,124.076l.848,36.3-7.857,32.673-7.315-2.431,2.131-29.765L470,120.749Z" transform="translate(-465.578 -91.235)" fill="#a0616a"/>
        <ellipse id="Ellipse_315" data-name="Ellipse 315" cx="8.566" cy="5.086" rx="8.566" ry="5.086" transform="translate(0.345 114.054) rotate(-81.755)" fill="#a0616a"/>
        <path id="Path_7164" data-name="Path 7164" d="M463.68,77.795s13.482-.031,15.759,7.869c2.367,8.214,6.144,38.85,4.51,38.852l-16.832,2.127L463.68,77.795Z" transform="translate(-463.68 -77.795)" fill="#0081c8"/>
      </g>
      <g id="Group_3907" data-name="Group 3907" transform="translate(0 54.915)">
        <path id="Path_7165" data-name="Path 7165" d="M374.611,128.29l-7.429,35.544L352.1,193.865l-6.571-4.03,8.844-28.5,11.418-39.482Z" transform="translate(-338.473 -93.041)" fill="#a0616a"/>
        <ellipse id="Ellipse_316" data-name="Ellipse 316" cx="8.566" cy="5.086" rx="8.566" ry="5.086" transform="translate(0 110.205) rotate(-68.612)" fill="#a0616a"/>
        <path id="Path_7166" data-name="Path 7166" d="M377.592,79.922s7.372,3.288,9.434,11.246c1.875,7.239,6.511,39.1-7.111,37.6L362.737,127.4c-.122-16.908,7.177-32.85,14.855-47.474Z" transform="translate(-343.856 -79.922)" fill="#0081c8"/>
      </g>
      <path id="Path_7167" data-name="Path 7167" d="M379.927,228.806l-2.748,24.736,1.374,69.506,2.748,65.167h14.537l16.382-118.869,10.626,118.869h16.88l4.788-80.391s3.436-74.895-2.748-81.079-61.84,2.061-61.84,2.061Z" transform="translate(-348.375 -70.227)" fill="#2f2e41"/>
      <path id="Path_7168" data-name="Path 7168" d="M425.62,59.291H403.111l-4.975,6.871s-9.619,1.374-15.8,7.558l-.687,65.962-4.466,43.133,67.331-1.907L440.393,157.2,443.136,74s-7.209-8.529-12.019-7.155l-5.5-7.558Z" transform="translate(-348.375 -18.552)" fill="#0081c8"/>
      <circle id="Ellipse_317" data-name="Ellipse 317" cx="16.842" cy="16.842" r="16.842" transform="translate(43.435 3.381)" fill="#a0616a"/>
      <path id="Path_7169" data-name="Path 7169" d="M427.309,4.54a9.76,9.76,0,0,0-6.937-2.445A8.086,8.086,0,0,1,416.1,1.031Q415.962.96,415.822.9A6.56,6.56,0,0,0,413.149.54c-1.651.04-3.6-1.615-4.895.68-4.892-.921-5.343,1.921-7.62,3.6-.645-.38-4.817.313-5.256,1a6.3,6.3,0,0,0-.724,1.568c-.1.331.509,1.538.463,1.849s-.749-.272-.755.006a6.474,6.474,0,0,0,.176,1.691c.223.863-2.067-.243-2.819.236s.015,2.694-.72,3.2c-.877.6-.3,1.265.468,2.051a6.54,6.54,0,0,1,1.425,1.816c.7,1.655-3.131,3.122-1.37,2.772,1.818-.361,2.411,2.469,3.941,1.422,3.461-2.368,3.336-2.174,6.356.735.839.808,2.486-2.356,3.595-2,2.09.669,3.8,2.911,5.177,6.3.2.48-1.656,8.306-1.741,8.816-.2,1.19,5.343-1.5,5.328-.2-.02,1.713,3.025-.446,3.9,1.055.11-.137,6.287-2.946,6.583-3.164l4.28-4.137a24.342,24.342,0,0,0,2.975-16.078,15.471,15.471,0,0,0-4.608-9.212Z" transform="translate(-352.562 0)" fill="#2f2e41"/>
    </g>
    <path id="Path_7170" data-name="Path 7170" d="M324,494.78a.815.815,0,0,0,.818.818H474.806a.818.818,0,1,0,0-1.635H324.818A.815.815,0,0,0,324,494.78Z" transform="translate(-101.378 -154.558)" fill="#ccc"/>
    <path id="Path_7171" data-name="Path 7171" d="M0,409.78a.815.815,0,0,0,.818.818H150.806a.818.818,0,1,0,0-1.635H.818A.815.815,0,0,0,0,409.78Z" transform="translate(0 -127.962)" fill="#ccc"/>
  </g>
</svg>
