<svg id="report" xmlns="http://www.w3.org/2000/svg" width="34.303" height="34.304" viewBox="0 0 34.303 34.304">
  <path id="Path_5036" data-name="Path 5036" d="M240.67,161.34a.67.67,0,1,0-.67-.67A.67.67,0,0,0,240.67,161.34Zm0,0" transform="translate(-223.92 -149.28)"/>
  <path id="Path_5037" data-name="Path 5037" d="M240.67,201.34a.67.67,0,1,0-.67-.67A.67.67,0,0,0,240.67,201.34Zm0,0" transform="translate(-223.92 -186.6)"/>
  <path id="Path_5038" data-name="Path 5038" d="M34.107,6.9,27.407.2a.677.677,0,0,0-.474-.2H10.049a2.012,2.012,0,0,0-2.01,2.01V4.051c-.222-.02-.446-.031-.67-.031a7.37,7.37,0,1,0,0,14.74c.224,0,.448-.011.67-.031V32.294a2.012,2.012,0,0,0,2.01,2.01H32.293a2.012,2.012,0,0,0,2.01-2.01V7.37a.674.674,0,0,0-.2-.474ZM27.6,2.288,32.015,6.7H27.6ZM8.039,5.4a6.039,6.039,0,0,1,5.321,5.322H8.039ZM1.34,11.39A6.038,6.038,0,0,1,6.7,5.4V11.39a.669.669,0,0,0,.67.669h5.991A6.029,6.029,0,0,1,1.34,11.39ZM32.293,32.964H10.049a.671.671,0,0,1-.67-.67V18.481a7.37,7.37,0,0,0,0-14.182V2.01a.671.671,0,0,1,.67-.67H26.263V7.37a.67.67,0,0,0,.67.67h6.03V32.294a.671.671,0,0,1-.67.67Zm0,0" transform="translate(0 0)"/>
  <path id="Path_5039" data-name="Path 5039" d="M246.67,61.34h7.1a.67.67,0,0,0,0-1.34h-7.1a.67.67,0,1,0,0,1.34Zm0,0" transform="translate(-229.518 -55.98)"/>
  <path id="Path_5040" data-name="Path 5040" d="M246.67,101.34h7.1a.67.67,0,0,0,0-1.34h-7.1a.67.67,0,1,0,0,1.34Zm0,0" transform="translate(-229.518 -93.3)"/>
  <path id="Path_5041" data-name="Path 5041" d="M44.69,164.02a3.354,3.354,0,0,1-3.35-3.35.67.67,0,0,0-1.34,0,4.7,4.7,0,0,0,4.69,4.69.67.67,0,1,0,0-1.34Zm0,0" transform="translate(-37.32 -149.28)"/>
  <path id="Path_5042" data-name="Path 5042" d="M178.693,266a2.009,2.009,0,0,0-1.667,3.132l-4.652,4.993a2.012,2.012,0,0,0-1.389.083l-2.1-2.6a2.01,2.01,0,1,0-3.591-.034l-2.443,2.648a2.01,2.01,0,1,0,.959.937l2.443-2.648a2.016,2.016,0,0,0,1.652.017l2.1,2.6a2.01,2.01,0,1,0,3.454-.2l4.652-4.993a2.01,2.01,0,1,0,.582-3.934ZM162.01,276.72a.67.67,0,1,1,.67-.67A.671.671,0,0,1,162.01,276.72Zm4.422-6.03a.67.67,0,1,1,.67.67A.671.671,0,0,1,166.432,270.69Zm5.36,6.03a.67.67,0,1,1,.67-.67A.671.671,0,0,1,171.792,276.72Zm6.9-8.04a.67.67,0,1,1,.67-.67A.671.671,0,0,1,178.693,268.68Zm0,0" transform="translate(-149.28 -248.178)"/>
  <path id="Path_5043" data-name="Path 5043" d="M280,160.67a.67.67,0,0,0,.67.67h10.184a.67.67,0,1,0,0-1.34H280.67A.67.67,0,0,0,280,160.67Zm0,0" transform="translate(-261.24 -149.28)"/>
  <path id="Path_5044" data-name="Path 5044" d="M290.854,200H280.67a.67.67,0,0,0,0,1.34h10.184a.67.67,0,1,0,0-1.34Zm0,0" transform="translate(-261.24 -186.6)"/>
</svg>
