<svg xmlns="http://www.w3.org/2000/svg" width="33.301" height="33.301" viewBox="0 0 33.301 33.301">
  <g id="graph-chart-svgrepo-com" transform="translate(0.15 0.15)">
    <circle id="Ellipse_1" data-name="Ellipse 1" cx="0.55" cy="0.55" r="0.55" transform="translate(30.25 12.1)" fill="#fff" stroke="#fff" stroke-width="0.3"/>
    <circle id="Ellipse_2" data-name="Ellipse 2" cx="0.55" cy="0.55" r="0.55" transform="translate(30.25 15.4)" fill="#fff" stroke="#fff" stroke-width="0.3"/>
    <circle id="Ellipse_3" data-name="Ellipse 3" cx="0.55" cy="0.55" r="0.55" transform="translate(28.6 17.05)" fill="#fff" stroke="#fff" stroke-width="0.3"/>
    <circle id="Ellipse_4" data-name="Ellipse 4" cx="0.55" cy="0.55" r="0.55" transform="translate(22 17.05)" fill="#fff" stroke="#fff" stroke-width="0.3"/>
    <circle id="Ellipse_5" data-name="Ellipse 5" cx="0.55" cy="0.55" r="0.55" transform="translate(23.65 15.4)" fill="#fff" stroke="#fff" stroke-width="0.3"/>
    <circle id="Ellipse_6" data-name="Ellipse 6" cx="0.55" cy="0.55" r="0.55" transform="translate(13.75 22)" fill="#fff" stroke="#fff" stroke-width="0.3"/>
    <circle id="Ellipse_7" data-name="Ellipse 7" cx="0.55" cy="0.55" r="0.55" transform="translate(28.6 20.35)" fill="#fff" stroke="#fff" stroke-width="0.3"/>
    <circle id="Ellipse_8" data-name="Ellipse 8" cx="0.55" cy="0.55" r="0.55" transform="translate(30.25 18.7)" fill="#fff" stroke="#fff" stroke-width="0.3"/>
    <circle id="Ellipse_9" data-name="Ellipse 9" cx="0.55" cy="0.55" r="0.55" transform="translate(30.25 22)" fill="#fff" stroke="#fff" stroke-width="0.3"/>
    <circle id="Ellipse_10" data-name="Ellipse 10" cx="0.55" cy="0.55" r="0.55" transform="translate(25.3 20.35)" fill="#fff" stroke="#fff" stroke-width="0.3"/>
    <circle id="Ellipse_11" data-name="Ellipse 11" cx="0.55" cy="0.55" r="0.55" transform="translate(26.95 18.7)" fill="#fff" stroke="#fff" stroke-width="0.3"/>
    <circle id="Ellipse_12" data-name="Ellipse 12" cx="0.55" cy="0.55" r="0.55" transform="translate(26.95 22)" fill="#fff" stroke="#fff" stroke-width="0.3"/>
    <circle id="Ellipse_13" data-name="Ellipse 13" cx="0.55" cy="0.55" r="0.55" transform="translate(18.7 20.35)" fill="#fff" stroke="#fff" stroke-width="0.3"/>
    <circle id="Ellipse_14" data-name="Ellipse 14" cx="0.55" cy="0.55" r="0.55" transform="translate(22 20.35)" fill="#fff" stroke="#fff" stroke-width="0.3"/>
    <circle id="Ellipse_15" data-name="Ellipse 15" cx="0.55" cy="0.55" r="0.55" transform="translate(12.1 23.65)" fill="#fff" stroke="#fff" stroke-width="0.3"/>
    <circle id="Ellipse_16" data-name="Ellipse 16" cx="0.55" cy="0.55" r="0.55" transform="translate(15.4 23.65)" fill="#fff" stroke="#fff" stroke-width="0.3"/>
    <circle id="Ellipse_17" data-name="Ellipse 17" cx="0.55" cy="0.55" r="0.55" transform="translate(5.5 23.65)" fill="#fff" stroke="#fff" stroke-width="0.3"/>
    <circle id="Ellipse_18" data-name="Ellipse 18" cx="0.55" cy="0.55" r="0.55" transform="translate(28.6 23.65)" fill="#fff" stroke="#fff" stroke-width="0.3"/>
    <circle id="Ellipse_19" data-name="Ellipse 19" cx="0.55" cy="0.55" r="0.55" transform="translate(25.3 23.65)" fill="#fff" stroke="#fff" stroke-width="0.3"/>
    <circle id="Ellipse_20" data-name="Ellipse 20" cx="0.55" cy="0.55" r="0.55" transform="translate(18.7 23.65)" fill="#fff" stroke="#fff" stroke-width="0.3"/>
    <circle id="Ellipse_21" data-name="Ellipse 21" cx="0.55" cy="0.55" r="0.55" transform="translate(22 23.65)" fill="#fff" stroke="#fff" stroke-width="0.3"/>
    <circle id="Ellipse_22" data-name="Ellipse 22" cx="0.55" cy="0.55" r="0.55" transform="translate(20.35 18.7)" fill="#fff" stroke="#fff" stroke-width="0.3"/>
    <circle id="Ellipse_23" data-name="Ellipse 23" cx="0.55" cy="0.55" r="0.55" transform="translate(23.65 18.7)" fill="#fff" stroke="#fff" stroke-width="0.3"/>
    <circle id="Ellipse_24" data-name="Ellipse 24" cx="0.55" cy="0.55" r="0.55" transform="translate(20.35 22)" fill="#fff" stroke="#fff" stroke-width="0.3"/>
    <circle id="Ellipse_25" data-name="Ellipse 25" cx="0.55" cy="0.55" r="0.55" transform="translate(23.65 22)" fill="#fff" stroke="#fff" stroke-width="0.3"/>
    <circle id="Ellipse_26" data-name="Ellipse 26" cx="0.55" cy="0.55" r="0.55" transform="translate(12.1 26.95)" fill="#fff" stroke="#fff" stroke-width="0.3"/>
    <circle id="Ellipse_27" data-name="Ellipse 27" cx="0.55" cy="0.55" r="0.55" transform="translate(13.75 25.3)" fill="#fff" stroke="#fff" stroke-width="0.3"/>
    <circle id="Ellipse_28" data-name="Ellipse 28" cx="0.55" cy="0.55" r="0.55" transform="translate(13.75 28.6)" fill="#fff" stroke="#fff" stroke-width="0.3"/>
    <circle id="Ellipse_29" data-name="Ellipse 29" cx="0.55" cy="0.55" r="0.55" transform="translate(15.4 26.95)" fill="#fff" stroke="#fff" stroke-width="0.3"/>
    <circle id="Ellipse_30" data-name="Ellipse 30" cx="0.55" cy="0.55" r="0.55" transform="translate(8.8 26.95)" fill="#fff" stroke="#fff" stroke-width="0.3"/>
    <circle id="Ellipse_31" data-name="Ellipse 31" cx="0.55" cy="0.55" r="0.55" transform="translate(10.45 28.6)" fill="#fff" stroke="#fff" stroke-width="0.3"/>
    <circle id="Ellipse_32" data-name="Ellipse 32" cx="0.55" cy="0.55" r="0.55" transform="translate(2.2 26.95)" fill="#fff" stroke="#fff" stroke-width="0.3"/>
    <circle id="Ellipse_33" data-name="Ellipse 33" cx="0.55" cy="0.55" r="0.55" transform="translate(5.5 26.95)" fill="#fff" stroke="#fff" stroke-width="0.3"/>
    <circle id="Ellipse_34" data-name="Ellipse 34" cx="0.55" cy="0.55" r="0.55" transform="translate(3.85 25.3)" fill="#fff" stroke="#fff" stroke-width="0.3"/>
    <circle id="Ellipse_35" data-name="Ellipse 35" cx="0.55" cy="0.55" r="0.55" transform="translate(7.15 25.3)" fill="#fff" stroke="#fff" stroke-width="0.3"/>
    <circle id="Ellipse_36" data-name="Ellipse 36" cx="0.55" cy="0.55" r="0.55" transform="translate(3.85 28.6)" fill="#fff" stroke="#fff" stroke-width="0.3"/>
    <circle id="Ellipse_37" data-name="Ellipse 37" cx="0.55" cy="0.55" r="0.55" transform="translate(7.15 28.6)" fill="#fff" stroke="#fff" stroke-width="0.3"/>
    <circle id="Ellipse_38" data-name="Ellipse 38" cx="0.55" cy="0.55" r="0.55" transform="translate(28.6 26.95)" fill="#fff" stroke="#fff" stroke-width="0.3"/>
    <circle id="Ellipse_39" data-name="Ellipse 39" cx="0.55" cy="0.55" r="0.55" transform="translate(30.25 25.3)" fill="#fff" stroke="#fff" stroke-width="0.3"/>
    <circle id="Ellipse_40" data-name="Ellipse 40" cx="0.55" cy="0.55" r="0.55" transform="translate(30.25 28.6)" fill="#fff" stroke="#fff" stroke-width="0.3"/>
    <circle id="Ellipse_41" data-name="Ellipse 41" cx="0.55" cy="0.55" r="0.55" transform="translate(25.3 26.95)" fill="#fff" stroke="#fff" stroke-width="0.3"/>
    <circle id="Ellipse_42" data-name="Ellipse 42" cx="0.55" cy="0.55" r="0.55" transform="translate(26.95 25.3)" fill="#fff" stroke="#fff" stroke-width="0.3"/>
    <circle id="Ellipse_43" data-name="Ellipse 43" cx="0.55" cy="0.55" r="0.55" transform="translate(26.95 28.6)" fill="#fff" stroke="#fff" stroke-width="0.3"/>
    <circle id="Ellipse_44" data-name="Ellipse 44" cx="0.55" cy="0.55" r="0.55" transform="translate(17.05 25.3)" fill="#fff" stroke="#fff" stroke-width="0.3"/>
    <circle id="Ellipse_45" data-name="Ellipse 45" cx="0.55" cy="0.55" r="0.55" transform="translate(17.05 28.6)" fill="#fff" stroke="#fff" stroke-width="0.3"/>
    <circle id="Ellipse_46" data-name="Ellipse 46" cx="0.55" cy="0.55" r="0.55" transform="translate(18.7 26.95)" fill="#fff" stroke="#fff" stroke-width="0.3"/>
    <circle id="Ellipse_47" data-name="Ellipse 47" cx="0.55" cy="0.55" r="0.55" transform="translate(22 26.95)" fill="#fff" stroke="#fff" stroke-width="0.3"/>
    <circle id="Ellipse_48" data-name="Ellipse 48" cx="0.55" cy="0.55" r="0.55" transform="translate(20.35 25.3)" fill="#fff" stroke="#fff" stroke-width="0.3"/>
    <circle id="Ellipse_49" data-name="Ellipse 49" cx="0.55" cy="0.55" r="0.55" transform="translate(23.65 25.3)" fill="#fff" stroke="#fff" stroke-width="0.3"/>
    <circle id="Ellipse_50" data-name="Ellipse 50" cx="0.55" cy="0.55" r="0.55" transform="translate(20.35 28.6)" fill="#fff" stroke="#fff" stroke-width="0.3"/>
    <circle id="Ellipse_51" data-name="Ellipse 51" cx="0.55" cy="0.55" r="0.55" transform="translate(23.65 28.6)" fill="#fff" stroke="#fff" stroke-width="0.3"/>
    <path id="Path_429" data-name="Path 429" d="M6.55,28.1h1.1a.55.55,0,0,0,0-1.1H6.55a.55.55,0,1,0,0,1.1Z" transform="translate(-2.7 -12.15)" fill="#fff" stroke="#fff" stroke-width="0.3"/>
    <path id="Path_430" data-name="Path 430" d="M6.55,24.1h1.1a.55.55,0,0,0,0-1.1H6.55a.55.55,0,1,0,0,1.1Z" transform="translate(-2.7 -10.35)" fill="#fff" stroke="#fff" stroke-width="0.3"/>
    <path id="Path_431" data-name="Path 431" d="M6.55,20.1h1.1a.55.55,0,0,0,0-1.1H6.55a.55.55,0,1,0,0,1.1Z" transform="translate(-2.7 -8.55)" fill="#fff" stroke="#fff" stroke-width="0.3"/>
    <path id="Path_432" data-name="Path 432" d="M6.55,16.1h1.1a.55.55,0,0,0,0-1.1H6.55a.55.55,0,0,0,0,1.1Z" transform="translate(-2.7 -6.75)" fill="#fff" stroke="#fff" stroke-width="0.3"/>
    <path id="Path_433" data-name="Path 433" d="M6.55,12.1h1.1a.55.55,0,0,0,0-1.1H6.55a.55.55,0,0,0,0,1.1Z" transform="translate(-2.7 -4.95)" fill="#fff" stroke="#fff" stroke-width="0.3"/>
    <path id="Path_434" data-name="Path 434" d="M6.55,8.1h1.1a.55.55,0,0,0,0-1.1H6.55a.55.55,0,0,0,0,1.1Z" transform="translate(-2.7 -3.15)" fill="#fff" stroke="#fff" stroke-width="0.3"/>
    <path id="Path_435" data-name="Path 435" d="M6.55,4.1h1.1a.55.55,0,0,0,0-1.1H6.55a.55.55,0,1,0,0,1.1Z" transform="translate(-2.7 -1.35)" fill="#fff" stroke="#fff" stroke-width="0.3"/>
    <path id="Path_436" data-name="Path 436" d="M26.366,16.089l-3.3-4.4-6.05,9.35-3.378-4.5-3.85,8.25-3.13-4.173L2.2,25.072V.55a.55.55,0,1,0-1.1,0V30.8H.55a.55.55,0,0,0,0,1.1H1.1v.55a.55.55,0,0,0,1.1,0V31.9H33V5.838ZM29.7,30.8a.55.55,0,1,0-1.1,0H26.4a.55.55,0,1,0-1.1,0H23.1a.55.55,0,1,0-1.1,0H19.8a.55.55,0,1,0-1.1,0H16.5a.55.55,0,1,0-1.1,0H13.2a.55.55,0,1,0-1.1,0H9.9a.55.55,0,1,0-1.1,0H6.6a.55.55,0,1,0-1.1,0H3.3a.55.55,0,1,0-1.1,0V26.628l4.341-4.341,3.47,4.627.457-.978A.542.542,0,0,0,11,26.4a.55.55,0,1,0,0-1.1.533.533,0,0,0-.276.085l3.136-6.72,3.222,4.3.07-.108a.542.542,0,0,0,.447.246.55.55,0,0,0,.55-.55.543.543,0,0,0-.457-.531l5.441-8.408,2.6,3.463a.542.542,0,0,0-.431.526.55.55,0,0,0,.55.55.543.543,0,0,0,.473-.286l.11.147,2.237-3.457a.546.546,0,1,0,.516-.8L31.9,9.562V30.8Z" fill="#fff" stroke="#fff" stroke-width="0.3"/>
  </g>
</svg>
