<svg id="whistle" xmlns="http://www.w3.org/2000/svg" width="34.566" height="34.565" viewBox="0 0 34.566 34.565">
  <path id="Path_5031" data-name="Path 5031" d="M114.746,271a4.411,4.411,0,1,0,4.411,4.411A4.416,4.416,0,0,0,114.746,271Z" transform="translate(-102.886 -252.704)"/>
  <path id="Path_5032" data-name="Path 5032" d="M33.553,123.212H18.3v3.182a1.013,1.013,0,1,1-2.025,0v-3.182H11.86a11.8,11.8,0,0,0-4.415.853,3.724,3.724,0,1,0-4.911,3.688,11.858,11.858,0,1,0,21.185,7.319q0-.23-.009-.461l9.969-1.246a1.013,1.013,0,0,0,.887-1v-8.135a1.013,1.013,0,0,0-1.013-1.013ZM3.724,125.923a1.7,1.7,0,1,1,1.7-1.7A1.7,1.7,0,0,1,3.724,125.923Zm8.135,15.584a6.436,6.436,0,1,1,6.436-6.436A6.443,6.443,0,0,1,11.86,141.507Z" transform="translate(0 -112.365)"/>
  <path id="Path_5033" data-name="Path 5033" d="M242.013,4.737a1.013,1.013,0,0,0,1.013-1.013V1.013a1.013,1.013,0,0,0-2.025,0V3.724A1.013,1.013,0,0,0,242.013,4.737Z" transform="translate(-224.73)"/>
  <path id="Path_5034" data-name="Path 5034" d="M137.149,62.137l2.348,1.356a1.013,1.013,0,0,0,1.013-1.754l-2.348-1.356a1.013,1.013,0,0,0-1.013,1.754Z" transform="translate(-127.418 -56.179)"/>
  <path id="Path_5035" data-name="Path 5035" d="M311.584,63.627a1.008,1.008,0,0,0,.505-.136l2.349-1.356a1.013,1.013,0,1,0-1.013-1.754l-2.349,1.356a1.013,1.013,0,0,0,.507,1.89Z" transform="translate(-289.603 -56.179)"/>
</svg>
