<svg id="success-green-check-mark-icon" xmlns="http://www.w3.org/2000/svg" width="64" height="63.995" viewBox="0 0 64 63.995">
  <path id="Path_430" data-name="Path 430" d="M32,0A31.9,31.9,0,0,1,45.854,3.148c-1.718,1.359-3.311,2.664-4.795,3.919A26.491,26.491,0,1,0,58.031,26.9q2.063-2.691,4.224-5.355A32.01,32.01,0,1,1,32,0ZM17.091,26.741l7.806-.1.582.152a30.113,30.113,0,0,1,4.447,3.12,30.541,30.541,0,0,1,2.865,2.772,112.567,112.567,0,0,1,8.937-12.449A106.636,106.636,0,0,1,52.693,8.828l.761-.294h8.518l-1.718,1.908A182.046,182.046,0,0,0,45.86,28.621,177.2,177.2,0,0,0,34.221,47.985L33.15,50.051l-.984-2.1a51.075,51.075,0,0,0-6.583-10.671,43.107,43.107,0,0,0-9.127-8.448l.636-2.087Z" fill="#19a617"/>
</svg>
