<svg xmlns="http://www.w3.org/2000/svg" width="38" height="33" viewBox="0 0 38 33">
  <path id="CMS" d="M5.7,9.066,4.154,7.585H.628A.633.633,0,0,1,.186,7.4.622.622,0,0,1,0,6.959v-4.8a.626.626,0,0,1,.185-.442L.2,1.7a.627.627,0,0,1,.427-.171H6.95a.633.633,0,0,1,.628.627v4.8a.624.624,0,0,1-.185.442l-.016.014a.626.626,0,0,1-.428.17H6.13V8.9a.245.245,0,0,1-.245.245A.242.242,0,0,1,5.7,9.066Zm24.192-.75L31.167,7.1a.253.253,0,0,1,.177-.07h3.776a.146.146,0,0,0,.1-.041.149.149,0,0,0,.042-.1V2.548a.143.143,0,0,0-.043-.1.145.145,0,0,0-.1-.043H28.531a.146.146,0,0,0-.1.043.144.144,0,0,0-.043.1V6.885a.143.143,0,0,0,.043.1.146.146,0,0,0,.1.042H29.64a.255.255,0,0,1,.255.255ZM18.973,29.092a1.5,1.5,0,1,1-1.507,1.5,1.506,1.506,0,0,1,1.507-1.5ZM15.1,20.522c1.961,2.2,6.4,1.81,8.043.011A15.781,15.781,0,0,1,22.008,19c-.079-.115-.154-.225-.226-.329a4.719,4.719,0,0,1-2.728.8,4.6,4.6,0,0,1-2.986-1.068,9.2,9.2,0,0,1-.868,2.018.411.411,0,0,1-.1.1Zm7.633,3.894H6.853a1.064,1.064,0,0,0-1,1.253L6.8,33H4.381c0-3.915-1.392-8.718,2.717-11,1.53-.851,5.834-1.14,7.555-2.264a14.384,14.384,0,0,0,.729-1.9c.02-.059-.012.038.018-.051a15.013,15.013,0,0,1-1.645-2.264L12.337,13.27a4.109,4.109,0,0,1-.8-2.053,1.618,1.618,0,0,1,.14-.736,1.363,1.363,0,0,1,.488-.565,1.673,1.673,0,0,1,.343-.175A35.689,35.689,0,0,1,12.436,5.7a5.36,5.36,0,0,1,.174-.915A5.934,5.934,0,0,1,16.543.983c.882-.3.542-1.029,1.435-.981,2.115.115,5.379,1.474,6.633,2.916,1.757,2.02,1.3,4.507,1.245,6.971a1.024,1.024,0,0,1,.748.77,3.173,3.173,0,0,1-.389,1.93h0c-.007.016-.015.031-.024.046l-1.615,2.652a13.143,13.143,0,0,1-2.1,2.834l-.042.038c.081.116.168.243.26.377.281.41.6.877.9,1.242,1.755,1.088,5.978,1.381,7.487,2.22,3.778,2.1,2.486,7.284,2.706,11H31.376l.951-7.331a1.064,1.064,0,0,0-1-1.253ZM13.32,10.395a1.391,1.391,0,0,0-.715.186.572.572,0,0,0-.2.235.853.853,0,0,0-.067.379,3.364,3.364,0,0,0,.675,1.639l.006.01,1.418,2.247a12.018,12.018,0,0,0,1.9,2.494,3.9,3.9,0,0,0,2.717,1.091,4.011,4.011,0,0,0,2.876-1.14,12.509,12.509,0,0,0,1.96-2.664l1.6-2.622a2.539,2.539,0,0,0,.338-1.4c-.04-.158-.216-.235-.514-.251-.063,0-.128,0-.194,0s-.145.007-.223.014a.384.384,0,0,1-.124-.007,2.2,2.2,0,0,1-.437-.024l.547-2.412c-4.057.638-7.091-2.366-11.379-.6l.309,2.843a2.5,2.5,0,0,1-.488-.021Zm18.526,2.471a.549.549,0,1,1-.551.549A.55.55,0,0,1,31.846,12.866Zm2.278,2.357,1.1-1.9,1.469,1.889v1.062h-6.3v-.366l1-.023.459-1.121.229.8h.689l.6-1.533Zm-4.117-4.089H37.08a.923.923,0,0,1,.65.269l.015.017a.914.914,0,0,1,.255.632v4.524a.925.925,0,0,1-.92.918H30.007a.921.921,0,0,1-.649-.271.911.911,0,0,1-.271-.647V12.052a.922.922,0,0,1,.92-.918Zm7.073.579H30.007a.339.339,0,0,0-.339.339v4.524a.338.338,0,0,0,.1.239.334.334,0,0,0,.24.1H37.08a.34.34,0,0,0,.339-.339V12.052a.345.345,0,0,0-.09-.231l-.01-.009a.343.343,0,0,0-.24-.1ZM29.742,5.72a.255.255,0,1,1,0-.509h3.53a.255.255,0,1,1,0,.509h-3.53Zm0-1.561a.255.255,0,1,1,0-.51H34.07a.255.255,0,1,1,0,.51Zm1.7,3.379L29.827,9.084a.255.255,0,0,1-.442-.172V7.538h-.854a.655.655,0,0,1-.655-.653V2.548a.658.658,0,0,1,.655-.653h6.588a.657.657,0,0,1,.654.653V6.885a.655.655,0,0,1-.654.653H31.445ZM1.6,11.6h7.02a.883.883,0,0,1,.878.875v4.55a.883.883,0,0,1-.878.875H1.6a.88.88,0,0,1-.62-.258l-.018-.02a.869.869,0,0,1-.24-.6v-4.55a.871.871,0,0,1,.258-.617A.88.88,0,0,1,1.6,11.6Zm2.893,2.4,1.475,1.026a.208.208,0,0,1,.067.063.219.219,0,0,1-.056.306L4.5,16.4a.222.222,0,0,1-.362-.171V14.175a.226.226,0,0,1,.042-.126.22.22,0,0,1,.307-.054Zm4.425-.968H1.3v3.994a.3.3,0,0,0,.076.2l.013.012a.3.3,0,0,0,.21.087h7.02a.3.3,0,0,0,.3-.3V13.027ZM5.788,5.011a.321.321,0,1,1,0,.642H2.4a.321.321,0,1,1,0-.642H5.788Zm0-1.714a.322.322,0,1,1,0,.643H1.635a.322.322,0,1,1,0-.643Z" transform="translate(0 0.001)" fill="#282828" fill-rule="evenodd"/>
</svg>
