<svg xmlns="http://www.w3.org/2000/svg" width="33.242" height="28.999" viewBox="0 0 33.242 28.999">
  <path id="social-media-content-creator-icon" d="M4.838,7.692,3.525,6.436H.533A.537.537,0,0,1,.157,6.28.528.528,0,0,1,0,5.9V1.828a.531.531,0,0,1,.157-.375L.17,1.441A.532.532,0,0,1,.533,1.3H5.9a.537.537,0,0,1,.533.532V5.9a.529.529,0,0,1-.157.375l-.013.012a.531.531,0,0,1-.363.144H5.2V7.555a.208.208,0,0,1-.208.208.205.205,0,0,1-.156-.07Zm20.527-.636,1.079-1.032a.214.214,0,0,1,.15-.06h3.2a.124.124,0,0,0,.086-.035.126.126,0,0,0,.036-.087V2.162a.121.121,0,0,0-.037-.085A.123.123,0,0,0,29.8,2.04h-5.59a.124.124,0,0,0-.086.036.122.122,0,0,0-.037.085v3.68a.121.121,0,0,0,.037.086.124.124,0,0,0,.086.036h.941a.217.217,0,0,1,.216.216ZM16.1,24.684A1.275,1.275,0,1,1,14.82,25.96,1.278,1.278,0,0,1,16.1,24.684Zm-3.285-7.272c1.664,1.864,5.431,1.536,6.824.009a13.39,13.39,0,0,1-.965-1.3c-.067-.1-.13-.191-.191-.279a4,4,0,0,1-2.315.679,3.9,3.9,0,0,1-2.533-.906A7.8,7.8,0,0,1,12.9,17.33.349.349,0,0,1,12.814,17.412Zm6.476,3.3H5.814a.9.9,0,0,0-.852,1.063L5.77,28H3.717c0-3.322-1.181-7.4,2.305-9.335,1.3-.722,4.95-.967,6.41-1.921a12.2,12.2,0,0,0,.618-1.614c.017-.05-.01.033.015-.043a12.738,12.738,0,0,1-1.4-1.921l-1.2-1.906a3.486,3.486,0,0,1-.683-1.742A1.372,1.372,0,0,1,9.9,8.894a1.156,1.156,0,0,1,.414-.479,1.42,1.42,0,0,1,.291-.148,30.281,30.281,0,0,1-.057-3.427,4.548,4.548,0,0,1,.148-.777A5.035,5.035,0,0,1,14.036.834C14.785.576,14.5-.04,15.253,0a9.754,9.754,0,0,1,5.628,2.474C22.373,4.189,21.988,6.3,21.937,8.39a.869.869,0,0,1,.635.653,2.692,2.692,0,0,1-.33,1.637h0c-.006.013-.013.026-.02.039l-1.37,2.25a11.152,11.152,0,0,1-1.78,2.4l-.035.032c.069.1.143.207.22.32.238.348.509.744.76,1.054,1.489.923,5.073,1.172,6.353,1.884,3.205,1.781,2.11,6.18,2.3,9.335H26.622l.807-6.22a.9.9,0,0,0-.852-1.063ZM11.3,8.82a1.181,1.181,0,0,0-.606.158.485.485,0,0,0-.174.2.724.724,0,0,0-.057.321,2.854,2.854,0,0,0,.573,1.391l.005.008,1.2,1.906a10.2,10.2,0,0,0,1.616,2.116,3.308,3.308,0,0,0,2.305.926,3.4,3.4,0,0,0,2.44-.967,10.614,10.614,0,0,0,1.663-2.26L21.625,10.4a2.154,2.154,0,0,0,.287-1.184c-.034-.134-.183-.2-.436-.213-.054,0-.109,0-.165,0s-.123.006-.189.012A.326.326,0,0,1,21.016,9a1.865,1.865,0,0,1-.371-.021l.464-2.047c-3.442.541-6.016-2.008-9.655-.509l.262,2.412A2.117,2.117,0,0,1,11.3,8.82Zm15.719,2.1a.466.466,0,1,1-.468.466A.466.466,0,0,1,27.021,10.917Zm1.933,2,.935-1.612,1.246,1.6v.9H25.787V13.5l.85-.019.389-.951.195.679H27.8l.506-1.3ZM25.46,9.447h6a.783.783,0,0,1,.552.229l.013.014a.776.776,0,0,1,.217.536v3.839a.785.785,0,0,1-.781.779h-6a.781.781,0,0,1-.551-.23.773.773,0,0,1-.23-.549V10.226a.783.783,0,0,1,.781-.779Zm6,.492h-6a.288.288,0,0,0-.288.288v3.839a.287.287,0,0,0,.084.2.284.284,0,0,0,.2.085h6a.289.289,0,0,0,.288-.288V10.226a.292.292,0,0,0-.076-.2l-.008-.008a.291.291,0,0,0-.2-.084ZM25.235,4.853a.216.216,0,1,1,0-.432h3a.216.216,0,1,1,0,.432Zm0-1.325a.216.216,0,1,1,0-.433h3.673a.216.216,0,1,1,0,.433ZM26.681,6.4,25.308,7.708a.216.216,0,0,1-.375-.146V6.4h-.724a.556.556,0,0,1-.555-.554V2.162a.558.558,0,0,1,.555-.554H29.8a.557.557,0,0,1,.555.554v3.68A.556.556,0,0,1,29.8,6.4H26.681ZM1.355,9.839H7.311a.749.749,0,0,1,.745.743v3.861a.749.749,0,0,1-.745.743H1.355a.747.747,0,0,1-.526-.218l-.015-.017a.737.737,0,0,1-.2-.507V10.582a.739.739,0,0,1,.219-.524.747.747,0,0,1,.526-.219Zm2.455,2.035,1.252.871a.176.176,0,0,1,.057.053.186.186,0,0,1-.047.26l-1.249.861a.188.188,0,0,1-.307-.145V12.027a.191.191,0,0,1,.035-.107.187.187,0,0,1,.26-.046Zm3.754-.821H1.1v3.389a.251.251,0,0,0,.064.168l.011.01a.256.256,0,0,0,.178.074H7.311a.253.253,0,0,0,.253-.252V11.053Zm-2.653-6.8a.272.272,0,1,1,0,.545H2.037a.272.272,0,1,1,0-.545H4.911Zm0-1.454a.273.273,0,1,1,0,.546H1.387a.273.273,0,1,1,0-.546Z" transform="translate(0.5 0.5)" fill="#fff" stroke="#000" stroke-width="1" fill-rule="evenodd"/>
</svg>
