<svg xmlns="http://www.w3.org/2000/svg" width="34" height="37.835" viewBox="0 0 34 37.835">
  <path id="legal-contract-paper-icon" d="M24.027,24.7a.9.9,0,0,1,.554.172c.215.139.459.409.76.579.425.243,1.21-.089,1.61.508a1.573,1.573,0,0,1,.262.89,1.539,1.539,0,0,0,.369.948c.492.653.594,1.087.342,1.539-.175.308-.539.48-.616.674-.179.416.018.726-.225,1.213a1.29,1.29,0,0,1-.785.668c-.308.1-.594-.043-.831.058-.416.175-.72.582-1.053.686a1.25,1.25,0,0,1-.382.058,1.265,1.265,0,0,1-.382-.058c-.332-.1-.637-.511-1.053-.686-.237-.1-.533.037-.831-.058a1.265,1.265,0,0,1-.782-.668c-.246-.486-.049-.8-.228-1.213-.083-.2-.446-.369-.616-.674-.255-.452-.154-.886.342-1.539a1.557,1.557,0,0,0,.369-.948,1.561,1.561,0,0,1,.262-.89c.4-.6,1.188-.262,1.61-.508.308-.169.545-.443.76-.579a.923.923,0,0,1,.554-.172ZM4.811,37.792a7.236,7.236,0,0,1-3.118-.428C.631,36.866,0,35.924,0,34.139V32.51H4.648V4.094A3.845,3.845,0,0,1,5.707.81,4.356,4.356,0,0,1,8.585-.028c.055-.028,23.03,0,25.415,0v33.9a3.872,3.872,0,0,1-1.034,2.995,4.21,4.21,0,0,1-3.01.923Zm5.67-30.583a.656.656,0,0,1,0-1.311H22.439a.656.656,0,1,1,0,1.311Zm0,4.466a.656.656,0,0,1,0-1.311H28.056a.656.656,0,0,1,0,1.311Zm0,13.389a.653.653,0,1,1,0-1.305h6.067a.653.653,0,1,1,0,1.305Zm0-4.46a.656.656,0,0,1,0-1.311H28.056a.656.656,0,0,1,0,1.311Zm0-4.475a.646.646,0,0,1,0-1.293H28.158a.646.646,0,0,1,0,1.293Zm-.323,13.642c1.521-2,2.816-1.093,4.617.169l.268.188c.5.345,1.071-.163,1.616-.646a6.772,6.772,0,0,1,.806-.643l.56.883a5.823,5.823,0,0,0-.671.542c-.85.748-1.739,1.539-2.906.723l-.274-.191c-1.327-.923-2.278-1.591-3.192-.391Zm-5.51,4.06H1.311v.308c0,1.179.351,1.767.923,2.041a6.022,6.022,0,0,0,2.4.308V33.831Zm28.044.055V1.3H8.591a3.125,3.125,0,0,0-2.028.5,2.709,2.709,0,0,0-.616,2.265V36.481H29.955a3.051,3.051,0,0,0,2.118-.569,2.669,2.669,0,0,0,.616-2.035ZM24.027,26.3a2.395,2.395,0,1,1-2.392,2.395A2.395,2.395,0,0,1,24.027,26.3Z" transform="translate(0 0.04)" fill-rule="evenodd"/>
</svg>
