<svg xmlns="http://www.w3.org/2000/svg" width="34" height="41.52" viewBox="0 0 34 41.52">
  <path id="task-setting-icon" d="M7.547,3.2H11.29A3.543,3.543,0,0,1,14.73,0a3.539,3.539,0,0,1,3.435,3.16l3.8.037a.381.381,0,0,1,.381.382V7.786a.38.38,0,0,1-.381.381H7.551a.383.383,0,0,1-.382-.381V3.579A.377.377,0,0,1,7.547,3.2Zm18.011,21.44a8.441,8.441,0,1,1-8.441,8.441A8.441,8.441,0,0,1,25.558,24.637Zm2.5,4.22a.47.47,0,0,0-.359-.083.478.478,0,0,0-.308.2l-.424.6A3.8,3.8,0,0,0,26,29.315l-.133-.783a.488.488,0,0,0-.192-.308.45.45,0,0,0-.357-.075l-.981.174a.488.488,0,0,0-.308.192.466.466,0,0,0-.084.359l.125.715a3.663,3.663,0,0,0-.856.515l-.665-.458a.443.443,0,0,0-.349-.083.479.479,0,0,0-.308.2l-.566.807a.464.464,0,0,0-.083.356.452.452,0,0,0,.2.308l.6.425a3.943,3.943,0,0,0-.256.964L21,32.758a.487.487,0,0,0-.308.192.453.453,0,0,0-.075.357l.174.981a.5.5,0,0,0,.192.308.45.45,0,0,0,.358.083l.716-.125a4.126,4.126,0,0,0,.514.866l-.458.656a.442.442,0,0,0-.082.35.485.485,0,0,0,.2.308l.815.573a.456.456,0,0,0,.357.076.516.516,0,0,0,.317-.192l.423-.608a4,4,0,0,0,.966.258l.134.782a.477.477,0,0,0,.19.308.457.457,0,0,0,.358.074l.982-.174a.492.492,0,0,0,.308-.192.454.454,0,0,0,.083-.357l-.124-.716a4.059,4.059,0,0,0,.865-.516l.657.458a.47.47,0,0,0,.665-.117l.573-.815a.455.455,0,0,0,.075-.357.5.5,0,0,0-.19-.316l-.608-.415a3.924,3.924,0,0,0,.257-.965l.782-.133a.486.486,0,0,0,.308-.192.45.45,0,0,0,.075-.357l-.174-.982a.488.488,0,0,0-.192-.308.454.454,0,0,0-.358-.084l-.715.125a3.794,3.794,0,0,0-.515-.856L29,30.072a.444.444,0,0,0,.083-.349.485.485,0,0,0-.2-.308l-.807-.565-.024.007ZM25.56,30.981a2.1,2.1,0,1,1-2.1,2.1A2.1,2.1,0,0,1,25.56,30.981ZM3.386,4.81H5.328V6.788H3.386A1.413,1.413,0,0,0,1.978,8.195V33.8a1.416,1.416,0,0,0,1.408,1.409H14.958a10.747,10.747,0,0,0,.6,1.978H3.386A3.4,3.4,0,0,1,0,33.8V8.195A3.394,3.394,0,0,1,3.386,4.81ZM27.53,22.447V8.195a1.409,1.409,0,0,0-1.408-1.407H24.181V4.81h1.941a3.4,3.4,0,0,1,3.386,3.385V23.013A10.646,10.646,0,0,0,27.53,22.447Zm-16.776-.654a1.049,1.049,0,1,1,0-2.1H22.343a1.049,1.049,0,0,1,0,2.1H10.754Zm-3.492-2.22a1.172,1.172,0,1,1-1.172,1.172,1.172,1.172,0,0,1,1.172-1.172Zm0,6.38a1.172,1.172,0,1,1-1.172,1.172A1.172,1.172,0,0,1,7.263,25.953Zm3.493,2.22a1.049,1.049,0,1,1,0-2.1h6.57a10.867,10.867,0,0,0-1.4,2.1ZM7.263,13.2a1.171,1.171,0,1,1-1.172,1.171A1.171,1.171,0,0,1,7.263,13.2Zm3.492,2.219a1.049,1.049,0,1,1,0-2.1H22.343a1.049,1.049,0,0,1,0,2.1ZM14.69,1.636a1.806,1.806,0,1,1-1.806,1.807A1.806,1.806,0,0,1,14.69,1.636Z" fill-rule="evenodd"/>
</svg>
